  0
SECTION
  2
HEADER
  9
$ACADVER
  1
AC1015
  9
$ACADMAINTVER
 70
     6
  9
$DWGCODEPAGE
  3
ANSI_1252
  9
$INSBASE
 10
0.0
 20
0.0
 30
0.0
  9
$EXTMIN
 10
0.0
 20
0.0
 30
0.0
  9
$EXTMAX
 10
279.4
 20
215.9
 30
0.0
  9
$LIMMIN
 10
0.0
 20
0.0
  9
$LIMMAX
 10
279.4
 20
215.9
  9
$ORTHOMODE
 70
     0
  9
$REGENMODE
 70
     1
  9
$FILLMODE
 70
     1
  9
$QTEXTMODE
 70
     0
  9
$MIRRTEXT
 70
     1
  9
$LTSCALE
 40
1.0
  9
$ATTMODE
 70
     1
  9
$TEXTSIZE
 40
3.175
  9
$TRACEWID
 40
1.0
  9
$TEXTSTYLE
  7
Standard
  9
$CLAYER
  8
0
  9
$CELTYPE
  6
ByLayer
  9
$CECOLOR
 62
   256
  9
$CELTSCALE
 40
1.0
  9
$DISPSILH
 70
     0
  9
$DIMSCALE
 40
1.0
  9
$DIMASZ
 40
3.302
  9
$DIMEXO
 40
1.27
  9
$DIMDLI
 40
3.75
  9
$DIMRND
 40
0.0
  9
$DIMDLE
 40
0.0
  9
$DIMEXE
 40
3.175
  9
$DIMTP
 40
0.0
  9
$DIMTM
 40
0.0
  9
$DIMTXT
 40
3.175
  9
$DIMCEN
 40
2.5
  9
$DIMTSZ
 40
0.0
  9
$DIMTOL
 70
     0
  9
$DIMLIM
 70
     0
  9
$DIMTIH
 70
     1
  9
$DIMTOH
 70
     1
  9
$DIMSE1
 70
     0
  9
$DIMSE2
 70
     0
  9
$DIMTAD
 70
     0
  9
$DIMZIN
 70
     0
  9
$DIMBLK
  1

  9
$DIMASO
 70
     1
  9
$DIMSHO
 70
     1
  9
$DIMPOST
  1

  9
$DIMAPOST
  1

  9
$DIMALT
 70
     0
  9
$DIMALTD
 70
     3
  9
$DIMALTF
 40
0.0393700787
  9
$DIMLFAC
 40
1.0
  9
$DIMTOFL
 70
     1
  9
$DIMTVP
 40
0.0
  9
$DIMTIX
 70
     0
  9
$DIMSOXD
 70
     0
  9
$DIMSAH
 70
     0
  9
$DIMBLK1
  1

  9
$DIMBLK2
  1

  9
$DIMSTYLE
  2
ISO-25
  9
$DIMCLRD
 70
     0
  9
$DIMCLRE
 70
     0
  9
$DIMCLRT
 70
     0
  9
$DIMTFAC
 40
1.0
  9
$DIMGAP
 40
1.524
  9
$DIMJUST
 70
     0
  9
$DIMSD1
 70
     0
  9
$DIMSD2
 70
     0
  9
$DIMTOLJ
 70
     0
  9
$DIMTZIN
 70
     0
  9
$DIMALTZ
 70
     0
  9
$DIMALTTZ
 70
     0
  9
$DIMUPT
 70
     0
  9
$DIMDEC
 70
     2
  9
$DIMTDEC
 70
     2
  9
$DIMALTU
 70
     2
  9
$DIMALTTD
 70
     3
  9
$DIMTXSTY
  7
Standard
  9
$DIMAUNIT
 70
     0
  9
$DIMADEC
 70
     2
  9
$DIMALTRND
 40
0.0
  9
$DIMAZIN
 70
     0
  9
$DIMDSEP
 70
    44
  9
$DIMATFIT
 70
     3
  9
$DIMFRAC
 70
     0
  9
$DIMLDRBLK
  1

  9
$DIMLUNIT
 70
     2
  9
$DIMLWD
 70
    -2
  9
$DIMLWE
 70
    -2
  9
$DIMTMOVE
 70
     0
  9
$LUNITS
 70
     2
  9
$LUPREC
 70
     2
  9
$SKETCHINC
 40
1.0
  9
$FILLETRAD
 40
10.0
  9
$AUNITS
 70
     0
  9
$AUPREC
 70
     2
  9
$MENU
  1
.
  9
$ELEVATION
 40
0.0
  9
$PELEVATION
 40
0.0
  9
$THICKNESS
 40
0.0
  9
$LIMCHECK
 70
     0
  9
$CHAMFERA
 40
0.0
  9
$CHAMFERB
 40
0.0
  9
$CHAMFERC
 40
0.0
  9
$CHAMFERD
 40
0.0
  9
$SKPOLY
 70
     0
  9
$TDCREATE
 40
2458211.915769768
  9
$TDUCREATE
 40
2458212.082436435
  9
$TDUPDATE
 40
2458211.915772234
  9
$TDUUPDATE
 40
2458212.082438901
  9
$TDINDWG
 40
0.0000000116
  9
$TDUSRTIMER
 40
0.0000000116
  9
$USRTIMER
 70
     1
  9
$ANGBASE
 50
0.0
  9
$ANGDIR
 70
     0
  9
$PDMODE
 70
     0
  9
$PDSIZE
 40
-1.0
  9
$PLINEWID
 40
0.0
  9
$SPLFRAME
 70
     0
  9
$SPLINETYPE
 70
     6
  9
$SPLINESEGS
 70
     8
  9
$HANDSEED
  5
112
  9
$SURFTAB1
 70
     6
  9
$SURFTAB2
 70
     6
  9
$SURFTYPE
 70
     6
  9
$SURFU
 70
     6
  9
$SURFV
 70
     6
  9
$UCSBASE
  2

  9
$UCSNAME
  2

  9
$UCSORG
 10
0.0
 20
0.0
 30
0.0
  9
$UCSXDIR
 10
1.0
 20
0.0
 30
0.0
  9
$UCSYDIR
 10
0.0
 20
1.0
 30
0.0
  9
$UCSORTHOREF
  2

  9
$UCSORTHOVIEW
 70
     0
  9
$UCSORGTOP
 10
0.0
 20
0.0
 30
0.0
  9
$UCSORGBOTTOM
 10
0.0
 20
0.0
 30
0.0
  9
$UCSORGLEFT
 10
0.0
 20
0.0
 30
0.0
  9
$UCSORGRIGHT
 10
0.0
 20
0.0
 30
0.0
  9
$UCSORGFRONT
 10
0.0
 20
0.0
 30
0.0
  9
$UCSORGBACK
 10
0.0
 20
0.0
 30
0.0
  9
$PUCSBASE
  2

  9
$PUCSNAME
  2

  9
$PUCSORG
 10
0.0
 20
0.0
 30
0.0
  9
$PUCSXDIR
 10
1.0
 20
0.0
 30
0.0
  9
$PUCSYDIR
 10
0.0
 20
1.0
 30
0.0
  9
$PUCSORTHOREF
  2

  9
$PUCSORTHOVIEW
 70
     0
  9
$PUCSORGTOP
 10
0.0
 20
0.0
 30
0.0
  9
$PUCSORGBOTTOM
 10
0.0
 20
0.0
 30
0.0
  9
$PUCSORGLEFT
 10
0.0
 20
0.0
 30
0.0
  9
$PUCSORGRIGHT
 10
0.0
 20
0.0
 30
0.0
  9
$PUCSORGFRONT
 10
0.0
 20
0.0
 30
0.0
  9
$PUCSORGBACK
 10
0.0
 20
0.0
 30
0.0
  9
$USERI1
 70
     0
  9
$USERI2
 70
     0
  9
$USERI3
 70
     0
  9
$USERI4
 70
     0
  9
$USERI5
 70
     0
  9
$USERR1
 40
0.0
  9
$USERR2
 40
0.0
  9
$USERR3
 40
0.0
  9
$USERR4
 40
0.0
  9
$USERR5
 40
0.0
  9
$WORLDVIEW
 70
     1
  9
$SHADEDGE
 70
     3
  9
$SHADEDIF
 70
    70
  9
$TILEMODE
 70
     1
  9
$MAXACTVP
 70
    64
  9
$PINSBASE
 10
0.0
 20
0.0
 30
0.0
  9
$PLIMCHECK
 70
     0
  9
$PEXTMIN
 10
1.0000000000E+20
 20
1.0000000000E+20
 30
1.0000000000E+20
  9
$PEXTMAX
 10
-1.0000000000E+20
 20
-1.0000000000E+20
 30
-1.0000000000E+20
  9
$PLIMMIN
 10
0.0
 20
0.0
  9
$PLIMMAX
 10
420.0
 20
297.0
  9
$UNITMODE
 70
     0
  9
$VISRETAIN
 70
     1
  9
$PLINEGEN
 70
     0
  9
$PSLTSCALE
 70
     1
  9
$TREEDEPTH
 70
  3020
  9
$CMLSTYLE
  2
Standard
  9
$CMLJUST
 70
     0
  9
$CMLSCALE
 40
20.0
  9
$PROXYGRAPHICS
 70
     1
  9
$MEASUREMENT
 70
     1
  9
$CELWEIGHT
370
    -1
  9
$ENDCAPS
280
     0
  9
$JOINSTYLE
280
     0
  9
$LWDISPLAY
290
     1
  9
$INSUNITS
 70
     4
  9
$HYPERLINKBASE
  1

  9
$STYLESHEET
  1

  9
$XEDIT
290
     1
  9
$CEPSNTYPE
380
     0
  9
$PSTYLEMODE
290
     1
  9
$FINGERPRINTGUID
  2
{526419A1-7D4E-4BA9-A726-41CB7A9C48F4}
  9
$VERSIONGUID
  2
{FAEB1C32-E019-11D5-929B-00C0DF256EC4}
  9
$EXTNAMES
290
     1
  9
$PSVPSCALE
 40
0.0
  9
$OLESTARTUP
290
     0
  0
ENDSEC
  0
SECTION
  2
CLASSES
  0
CLASS
  1
ACDBDICTIONARYWDFLT
  2
AcDbDictionaryWithDefault
  3
ObjectDBX Classes
 90
        0
280
     0
281
     0
  0
CLASS
  1
VISUALSTYLE
  2
AcDbVisualStyle
  3
ObjectDBX Classes
 90
     4095
280
     0
281
     0
  0
CLASS
  1
MATERIAL
  2
AcDbMaterial
  3
ObjectDBX Classes
 90
     1153
280
     0
281
     0
  0
CLASS
  1
SCALE
  2
AcDbScale
  3
ObjectDBX Classes
 90
     1153
280
     0
281
     0
  0
CLASS
  1
TABLESTYLE
  2
AcDbTableStyle
  3
ObjectDBX Classes
 90
     4095
280
     0
281
     0
  0
CLASS
  1
MLEADERSTYLE
  2
AcDbMLeaderStyle
  3
ACDB_MLEADERSTYLE_CLASS
 90
     4095
280
     0
281
     0
  0
CLASS
  1
SUN
  2
AcDbSun
  3
SCENEOE
 90
     1153
280
     0
281
     0
  0
CLASS
  1
ACDBPLACEHOLDER
  2
AcDbPlaceHolder
  3
ObjectDBX Classes
 90
        0
280
     0
281
     0
  0
CLASS
  1
LAYOUT
  2
AcDbLayout
  3
ObjectDBX Classes
 90
        0
280
     0
281
     0
  0
ENDSEC
  0
SECTION
  2
TABLES
  0
TABLE
  2
VPORT
  5
8
330
0
100
AcDbSymbolTable
 70
     1
  0
VPORT
  5
29
330
8
100
AcDbSymbolTableRecord
100
AcDbViewportTableRecord
  2
*Active
 70
     0
 10
0.0
 20
0.0
 11
1.0
 21
1.0
 12
139.7
 22
107.95
 13
0.0
 23
0.0
 14
10.0
 24
10.0
 15
10.0
 25
10.0
 16
0.0
 26
0.0
 36
1.0
 17
0.0
 27
0.0
 37
0.0
 40
215.9
 41
1.2941176471
 42
50.0
 43
0.0
 44
0.0
 50
0.0
 51
0.0
 71
     0
 72
  2000
 73
     1
 74
     3
 75
     0
 76
     0
 77
     0
 78
     0
281
     0
 65
     1
110
0.0
120
0.0
130
0.0
111
1.0
121
0.0
131
0.0
112
0.0
122
1.0
132
0.0
 79
     0
146
0.0
  0
ENDTAB
  0
TABLE
  2
LTYPE
  5
5
330
0
100
AcDbSymbolTable
 70
     6
  0
LTYPE
  5
14
330
5
100
AcDbSymbolTableRecord
100
AcDbLinetypeTableRecord
  2
ByBlock
 70
     0
  3

 72
    65
 73
     0
 40
0.0
  0
LTYPE
  5
15
330
5
100
AcDbSymbolTableRecord
100
AcDbLinetypeTableRecord
  2
ByLayer
 70
     0
  3

 72
    65
 73
     0
 40
0.0
  0
LTYPE
  5
16
330
5
100
AcDbSymbolTableRecord
100
AcDbLinetypeTableRecord
  2
Continuous
 70
     0
  3
Solid line
 72
    65
 73
     0
 40
0.0
  0
LTYPE
  5
6E
330
5
100
AcDbSymbolTableRecord
100
AcDbLinetypeTableRecord
  2
HIDDEN
 70
     0
  3
Hidden __ __ __ __ __ __ __ __ __ __ __ __ __ __
 72
    65
 73
     2
 40
1.905
 49
1.27
 74
     0
 49
-0.635
 74
     0
  0
LTYPE
  5
6F
330
5
100
AcDbSymbolTableRecord
100
AcDbLinetypeTableRecord
  2
PHANTOM
 70
     0
  3
Phantom ______  __  __  ______  __  __  ______
 72
    65
 73
     6
 40
12.7
 49
6.35
 74
     0
 49
-1.27
 74
     0
 49
1.27
 74
     0
 49
-1.27
 74
     0
 49
1.27
 74
     0
 49
-1.27
 74
     0
  0
LTYPE
  5
70
330
5
100
AcDbSymbolTableRecord
100
AcDbLinetypeTableRecord
  2
CENTER
 70
     0
  3
Center ____ _ ____ _ ____ _ ____ _ ____ _ ____
 72
    65
 73
     4
 40
10.16
 49
6.35
 74
     0
 49
-1.27
 74
     0
 49
1.27
 74
     0
 49
-1.27
 74
     0
  0
LTYPE
  5
71
330
5
100
AcDbSymbolTableRecord
100
AcDbLinetypeTableRecord
  2
CENTERX2
 70
     0
  3
Center (2x) ________  __  ________  __  _____
 72
    65
 73
     4
 40
20.32
 49
12.7
 74
     0
 49
-2.54
 74
     0
 49
2.54
 74
     0
 49
-2.54
 74
     0
  0
LTYPE
  5
72
330
5
100
AcDbSymbolTableRecord
100
AcDbLinetypeTableRecord
  2
DOT2
 70
     0
  3
Dot (.5x) ........................................
 72
    65
 73
     2
 40
0.635
 49
0.0
 74
     0
 49
-0.635
 74
     0
  0
ENDTAB
  0
TABLE
  2
LAYER
  5
2
330
0
100
AcDbSymbolTable
 70
     1
  0
LAYER
  5
10
330
2
100
AcDbSymbolTableRecord
100
AcDbLayerTableRecord
  2
0
 70
     0
 62
     7
  6
Continuous
370
    -3
390
F
  0
ENDTAB
  0
TABLE
  2
STYLE
  5
3
330
0
100
AcDbSymbolTable
 70
     1
  0
STYLE
  5
11
330
3
100
AcDbSymbolTableRecord
100
AcDbTextStyleTableRecord
  2
Standard
 70
     0
 40
0.0
 41
1.0
 50
0.0
 71
     0
 42
3.175
  3
txt
  4

  0
ENDTAB
  0
TABLE
  2
VIEW
  5
6
330
0
100
AcDbSymbolTable
 70
     0
  0
ENDTAB
  0
TABLE
  2
UCS
  5
7
330
0
100
AcDbSymbolTable
 70
     0
  0
ENDTAB
  0
TABLE
  2
APPID
  5
9
330
0
100
AcDbSymbolTable
 70
     1
  0
APPID
  5
12
330
9
100
AcDbSymbolTableRecord
100
AcDbRegAppTableRecord
  2
ACAD
 70
     0
  0
ENDTAB
  0
TABLE
  2
DIMSTYLE
  5
A
330
0
100
AcDbSymbolTable
 70
     1
100
AcDbDimStyleTable
  0
DIMSTYLE
105
27
330
A
100
AcDbSymbolTableRecord
100
AcDbDimStyleTableRecord
  2
ISO-25
 70
     0
 41
2.5
 42
0.625
 43
3.75
 44
1.25
 73
     0
 74
     0
 77
     1
 78
     8
140
2.5
141
2.5
143
0.0393700787
147
0.625
171
     3
172
     1
178
     0
271
     2
272
     2
274
     3
278
    44
283
     0
284
     8
340
11
  0
ENDTAB
  0
TABLE
  2
BLOCK_RECORD
  5
1
330
0
100
AcDbSymbolTable
 70
     1
  0
BLOCK_RECORD
  5
1F
330
1
100
AcDbSymbolTableRecord
100
AcDbBlockTableRecord
  2
*Model_Space
340
22
  0
BLOCK_RECORD
  5
1B
330
1
100
AcDbSymbolTableRecord
100
AcDbBlockTableRecord
  2
*Paper_Space
340
1E
  0
BLOCK_RECORD
  5
23
330
1
100
AcDbSymbolTableRecord
100
AcDbBlockTableRecord
  2
*Paper_Space0
340
26
  0
ENDTAB
  0
ENDSEC
  0
SECTION
  2
BLOCKS
  0
BLOCK
  5
20
330
1F
100
AcDbEntity
  8
0
100
AcDbBlockBegin
  2
*Model_Space
 70
     0
 10
0.0
 20
0.0
 30
0.0
  3
*Model_Space
  1

  0
ENDBLK
  5
21
330
1F
100
AcDbEntity
  8
0
100
AcDbBlockEnd
  0
BLOCK
  5
1C
330
1B
100
AcDbEntity
 67
     1
  8
0
100
AcDbBlockBegin
  2
*Paper_Space
 70
     0
 10
0.0
 20
0.0
 30
0.0
  3
*Paper_Space
  1

  0
ENDBLK
  5
1D
330
1B
100
AcDbEntity
 67
     1
  8
0
100
AcDbBlockEnd
  0
BLOCK
  5
24
330
23
100
AcDbEntity
  8
0
100
AcDbBlockBegin
  2
*Paper_Space0
 70
     0
 10
0.0
 20
0.0
 30
0.0
  3
*Paper_Space0
  1

  0
ENDBLK
  5
25
330
23
100
AcDbEntity
  8
0
100
AcDbBlockEnd
  0
ENDSEC
  0
SECTION
  2
ENTITIES
  0
LINE
  5
73
330
1F
100
AcDbEntity
  8
0
  6
Continuous
 62
     7
370
    25
100
AcDbLine
 10
92.1053167835
 20
144.3258348164
 30
0.0
 11
90.7053154364
 21
144.3258348164
 31
0.0
  0
LINE
  5
74
330
1F
100
AcDbEntity
  8
0
  6
Continuous
 62
     7
370
    25
100
AcDbLine
 10
197.7053162113
 20
144.3258348164
 30
0.0
 11
196.3053148642
 21
144.3258348164
 31
0.0
  0
LINE
  5
75
330
1F
100
AcDbEntity
  8
0
  6
Continuous
 62
     7
370
    25
100
AcDbLine
 10
195.7053158835
 20
94.4658354866
 30
0.0
 11
195.7053158835
 21
108.9658356515
 31
0.0
  0
LINE
  5
76
330
1F
100
AcDbEntity
  8
0
  6
Continuous
 62
     7
370
    25
100
AcDbLine
 10
195.7053158835
 20
108.9658356515
 30
0.0
 11
197.7053162113
 21
108.9658356515
 31
0.0
  0
LINE
  5
77
330
1F
100
AcDbEntity
  8
0
  6
Continuous
 62
     7
370
    25
100
AcDbLine
 10
197.7053162113
 20
108.9658356515
 30
0.0
 11
197.7053162113
 21
94.4658354866
 31
0.0
  0
LINE
  5
78
330
1F
100
AcDbEntity
  8
0
  6
Continuous
 62
     7
370
    25
100
AcDbLine
 10
92.7053157643
 20
110.965835048
 30
0.0
 11
195.7053158835
 21
110.965835048
 31
0.0
  0
LINE
  5
79
330
1F
100
AcDbEntity
  8
0
  6
Continuous
 62
     7
370
    25
100
AcDbLine
 10
195.7053158835
 20
110.965835048
 30
0.0
 11
195.7053158835
 21
108.9658356515
 31
0.0
  0
LINE
  5
7A
330
1F
100
AcDbEntity
  8
0
  6
Continuous
 62
     7
370
    25
100
AcDbLine
 10
195.7053158835
 20
108.9658356515
 30
0.0
 11
92.7053157643
 21
108.9658356515
 31
0.0
  0
LINE
  5
7B
330
1F
100
AcDbEntity
  8
0
  6
Continuous
 62
     7
370
    25
100
AcDbLine
 10
92.7053157643
 20
110.965835048
 30
0.0
 11
92.7053157643
 21
108.9658356515
 31
0.0
  0
ARC
  5
7C
330
1F
100
AcDbEntity
  8
0
  6
Continuous
 62
     7
370
    25
100
AcDbCircle
 10
195.7053165011
 20
108.965835495
 30
0.0
 40
2.0
100
AcDbArc
 50
0.0
 51
90.0
  0
LINE
  5
7D
330
1F
100
AcDbEntity
  8
0
  6
Continuous
 62
     7
370
    25
100
AcDbLine
 10
90.7053154364
 20
108.9658356515
 30
0.0
 11
92.7053157643
 21
108.9658356515
 31
0.0
  0
ARC
  5
7E
330
1F
100
AcDbEntity
  8
0
  6
Continuous
 62
     7
370
    25
100
AcDbCircle
 10
92.7053165011
 20
108.965835495
 30
0.0
 40
2.0
100
AcDbArc
 50
90.0
 51
180.0
  0
LINE
  5
7F
330
1F
100
AcDbEntity
  8
0
  6
Continuous
 62
     7
370
    25
100
AcDbLine
 10
92.7053157643
 20
108.9658356515
 30
0.0
 11
92.7053157643
 21
94.4658354866
 31
0.0
  0
LINE
  5
80
330
1F
100
AcDbEntity
  8
0
  6
Continuous
 62
     7
370
    25
100
AcDbLine
 10
90.7053154364
 20
94.4658354866
 30
0.0
 11
90.7053154364
 21
108.9658356515
 31
0.0
  0
LINE
  5
81
330
1F
100
AcDbEntity
  8
0
  6
Continuous
 62
     7
370
    25
100
AcDbLine
 10
190.1303146437
 20
94.4658354866
 30
0.0
 11
190.1303146437
 21
106.0658359212
 31
0.0
  0
LINE
  5
82
330
1F
100
AcDbEntity
  8
0
  6
Continuous
 62
     7
370
    25
100
AcDbLine
 10
190.1303146437
 20
106.0658359212
 30
0.0
 11
98.280317004
 21
106.0658359212
 31
0.0
  0
LINE
  5
83
330
1F
100
AcDbEntity
  8
0
  6
Continuous
 62
     7
370
    25
100
AcDbLine
 10
195.7053158835
 20
94.4658354866
 30
0.0
 11
190.1303146437
 21
94.4658354866
 31
0.0
  0
LINE
  5
84
330
1F
100
AcDbEntity
  8
0
  6
Continuous
 62
     7
370
    25
100
AcDbLine
 10
98.280317004
 20
106.0658359212
 30
0.0
 11
98.280317004
 21
94.4658354866
 31
0.0
  0
LINE
  5
85
330
1F
100
AcDbEntity
  8
0
  6
Continuous
 62
     7
370
    25
100
AcDbLine
 10
98.280317004
 20
94.4658354866
 30
0.0
 11
92.7053157643
 21
94.4658354866
 31
0.0
  0
LINE
  5
86
330
1F
100
AcDbEntity
  8
0
  6
Continuous
 62
     7
370
    25
100
AcDbLine
 10
90.7053154364
 20
112.9658363071
 30
0.0
 11
92.7053157643
 21
112.9658363071
 31
0.0
  0
LINE
  5
87
330
1F
100
AcDbEntity
  8
0
  6
Continuous
 62
     7
370
    25
100
AcDbLine
 10
92.7053157643
 20
112.9658363071
 30
0.0
 11
92.7053157643
 21
110.965835048
 31
0.0
  0
LINE
  5
88
330
1F
100
AcDbEntity
  8
0
  6
Continuous
 62
     7
370
    25
100
AcDbLine
 10
90.7053154364
 20
112.9658363071
 30
0.0
 11
90.7053154364
 21
108.9658356515
 31
0.0
  0
LINE
  5
89
330
1F
100
AcDbEntity
  8
0
  6
Continuous
 62
     7
370
    25
100
AcDbLine
 10
195.7053158835
 20
112.9658363071
 30
0.0
 11
195.7053158835
 21
110.965835048
 31
0.0
  0
LINE
  5
8A
330
1F
100
AcDbEntity
  8
0
  6
Continuous
 62
     7
370
    25
100
AcDbLine
 10
195.7053158835
 20
112.9658363071
 30
0.0
 11
197.7053162113
 21
112.9658363071
 31
0.0
  0
LINE
  5
8B
330
1F
100
AcDbEntity
  8
0
  6
Continuous
 62
     7
370
    25
100
AcDbLine
 10
197.7053162113
 20
108.9658356515
 30
0.0
 11
197.7053162113
 21
112.9658363071
 31
0.0
  0
LINE
  5
8C
330
1F
100
AcDbEntity
  8
0
  6
Continuous
 62
     7
370
    25
100
AcDbLine
 10
92.7053157643
 20
112.9658363071
 30
0.0
 11
195.7053158835
 21
112.9658363071
 31
0.0
  0
LINE
  5
8D
330
1F
100
AcDbEntity
  8
0
  6
Continuous
 62
     7
370
    25
100
AcDbLine
 10
122.105316113
 20
127.865837073
 30
0.0
 11
118.0553164736
 21
127.865837073
 31
0.0
  0
LINE
  5
8E
330
1F
100
AcDbEntity
  8
0
  6
Continuous
 62
     7
370
    25
100
AcDbLine
 10
124.3553169474
 20
127.865837073
 30
0.0
 11
124.3553169474
 21
115.4658357856
 31
0.0
  0
LINE
  5
8F
330
1F
100
AcDbEntity
  8
0
  6
Continuous
 62
     7
370
    25
100
AcDbLine
 10
128.4053165868
 20
127.865837073
 30
0.0
 11
124.3553169474
 21
127.865837073
 31
0.0
  0
LINE
  5
90
330
1F
100
AcDbEntity
  8
0
  6
Continuous
 62
     7
370
    25
100
AcDbLine
 10
128.4053165868
 20
115.4658357856
 30
0.0
 11
128.4053165868
 21
127.865837073
 31
0.0
  0
ARC
  5
91
330
1F
100
AcDbEntity
  8
0
  6
Continuous
 62
     7
370
    25
100
AcDbCircle
 10
129.5303165011
 20
115.465835495
 30
0.0
 40
1.125000000000028
100
AcDbArc
 50
180.0
 51
0.0
  0
LINE
  5
92
330
1F
100
AcDbEntity
  8
0
  6
Continuous
 62
     7
370
    25
100
AcDbLine
 10
130.6553174213
 20
127.865837073
 30
0.0
 11
130.6553174213
 21
115.4658357856
 31
0.0
  0
LINE
  5
93
330
1F
100
AcDbEntity
  8
0
  6
Continuous
 62
     7
370
    25
100
AcDbLine
 10
134.7053170607
 20
127.865837073
 30
0.0
 11
130.6553174213
 21
127.865837073
 31
0.0
  0
LINE
  5
94
330
1F
100
AcDbEntity
  8
0
  6
Continuous
 62
     7
370
    25
100
AcDbLine
 10
134.7053170607
 20
115.4658357856
 30
0.0
 11
134.7053170607
 21
127.865837073
 31
0.0
  0
LINE
  5
95
330
1F
100
AcDbEntity
  8
0
  6
Continuous
 62
     7
370
    25
100
AcDbLine
 10
136.9553169638
 20
127.865837073
 30
0.0
 11
136.9553169638
 21
115.4658357856
 31
0.0
  0
LINE
  5
96
330
1F
100
AcDbEntity
  8
0
  6
Continuous
 62
     7
370
    25
100
AcDbLine
 10
141.0053166032
 20
127.865837073
 30
0.0
 11
136.9553169638
 21
127.865837073
 31
0.0
  0
LINE
  5
97
330
1F
100
AcDbEntity
  8
0
  6
Continuous
 62
     7
370
    25
100
AcDbLine
 10
141.0053166032
 20
115.4658357856
 30
0.0
 11
141.0053166032
 21
127.865837073
 31
0.0
  0
LINE
  5
98
330
1F
100
AcDbEntity
  8
0
  6
Continuous
 62
     7
370
    25
100
AcDbLine
 10
143.2553165063
 20
127.865837073
 30
0.0
 11
143.2553165063
 21
115.4658357856
 31
0.0
  0
LINE
  5
99
330
1F
100
AcDbEntity
  8
0
  6
Continuous
 62
     7
370
    25
100
AcDbLine
 10
147.3053166114
 20
127.865837073
 30
0.0
 11
143.2553165063
 21
127.865837073
 31
0.0
  0
LINE
  5
9A
330
1F
100
AcDbEntity
  8
0
  6
Continuous
 62
     7
370
    25
100
AcDbLine
 10
147.3053166114
 20
115.4658357856
 30
0.0
 11
147.3053166114
 21
127.865837073
 31
0.0
  0
ARC
  5
9B
330
1F
100
AcDbEntity
  8
0
  6
Continuous
 62
     7
370
    25
100
AcDbCircle
 10
148.4303165011
 20
115.465835495
 30
0.0
 40
1.125000000000028
100
AcDbArc
 50
180.0
 51
0.0
  0
LINE
  5
9C
330
1F
100
AcDbEntity
  8
0
  6
Continuous
 62
     7
370
    25
100
AcDbLine
 10
153.6053163868
 20
127.865837073
 30
0.0
 11
149.5553165145
 21
127.865837073
 31
0.0
  0
LINE
  5
9D
330
1F
100
AcDbEntity
  8
0
  6
Continuous
 62
     7
370
    25
100
AcDbLine
 10
159.9053161621
 20
127.865837073
 30
0.0
 11
155.8553165227
 21
127.865837073
 31
0.0
  0
LINE
  5
9E
330
1F
100
AcDbEntity
  8
0
  6
Continuous
 62
     7
370
    25
100
AcDbLine
 10
159.9053161621
 20
115.4658357856
 30
0.0
 11
159.9053161621
 21
127.865837073
 31
0.0
  0
LINE
  5
9F
330
1F
100
AcDbEntity
  8
0
  6
Continuous
 62
     7
370
    25
100
AcDbLine
 10
162.1553160653
 20
127.865837073
 30
0.0
 11
162.1553160653
 21
115.4658357856
 31
0.0
  0
LINE
  5
A0
330
1F
100
AcDbEntity
  8
0
  6
Continuous
 62
     7
370
    25
100
AcDbLine
 10
166.205316636
 20
127.865837073
 30
0.0
 11
162.1553160653
 21
127.865837073
 31
0.0
  0
LINE
  5
A1
330
1F
100
AcDbEntity
  8
0
  6
Continuous
 62
     7
370
    25
100
AcDbLine
 10
166.205316636
 20
115.4658357856
 30
0.0
 11
166.205316636
 21
127.865837073
 31
0.0
  0
ARC
  5
A2
330
1F
100
AcDbEntity
  8
0
  6
Continuous
 62
     7
370
    25
100
AcDbCircle
 10
167.3303165011
 20
115.465835495
 30
0.0
 40
1.125
100
AcDbArc
 50
180.0
 51
0.0
  0
LINE
  5
A3
330
1F
100
AcDbEntity
  8
0
  6
Continuous
 62
     7
370
    25
100
AcDbLine
 10
168.4553165391
 20
127.865837073
 30
0.0
 11
168.4553165391
 21
115.4658357856
 31
0.0
  0
LINE
  5
A4
330
1F
100
AcDbEntity
  8
0
  6
Continuous
 62
     7
370
    25
100
AcDbLine
 10
172.5053161785
 20
127.865837073
 30
0.0
 11
168.4553165391
 21
127.865837073
 31
0.0
  0
LINE
  5
A5
330
1F
100
AcDbEntity
  8
0
  6
Continuous
 62
     7
370
    25
100
AcDbLine
 10
178.8053166524
 20
127.865837073
 30
0.0
 11
174.755317013
 21
127.865837073
 31
0.0
  0
LINE
  5
A6
330
1F
100
AcDbEntity
  8
0
  6
Continuous
 62
     7
370
    25
100
AcDbLine
 10
178.8053166524
 20
115.4658357856
 30
0.0
 11
178.8053166524
 21
127.865837073
 31
0.0
  0
ARC
  5
A7
330
1F
100
AcDbEntity
  8
0
  6
Continuous
 62
     7
370
    25
100
AcDbCircle
 10
179.9303165011
 20
115.465835495
 30
0.0
 40
1.125000000000028
100
AcDbArc
 50
180.0
 51
0.0
  0
LINE
  5
A8
330
1F
100
AcDbEntity
  8
0
  6
Continuous
 62
     7
370
    25
100
AcDbLine
 10
181.0553156242
 20
127.865837073
 30
0.0
 11
181.0553156242
 21
115.4658357856
 31
0.0
  0
LINE
  5
A9
330
1F
100
AcDbEntity
  8
0
  6
Continuous
 62
     7
370
    25
100
AcDbLine
 10
185.1053152636
 20
127.865837073
 30
0.0
 11
181.0553156242
 21
127.865837073
 31
0.0
  0
LINE
  5
AA
330
1F
100
AcDbEntity
  8
0
  6
Continuous
 62
     7
370
    25
100
AcDbLine
 10
185.1053152636
 20
115.4658357856
 30
0.0
 11
185.1053152636
 21
127.865837073
 31
0.0
  0
ARC
  5
AB
330
1F
100
AcDbEntity
  8
0
  6
Continuous
 62
     7
370
    25
100
AcDbCircle
 10
186.2303165011
 20
115.465835495
 30
0.0
 40
1.125000000000028
100
AcDbArc
 50
180.0
 51
0.0
  0
LINE
  5
AC
330
1F
100
AcDbEntity
  8
0
  6
Continuous
 62
     7
370
    25
100
AcDbLine
 10
187.3553160981
 20
127.865837073
 30
0.0
 11
187.3553160981
 21
115.4658357856
 31
0.0
  0
LINE
  5
AD
330
1F
100
AcDbEntity
  8
0
  6
Continuous
 62
     7
370
    25
100
AcDbLine
 10
195.7053158835
 20
127.865837073
 30
0.0
 11
187.3553160981
 21
127.865837073
 31
0.0
  0
LINE
  5
AE
330
1F
100
AcDbEntity
  8
0
  6
Continuous
 62
     7
370
    25
100
AcDbLine
 10
195.7053158835
 20
112.9658363071
 30
0.0
 11
195.7053158835
 21
127.865837073
 31
0.0
  0
LINE
  5
AF
330
1F
100
AcDbEntity
  8
0
  6
Continuous
 62
     7
370
    25
100
AcDbLine
 10
92.7053157643
 20
127.865837073
 30
0.0
 11
92.7053157643
 21
112.9658363071
 31
0.0
  0
LINE
  5
B0
330
1F
100
AcDbEntity
  8
0
  6
Continuous
 62
     7
370
    25
100
AcDbLine
 10
103.2053146914
 20
127.865837073
 30
0.0
 11
92.7053157643
 21
127.865837073
 31
0.0
  0
LINE
  5
B1
330
1F
100
AcDbEntity
  8
0
  6
Continuous
 62
     7
370
    25
100
AcDbLine
 10
103.2053146914
 20
115.4658357856
 30
0.0
 11
103.2053146914
 21
127.865837073
 31
0.0
  0
ARC
  5
B2
330
1F
100
AcDbEntity
  8
0
  6
Continuous
 62
     7
370
    25
100
AcDbCircle
 10
104.3303165011
 20
115.465835495
 30
0.0
 40
1.125000000000014
100
AcDbArc
 50
180.0
 51
0.0
  0
LINE
  5
B3
330
1F
100
AcDbEntity
  8
0
  6
Continuous
 62
     7
370
    25
100
AcDbLine
 10
105.4553155259
 20
127.865837073
 30
0.0
 11
105.4553155259
 21
115.4658357856
 31
0.0
  0
LINE
  5
B4
330
1F
100
AcDbEntity
  8
0
  6
Continuous
 62
     7
370
    25
100
AcDbLine
 10
109.5053170279
 20
127.865837073
 30
0.0
 11
105.4553155259
 21
127.865837073
 31
0.0
  0
LINE
  5
B5
330
1F
100
AcDbEntity
  8
0
  6
Continuous
 62
     7
370
    25
100
AcDbLine
 10
109.5053170279
 20
115.4658357856
 30
0.0
 11
109.5053170279
 21
127.865837073
 31
0.0
  0
ARC
  5
B6
330
1F
100
AcDbEntity
  8
0
  6
Continuous
 62
     7
370
    25
100
AcDbCircle
 10
110.6303165011
 20
115.465835495
 30
0.0
 40
1.125000000000014
100
AcDbArc
 50
180.0
 51
0.0
  0
LINE
  5
B7
330
1F
100
AcDbEntity
  8
0
  6
Continuous
 62
     7
370
    25
100
AcDbLine
 10
111.7553178624
 20
127.865837073
 30
0.0
 11
111.7553178624
 21
115.4658357856
 31
0.0
  0
LINE
  5
B8
330
1F
100
AcDbEntity
  8
0
  6
Continuous
 62
     7
370
    25
100
AcDbLine
 10
115.8053156391
 20
127.865837073
 30
0.0
 11
111.7553178624
 21
127.865837073
 31
0.0
  0
LINE
  5
B9
330
1F
100
AcDbEntity
  8
0
  6
Continuous
 62
     7
370
    25
100
AcDbLine
 10
115.8053156391
 20
115.4658357856
 30
0.0
 11
115.8053156391
 21
127.865837073
 31
0.0
  0
LINE
  5
BA
330
1F
100
AcDbEntity
  8
0
  6
Continuous
 62
     7
370
    25
100
AcDbLine
 10
153.6053163868
 20
115.4658357856
 30
0.0
 11
153.6053163868
 21
127.865837073
 31
0.0
  0
LINE
  5
BB
330
1F
100
AcDbEntity
  8
0
  6
Continuous
 62
     7
370
    25
100
AcDbLine
 10
155.8553165227
 20
127.865837073
 30
0.0
 11
155.8553165227
 21
115.4658357856
 31
0.0
  0
ARC
  5
BC
330
1F
100
AcDbEntity
  8
0
  6
Continuous
 62
     7
370
    25
100
AcDbCircle
 10
123.2303165011
 20
115.465835495
 30
0.0
 40
1.125000000000014
100
AcDbArc
 50
180.0
 51
0.0
  0
ARC
  5
BD
330
1F
100
AcDbEntity
  8
0
  6
Continuous
 62
     7
370
    25
100
AcDbCircle
 10
161.0303165011
 20
115.465835495
 30
0.0
 40
1.125000000000028
100
AcDbArc
 50
180.0
 51
0.0
  0
ARC
  5
BE
330
1F
100
AcDbEntity
  8
0
  6
Continuous
 62
     7
370
    25
100
AcDbCircle
 10
173.6303165011
 20
115.465835495
 30
0.0
 40
1.125000000000028
100
AcDbArc
 50
180.0
 51
0.0
  0
LINE
  5
BF
330
1F
100
AcDbEntity
  8
0
  6
Continuous
 62
     7
370
    25
100
AcDbLine
 10
122.105316113
 20
115.4658357856
 30
0.0
 11
122.105316113
 21
127.865837073
 31
0.0
  0
LINE
  5
C0
330
1F
100
AcDbEntity
  8
0
  6
Continuous
 62
     7
370
    25
100
AcDbLine
 10
174.755317013
 20
127.865837073
 30
0.0
 11
174.755317013
 21
115.4658357856
 31
0.0
  0
ARC
  5
C1
330
1F
100
AcDbEntity
  8
0
  6
Continuous
 62
     7
370
    25
100
AcDbCircle
 10
142.1303165011
 20
115.465835495
 30
0.0
 40
1.125000000000028
100
AcDbArc
 50
180.0
 51
0.0
  0
LINE
  5
C2
330
1F
100
AcDbEntity
  8
0
  6
Continuous
 62
     7
370
    25
100
AcDbLine
 10
118.0553164736
 20
127.865837073
 30
0.0
 11
118.0553164736
 21
115.4658357856
 31
0.0
  0
LINE
  5
C3
330
1F
100
AcDbEntity
  8
0
  6
Continuous
 62
     7
370
    25
100
AcDbLine
 10
149.5553165145
 20
127.865837073
 30
0.0
 11
149.5553165145
 21
115.4658357856
 31
0.0
  0
LINE
  5
C4
330
1F
100
AcDbEntity
  8
0
  6
Continuous
 62
     7
370
    25
100
AcDbLine
 10
172.5053161785
 20
115.4658357856
 30
0.0
 11
172.5053161785
 21
127.865837073
 31
0.0
  0
ARC
  5
C5
330
1F
100
AcDbEntity
  8
0
  6
Continuous
 62
     7
370
    25
100
AcDbCircle
 10
116.9303165011
 20
115.465835495
 30
0.0
 40
1.125000000000014
100
AcDbArc
 50
180.0
 51
0.0
  0
ARC
  5
C6
330
1F
100
AcDbEntity
  8
0
  6
Continuous
 62
     7
370
    25
100
AcDbCircle
 10
154.7303165011
 20
115.465835495
 30
0.0
 40
1.125
100
AcDbArc
 50
180.0
 51
0.0
  0
ARC
  5
C7
330
1F
100
AcDbEntity
  8
0
  6
Continuous
 62
     7
370
    25
100
AcDbCircle
 10
135.8303165011
 20
115.465835495
 30
0.0
 40
1.125000000000028
100
AcDbArc
 50
180.0
 51
0.0
  0
ARC
  5
C8
330
1F
100
AcDbEntity
  8
0
  6
Continuous
 62
     7
370
    25
100
AcDbCircle
 10
195.7053165011
 20
127.865835495
 30
0.0
 40
2.0
100
AcDbArc
 50
0.0
 51
90.0
  0
LINE
  5
C9
330
1F
100
AcDbEntity
  8
0
  6
Continuous
 62
     7
370
    25
100
AcDbLine
 10
195.7053158835
 20
127.865837073
 30
0.0
 11
197.7053162113
 21
127.865837073
 31
0.0
  0
LINE
  5
CA
330
1F
100
AcDbEntity
  8
0
  6
Continuous
 62
     7
370
    25
100
AcDbLine
 10
195.7053158835
 20
129.8658336756
 30
0.0
 11
195.7053158835
 21
127.865837073
 31
0.0
  0
LINE
  5
CB
330
1F
100
AcDbEntity
  8
0
  6
Continuous
 62
     7
370
    25
100
AcDbLine
 10
197.7053162113
 20
127.865837073
 30
0.0
 11
197.7053162113
 21
112.9658363071
 31
0.0
  0
LINE
  5
CC
330
1F
100
AcDbEntity
  8
0
  6
Continuous
 62
     7
370
    25
100
AcDbLine
 10
92.7053157643
 20
129.8658336756
 30
0.0
 11
92.7053157643
 21
127.865837073
 31
0.0
  0
LINE
  5
CD
330
1F
100
AcDbEntity
  8
0
  6
Continuous
 62
     7
370
    25
100
AcDbLine
 10
90.7053154364
 20
127.865837073
 30
0.0
 11
92.7053157643
 21
127.865837073
 31
0.0
  0
ARC
  5
CE
330
1F
100
AcDbEntity
  8
0
  6
Continuous
 62
     7
370
    25
100
AcDbCircle
 10
92.7053165011
 20
127.865835495
 30
0.0
 40
2.0
100
AcDbArc
 50
90.0
 51
180.0
  0
LINE
  5
CF
330
1F
100
AcDbEntity
  8
0
  6
Continuous
 62
     7
370
    25
100
AcDbLine
 10
90.7053154364
 20
112.9658363071
 30
0.0
 11
90.7053154364
 21
127.865837073
 31
0.0
  0
LINE
  5
D0
330
1F
100
AcDbEntity
  8
0
  6
Continuous
 62
     7
370
    25
100
AcDbLine
 10
92.7053157643
 20
129.8658336756
 30
0.0
 11
195.7053158835
 21
129.8658336756
 31
0.0
  0
SPLINE
  5
D1
330
1F
100
AcDbEntity
  8
0
  6
Continuous
 62
     7
370
    25
100
AcDbSpline
210
0.0
220
0.0
230
1.0
 70
     8
 71
     3
 72
    20
 73
    16
 74
     0
 42
0.000000001
 43
0.00000001
 40
0.0
 40
0.0
 40
0.0
 40
0.0
 40
0.0103611591666679
 40
0.096067523130355
 40
0.1928067554857771
 40
0.3102458303139898
 40
0.4039939050073104
 40
0.462900341595951
 40
0.5123420599013979
 40
0.561743019751502
 40
0.6399684747541706
 40
0.7695519528015249
 40
0.9030081599097258
 40
0.997240808085111
 40
1.0
 40
1.0
 40
1.0
 40
1.0
 10
130.6553174212792
 20
128.465836053806
 30
0.0
 10
130.6551697459638
 20
128.478939808973
 30
0.0
 10
130.6538005167536
 20
128.600436379227
 30
0.0
 10
130.6092247854238
 20
128.8355778107449
 30
0.0
 10
130.4519117318268
 20
129.1435965470188
 30
0.0
 10
130.2118824579228
 20
129.3830680919345
 30
0.0
 10
129.9408934394181
 20
129.5254296190646
 30
0.0
 10
129.6941166005509
 20
129.5857616696742
 30
0.0
 10
129.4810272024109
 20
129.5957115454719
 30
0.0
 10
129.2498806832712
 20
129.5645423782199
 30
0.0
 10
128.9621169191916
 20
129.4585454639725
 30
0.0
 10
128.6661883901916
 20
129.228073934678
 30
0.0
 10
128.4558966168172
 20
128.8755688612688
 30
0.0
 10
128.4056977588089
 20
128.5921988373039
 30
0.0
 10
128.405327130331
 20
128.4693313476747
 30
0.0
 10
128.4053165868142
 20
128.465836053806
 30
0.0
  0
LINE
  5
D2
330
1F
100
AcDbEntity
  8
0
  6
Continuous
 62
     7
370
    25
100
AcDbLine
 10
130.6553174213
 20
127.865837073
 30
0.0
 11
130.6553174213
 21
128.4658360538
 31
0.0
  0
SPLINE
  5
D3
330
1F
100
AcDbEntity
  8
0
  6
Continuous
 62
     7
370
    25
100
AcDbSpline
210
0.0
220
0.0
230
1.0
 70
     8
 71
     3
 72
    20
 73
    16
 74
     0
 42
0.000000001
 43
0.00000001
 40
0.0
 40
0.0
 40
0.0
 40
0.0
 40
0.0103611587136894
 40
0.0960674441388102
 40
0.1928066722648993
 40
0.310246014366706
 40
0.4039940849614636
 40
0.4629000910199455
 40
0.5123422727318288
 40
0.5617427770305515
 40
0.6399684265430753
 40
0.7695518989251822
 40
0.9030081992692746
 40
0.9972408082057398
 40
1.0
 40
1.0
 40
1.0
 40
1.0
 10
168.4553165391305
 20
128.465836053806
 30
0.0
 10
168.4551688584924
 20
128.4789398082427
 30
0.0
 10
168.4537995809973
 20
128.6004362771369
 30
0.0
 10
168.4092265555306
 20
128.8355779886202
 30
0.0
 10
168.2519125982919
 20
129.1435969408368
 30
0.0
 10
168.0118815981912
 20
129.3830678160007
 30
0.0
 10
167.7408928775454
 20
129.5254292601247
 30
0.0
 10
167.4941165409824
 20
129.5857619193249
 30
0.0
 10
167.2810274502768
 20
129.5957116289975
 30
0.0
 10
167.0498810186559
 20
129.5645420471075
 30
0.0
 10
166.7621168839106
 20
129.458545781238
 30
0.0
 10
166.4661888995877
 20
129.2280736661917
 30
0.0
 10
166.2558949603934
 20
128.8755691882432
 30
0.0
 10
166.2056978149288
 20
128.59219879161
 30
0.0
 10
166.2053271797007
 20
128.4693313476414
 30
0.0
 10
166.205316635988
 20
128.465836053806
 30
0.0
  0
LINE
  5
D4
330
1F
100
AcDbEntity
  8
0
  6
Continuous
 62
     7
370
    25
100
AcDbLine
 10
178.8053166524
 20
128.4658360538
 30
0.0
 11
178.8053166524
 21
127.865837073
 31
0.0
  0
LINE
  5
D5
330
1F
100
AcDbEntity
  8
0
  6
Continuous
 62
     7
370
    25
100
AcDbLine
 10
166.205316636
 20
128.4658360538
 30
0.0
 11
166.205316636
 21
127.865837073
 31
0.0
  0
SPLINE
  5
D6
330
1F
100
AcDbEntity
  8
0
  6
Continuous
 62
     7
370
    25
100
AcDbSpline
210
0.0
220
0.0
230
1.0
 70
     8
 71
     3
 72
    20
 73
    16
 74
     0
 42
0.000000001
 43
0.00000001
 40
0.0
 40
0.0
 40
0.0
 40
0.0
 40
0.0103611602968805
 40
0.096067496213456
 40
0.1928067391213555
 40
0.3102459629638369
 40
0.4039940478833544
 40
0.4629002769200832
 40
0.5123422334027338
 40
0.5617429719456973
 40
0.6399684354813294
 40
0.7695519276638663
 40
0.9030081493296935
 40
0.9972408077841336
 40
1.0
 40
1.0
 40
1.0
 40
1.0
 10
136.9553169638136
 20
128.465836053806
 30
0.0
 10
136.9551692858369
 20
128.4789398086078
 30
0.0
 10
136.9538000324847
 20
128.600436328181
 30
0.0
 10
136.9092256540591
 20
128.835577899706
 30
0.0
 10
136.7519121487852
 20
129.1435967438275
 30
0.0
 10
136.5118820111771
 20
129.3830679543869
 30
0.0
 10
136.2408931432834
 20
129.5254294385702
 30
0.0
 10
135.9941165518783
 20
129.5857617966449
 30
0.0
 10
135.7810273177249
 20
129.5957115805542
 30
0.0
 10
135.5498809273954
 20
129.5645422613409
 30
0.0
 10
135.2621173798898
 20
129.4585454768915
 30
0.0
 10
134.9661888684929
 20
129.2280739303146
 30
0.0
 10
134.755897089792
 20
128.8755688621348
 30
0.0
 10
134.7056982326694
 20
128.5921988373003
 30
0.0
 10
134.7053276041881
 20
128.4693313476746
 30
0.0
 10
134.7053170606711
 20
128.465836053806
 30
0.0
  0
LINE
  5
D7
330
1F
100
AcDbEntity
  8
0
  6
Continuous
 62
     7
370
    25
100
AcDbLine
 10
159.9053161621
 20
128.4658360538
 30
0.0
 11
159.9053161621
 21
127.865837073
 31
0.0
  0
LINE
  5
D8
330
1F
100
AcDbEntity
  8
0
  6
Continuous
 62
     7
370
    25
100
AcDbLine
 10
162.1553160653
 20
127.865837073
 30
0.0
 11
162.1553160653
 21
128.4658360538
 31
0.0
  0
LINE
  5
D9
330
1F
100
AcDbEntity
  8
0
  6
Continuous
 62
     7
370
    25
100
AcDbLine
 10
185.1053152636
 20
128.4658360538
 30
0.0
 11
185.1053152636
 21
127.865837073
 31
0.0
  0
LINE
  5
DA
330
1F
100
AcDbEntity
  8
0
  6
Continuous
 62
     7
370
    25
100
AcDbLine
 10
187.3553160981
 20
127.865837073
 30
0.0
 11
187.3553160981
 21
128.4658360538
 31
0.0
  0
SPLINE
  5
DB
330
1F
100
AcDbEntity
  8
0
  6
Continuous
 62
     7
370
    25
100
AcDbSpline
210
0.0
220
0.0
230
1.0
 70
     8
 71
     3
 72
    20
 73
    16
 74
     0
 42
0.000000001
 43
0.00000001
 40
0.0
 40
0.0
 40
0.0
 40
0.0
 40
0.0103611564230795
 40
0.0960673481114659
 40
0.1928067346419797
 40
0.3102457783728524
 40
0.4039941852081996
 40
0.4628997502898
 40
0.5123419210711728
 40
0.5617428678401244
 40
0.6399686979887256
 40
0.7695521417229564
 40
0.9030081153527025
 40
0.9972408088157325
 40
1.0
 40
1.0
 40
1.0
 40
1.0
 10
187.3553160980561
 20
128.465836053806
 30
0.0
 10
187.3551684106758
 20
128.4789398069674
 30
0.0
 10
187.3537990717336
 20
128.6004361694506
 30
0.0
 10
187.3092294189339
 20
128.8355786521782
 30
0.0
 10
187.1519108989523
 20
129.1435959431713
 30
0.0
 10
186.911883519987
 20
129.3830688465469
 30
0.0
 10
186.6408928806001
 20
129.5254285494892
 30
0.0
 10
186.3941175231355
 20
129.5857621420787
 30
0.0
 10
186.1810282627134
 20
129.5957115173729
 30
0.0
 10
185.949880842328
 20
129.5645422540626
 30
0.0
 10
185.6621157628094
 20
129.4585459235186
 30
0.0
 10
185.3661863791013
 20
129.2280742827143
 30
0.0
 10
185.1558986586243
 20
128.8755682448154
 30
0.0
 10
185.1056964218857
 20
128.5921989285379
 30
0.0
 10
185.1053258067216
 20
128.4693313477371
 30
0.0
 10
185.1053152635911
 20
128.465836053806
 30
0.0
  0
LINE
  5
DC
330
1F
100
AcDbEntity
  8
0
  6
Continuous
 62
     7
370
    25
100
AcDbLine
 10
168.4553165391
 20
127.865837073
 30
0.0
 11
168.4553165391
 21
128.4658360538
 31
0.0
  0
LINE
  5
DD
330
1F
100
AcDbEntity
  8
0
  6
Continuous
 62
     7
370
    25
100
AcDbLine
 10
134.7053170607
 20
128.4658360538
 30
0.0
 11
134.7053170607
 21
127.865837073
 31
0.0
  0
LINE
  5
DE
330
1F
100
AcDbEntity
  8
0
  6
Continuous
 62
     7
370
    25
100
AcDbLine
 10
181.0553156242
 20
127.865837073
 30
0.0
 11
181.0553156242
 21
128.4658360538
 31
0.0
  0
LINE
  5
DF
330
1F
100
AcDbEntity
  8
0
  6
Continuous
 62
     7
370
    25
100
AcDbLine
 10
109.5053170279
 20
128.4658360538
 30
0.0
 11
109.5053170279
 21
127.865837073
 31
0.0
  0
LINE
  5
E0
330
1F
100
AcDbEntity
  8
0
  6
Continuous
 62
     7
370
    25
100
AcDbLine
 10
111.7553178624
 20
127.865837073
 30
0.0
 11
111.7553178624
 21
128.4658360538
 31
0.0
  0
SPLINE
  5
E1
330
1F
100
AcDbEntity
  8
0
  6
Continuous
 62
     7
370
    25
100
AcDbSpline
210
0.0
220
0.0
230
1.0
 70
     8
 71
     3
 72
    20
 73
    16
 74
     0
 42
0.000000001
 43
0.00000001
 40
0.0
 40
0.0
 40
0.0
 40
0.0
 40
0.0103611570356373
 40
0.0960675033716746
 40
0.1928065360409693
 40
0.3102461315318519
 40
0.4039938299783978
 40
0.4629002544514617
 40
0.5123424281558855
 40
0.5617433778454509
 40
0.6399684209001885
 40
0.769551872295471
 40
0.903008250096281
 40
0.9972408086526076
 40
1.0
 40
1.0
 40
1.0
 40
1.0
 10
111.7553178623536
 20
128.465836053806
 30
0.0
 10
111.7551701884586
 20
128.4789398095164
 30
0.0
 10
111.7538009724186
 20
128.6004363848087
 30
0.0
 10
111.7092245738507
 20
128.8355773259032
 30
0.0
 10
111.5519151816846
 20
129.1435979347679
 30
0.0
 10
111.3118805505865
 20
129.3830668011099
 30
0.0
 10
111.0408937760919
 20
129.5254299325082
 30
0.0
 10
110.7941164002482
 20
129.5857617766669
 30
0.0
 10
110.5810264218988
 20
129.5957115484639
 30
0.0
 10
110.3498796656929
 20
129.5645425857436
 30
0.0
 10
110.0621171804186
 20
129.4585449585099
 30
0.0
 10
109.7661895235245
 20
129.2280736021502
 30
0.0
 10
109.5558936919846
 20
128.875569474639
 30
0.0
 10
109.5056982135867
 20
128.5921987460858
 30
0.0
 10
109.5053275717919
 20
128.4693313476127
 30
0.0
 10
109.5053170278886
 20
128.465836053806
 30
0.0
  0
SPLINE
  5
E2
330
1F
100
AcDbEntity
  8
0
  6
Continuous
 62
     7
370
    25
100
AcDbSpline
210
0.0
220
0.0
230
1.0
 70
     8
 71
     3
 72
    20
 73
    16
 74
     0
 42
0.000000001
 43
0.00000001
 40
0.0
 40
0.0
 40
0.0
 40
0.0
 40
0.0103611547634087
 40
0.0960674769692353
 40
0.1928067044014125
 40
0.3102459094567216
 40
0.403993979379023
 40
0.4629001989923118
 40
0.512342147565556
 40
0.5617428782057069
 40
0.6399685271571168
 40
0.7695519986097195
 40
0.9030081989260782
 40
0.9972408071866113
 40
1.0
 40
1.0
 40
1.0
 40
1.0
 10
162.1553160652736
 20
128.465836053806
 30
0.0
 10
162.1551687165299
 20
128.4789398088934
 30
0.0
 10
162.1538025153326
 20
128.6004363716629
 30
0.0
 10
162.1092245067184
 20
128.8355778810013
 30
0.0
 10
161.951912596166
 20
129.1435967505816
 30
0.0
 10
161.7118819500234
 20
129.3830679520692
 30
0.0
 10
161.4408931863872
 20
129.5254294407673
 30
0.0
 10
161.1941165895516
 20
129.5857617924632
 30
0.0
 10
160.9810273283221
 20
129.5957115934627
 30
0.0
 10
160.7498808081122
 20
129.5645421661382
 30
0.0
 10
160.4621161515945
 20
129.4585457510113
 30
0.0
 10
160.1661902722608
 20
129.2280738498873
 30
0.0
 10
159.955888742491
 20
128.8755690212101
 30
0.0
 10
159.9057087423174
 20
128.5921987462384
 30
0.0
 10
159.9053270212152
 20
128.4693313476296
 30
0.0
 10
159.9053161621311
 20
128.465836053806
 30
0.0
  0
LINE
  5
E3
330
1F
100
AcDbEntity
  8
0
  6
Continuous
 62
     7
370
    25
100
AcDbLine
 10
124.3553169474
 20
127.865837073
 30
0.0
 11
124.3553169474
 21
128.4658360538
 31
0.0
  0
LINE
  5
E4
330
1F
100
AcDbEntity
  8
0
  6
Continuous
 62
     7
370
    25
100
AcDbLine
 10
128.4053165868
 20
128.4658360538
 30
0.0
 11
128.4053165868
 21
127.865837073
 31
0.0
  0
LINE
  5
E5
330
1F
100
AcDbEntity
  8
0
  6
Continuous
 62
     7
370
    25
100
AcDbLine
 10
103.2053146914
 20
128.4658360538
 30
0.0
 11
103.2053146914
 21
127.865837073
 31
0.0
  0
LINE
  5
E6
330
1F
100
AcDbEntity
  8
0
  6
Continuous
 62
     7
370
    25
100
AcDbLine
 10
105.4553155259
 20
127.865837073
 30
0.0
 11
105.4553155259
 21
128.4658360538
 31
0.0
  0
SPLINE
  5
E7
330
1F
100
AcDbEntity
  8
0
  6
Continuous
 62
     7
370
    25
100
AcDbSpline
210
0.0
220
0.0
230
1.0
 70
     8
 71
     3
 72
    20
 73
    16
 74
     0
 42
0.000000001
 43
0.00000001
 40
0.0
 40
0.0
 40
0.0
 40
0.0
 40
0.0103611576890341
 40
0.0960674346383264
 40
0.1928068329887246
 40
0.3102458910686227
 40
0.4039939523922684
 40
0.4628999526253059
 40
0.5123421294476591
 40
0.5617430822525542
 40
0.6399685260992721
 40
0.7695519856663647
 40
0.9030081737420032
 40
0.9972408084786071
 40
1.0
 40
1.0
 40
1.0
 40
1.0
 10
174.7553170129874
 20
128.465836053806
 30
0.0
 10
174.755169331137
 20
128.4789398078078
 30
0.0
 10
174.7538000424013
 20
128.6004362726689
 30
0.0
 10
174.7092275803249
 20
128.8355784204736
 30
0.0
 10
174.5519103705504
 20
129.1435960673815
 30
0.0
 10
174.3118823569099
 20
129.383068240158
 30
0.0
 10
174.0408932796927
 20
129.5254292014881
 30
0.0
 10
173.7941170087712
 20
129.5857619663093
 30
0.0
 10
173.5810273716041
 20
129.5957115312281
 30
0.0
 10
173.3498802883311
 20
129.5645424206483
 30
0.0
 10
173.0621165035463
 20
129.4585454406049
 30
0.0
 10
172.7661879843835
 20
129.2280739425705
 30
0.0
 10
172.5558962080324
 20
128.8755688597022
 30
0.0
 10
172.5056973505191
 20
128.5921988373105
 30
0.0
 10
172.5053267220393
 20
128.4693313476749
 30
0.0
 10
172.5053161785224
 20
128.465836053806
 30
0.0
  0
LINE
  5
E8
330
1F
100
AcDbEntity
  8
0
  6
Continuous
 62
     7
370
    25
100
AcDbLine
 10
136.9553169638
 20
127.865837073
 30
0.0
 11
136.9553169638
 21
128.4658360538
 31
0.0
  0
LINE
  5
E9
330
1F
100
AcDbEntity
  8
0
  6
Continuous
 62
     7
370
    25
100
AcDbLine
 10
115.8053156391
 20
128.4658360538
 30
0.0
 11
115.8053156391
 21
127.865837073
 31
0.0
  0
SPLINE
  5
EA
330
1F
100
AcDbEntity
  8
0
  6
Continuous
 62
     7
370
    25
100
AcDbSpline
210
0.0
220
0.0
230
1.0
 70
     8
 71
     3
 72
    20
 73
    16
 74
     0
 42
0.000000001
 43
0.00000001
 40
0.0
 40
0.0
 40
0.0
 40
0.0
 40
0.0103611515002801
 40
0.0960675161279045
 40
0.1928067492327319
 40
0.3102458249707042
 40
0.4039939003902585
 40
0.4629003374352268
 40
0.5123420561236816
 40
0.5617430163564776
 40
0.6399684719651316
 40
0.769551951016324
 40
0.9030081591583637
 40
0.9972408080637365
 40
1.0
 40
1.0
 40
1.0
 40
1.0
 10
181.0553156241992
 20
128.465836053806
 30
0.0
 10
181.0551686073501
 20
128.4789398095437
 30
0.0
 10
181.0538054824581
 20
128.6004364661299
 30
0.0
 10
181.009222490587
 20
128.8355777734482
 30
0.0
 10
180.8519126272698
 20
129.1435965601317
 30
0.0
 10
180.6118823327558
 20
129.3830680889207
 30
0.0
 10
180.3408935326136
 20
129.5254296195012
 30
0.0
 10
180.0941166612651
 20
129.5857616695976
 30
0.0
 10
179.8810272691582
 20
129.5957115454905
 30
0.0
 10
179.6498807483149
 20
129.5645423782117
 30
0.0
 10
179.3621169850439
 20
129.458545463977
 30
0.0
 10
179.0661884556598
 20
129.2280739346765
 30
0.0
 10
178.8558966824016
 20
128.8755688612691
 30
0.0
 10
178.8056978243738
 20
128.5921988373039
 30
0.0
 10
178.8053271958962
 20
128.4693313476747
 30
0.0
 10
178.8053166523793
 20
128.465836053806
 30
0.0
  0
LINE
  5
EB
330
1F
100
AcDbEntity
  8
0
  6
Continuous
 62
     7
370
    25
100
AcDbLine
 10
141.0053166032
 20
128.4658360538
 30
0.0
 11
141.0053166032
 21
127.865837073
 31
0.0
  0
LINE
  5
EC
330
1F
100
AcDbEntity
  8
0
  6
Continuous
 62
     7
370
    25
100
AcDbLine
 10
143.2553165063
 20
127.865837073
 30
0.0
 11
143.2553165063
 21
128.4658360538
 31
0.0
  0
SPLINE
  5
ED
330
1F
100
AcDbEntity
  8
0
  6
Continuous
 62
     7
370
    25
100
AcDbSpline
210
0.0
220
0.0
230
1.0
 70
     8
 71
     3
 72
    20
 73
    16
 74
     0
 42
0.000000001
 43
0.00000001
 40
0.0
 40
0.0
 40
0.0
 40
0.0
 40
0.010361158703272
 40
0.0960674440422209
 40
0.1928066720710454
 40
0.3102458778506707
 40
0.403994126834137
 40
0.462900132833393
 40
0.5123420817115745
 40
0.5617430393522536
 40
0.6399684908563408
 40
0.7695519631081603
 40
0.9030081642476212
 40
0.9972408082085139
 40
1.0
 40
1.0
 40
1.0
 40
1.0
 10
143.2553165063479
 20
128.465836053806
 30
0.0
 10
143.2551688256065
 20
128.4789398081871
 30
0.0
 10
143.2537995471534
 20
128.6004362765658
 30
0.0
 10
143.2092265732415
 20
128.8355780157903
 30
0.0
 10
143.0519124135182
 20
129.1435966807064
 30
0.0
 10
142.811882590486
 20
129.3830682618378
 30
0.0
 10
142.5408929491834
 20
129.5254291021692
 30
0.0
 10
142.2941167976563
 20
129.5857619063107
 30
0.0
 10
142.0810274925559
 20
129.5957115201146
 30
0.0
 10
141.8498807129492
 20
129.564542407477
 30
0.0
 10
141.5621169282651
 20
129.458545447859
 30
0.0
 10
141.2661884090545
 20
129.2280739401204
 30
0.0
 10
141.055896632718
 20
128.8755688601885
 30
0.0
 10
141.0056977752021
 20
128.5921988373085
 30
0.0
 10
141.0053271467224
 20
128.4693313476749
 30
0.0
 10
141.0053166032055
 20
128.465836053806
 30
0.0
  0
SPLINE
  5
EE
330
1F
100
AcDbEntity
  8
0
  6
Continuous
 62
     7
370
    25
100
AcDbSpline
210
0.0
220
0.0
230
1.0
 70
     8
 71
     3
 72
    20
 73
    16
 74
     0
 42
0.000000001
 43
0.00000001
 40
0.0
 40
0.0
 40
0.0
 40
0.0
 40
0.0103611567294185
 40
0.0960674257408836
 40
0.1928066353403924
 40
0.3102459549513291
 40
0.4039940075923446
 40
0.4629000023697064
 40
0.5123421746128914
 40
0.5617431228424364
 40
0.6399685594441769
 40
0.7695520070096848
 40
0.9030081827250599
 40
0.997240808734154
 40
1.0
 40
1.0
 40
1.0
 40
1.0
 10
124.3553169474223
 20
128.465836053806
 30
0.0
 10
124.3551692667847
 20
128.4789398082419
 30
0.0
 10
124.3537999892936
 20
128.600436277128
 30
0.0
 10
124.3092269636079
 20
128.8355779890421
 30
0.0
 10
124.1519130075332
 20
129.1435969389696
 30
0.0
 10
123.9118820025027
 20
129.3830678238277
 30
0.0
 10
123.6408932955631
 20
129.5254292409995
 30
0.0
 10
123.3941169289085
 20
129.5857619593723
 30
0.0
 10
123.1810273095235
 20
129.5957115329188
 30
0.0
 10
122.9498802212291
 20
129.5645424199026
 30
0.0
 10
122.6621164388276
 20
129.4585454410156
 30
0.0
 10
122.3661879185324
 20
129.2280739424317
 30
0.0
 10
122.1558961425242
 20
128.8755688597299
 30
0.0
 10
122.1056972849536
 20
128.5921988373102
 30
0.0
 10
122.1053266564742
 20
128.4693313476749
 30
0.0
 10
122.1053161129573
 20
128.465836053806
 30
0.0
  0
LINE
  5
EF
330
1F
100
AcDbEntity
  8
0
  6
Continuous
 62
     7
370
    25
100
AcDbLine
 10
147.3053166114
 20
128.4658360538
 30
0.0
 11
147.3053166114
 21
127.865837073
 31
0.0
  0
LINE
  5
F0
330
1F
100
AcDbEntity
  8
0
  6
Continuous
 62
     7
370
    25
100
AcDbLine
 10
153.6053163868
 20
128.4658360538
 30
0.0
 11
153.6053163868
 21
127.865837073
 31
0.0
  0
SPLINE
  5
F1
330
1F
100
AcDbEntity
  8
0
  6
Continuous
 62
     7
370
    25
100
AcDbSpline
210
0.0
220
0.0
230
1.0
 70
     8
 71
     3
 72
    18
 73
    14
 74
     0
 42
0.000000001
 43
0.00000001
 40
0.0
 40
0.0
 40
0.0
 40
0.0
 40
0.1012785971185969
 40
0.2019587368076517
 40
0.3212033851206486
 40
0.4082056428915415
 40
0.4667029504864592
 40
0.5159721183188544
 40
0.5651625614717859
 40
0.6458471677051776
 40
0.7777160823887376
 40
0.9125536984510588
 40
1.0
 40
1.0
 40
1.0
 40
1.0
 10
105.4553155258515
 20
128.465836053806
 30
0.0
 10
105.4423401494363
 20
128.5921661733148
 30
0.0
 10
105.4164660683869
 20
128.8440799249132
 30
0.0
 10
105.2329950715358
 20
129.1668352329727
 30
0.0
 10
104.9897856209295
 20
129.3987742161733
 30
0.0
 10
104.7186890368732
 20
129.5327159825721
 30
0.0
 10
104.4784102847637
 20
129.5879408897615
 30
0.0
 10
104.2659036442608
 20
129.5948778290819
 30
0.0
 10
104.0338852157984
 20
129.5605468339647
 30
0.0
 10
103.7442883892391
 20
129.4490836525731
 30
0.0
 10
103.4506743211551
 20
129.2085470485455
 30
0.0
 10
103.240423759594
 20
128.8527300857482
 30
0.0
 10
103.2152270537446
 20
128.5750680566646
 30
0.0
 10
103.2053146913865
 20
128.465836053806
 30
0.0
  0
LINE
  5
F2
330
1F
100
AcDbEntity
  8
0
  6
Continuous
 62
     7
370
    25
100
AcDbLine
 10
155.8553165227
 20
127.865837073
 30
0.0
 11
155.8553165227
 21
128.4658360538
 31
0.0
  0
SPLINE
  5
F3
330
1F
100
AcDbEntity
  8
0
  6
Continuous
 62
     7
370
    25
100
AcDbSpline
210
0.0
220
0.0
230
1.0
 70
     8
 71
     3
 72
    20
 73
    16
 74
     0
 42
0.000000001
 43
0.00000001
 40
0.0
 40
0.0
 40
0.0
 40
0.0
 40
0.0103611583900058
 40
0.0960674411376539
 40
0.1928067111892299
 40
0.3102458453161852
 40
0.4039940468444417
 40
0.4629001580513433
 40
0.5123421054346641
 40
0.5617428915598369
 40
0.6399684891461203
 40
0.7695519958981244
 40
0.9030081930025817
 40
0.9972408077749507
 40
1.0
 40
1.0
 40
1.0
 40
1.0
 10
155.8553165227392
 20
128.465836053806
 30
0.0
 10
155.855168841701
 20
128.4789398080844
 30
0.0
 10
155.853799560496
 20
128.6004362755104
 30
0.0
 10
155.8092267242965
 20
128.8355781208209
 30
0.0
 10
155.6519117680986
 20
129.1435964753196
 30
0.0
 10
155.4118826559085
 20
129.383068278778
 30
0.0
 10
155.1408930718241
 20
129.5254292329041
 30
0.0
 10
154.8941167098486
 20
129.5857618489279
 30
0.0
 10
154.6810274800808
 20
129.595711568645
 30
0.0
 10
154.4498808878413
 20
129.5645422315305
 30
0.0
 10
154.162116526047
 20
129.458545638444
 30
0.0
 10
153.8661891432077
 20
129.2280739411962
 30
0.0
 10
153.6558923204094
 20
128.8755689679353
 30
0.0
 10
153.6057032643445
 20
128.5921987805583
 30
0.0
 10
153.6053270881086
 20
128.4693313476467
 30
0.0
 10
153.6053163867661
 20
128.465836053806
 30
0.0
  0
LINE
  5
F4
330
1F
100
AcDbEntity
  8
0
  6
Continuous
 62
     7
370
    25
100
AcDbLine
 10
122.105316113
 20
128.4658360538
 30
0.0
 11
122.105316113
 21
127.865837073
 31
0.0
  0
LINE
  5
F5
330
1F
100
AcDbEntity
  8
0
  6
Continuous
 62
     7
370
    25
100
AcDbLine
 10
174.755317013
 20
127.865837073
 30
0.0
 11
174.755317013
 21
128.4658360538
 31
0.0
  0
LINE
  5
F6
330
1F
100
AcDbEntity
  8
0
  6
Continuous
 62
     7
370
    25
100
AcDbLine
 10
118.0553164736
 20
127.865837073
 30
0.0
 11
118.0553164736
 21
128.4658360538
 31
0.0
  0
LINE
  5
F7
330
1F
100
AcDbEntity
  8
0
  6
Continuous
 62
     7
370
    25
100
AcDbLine
 10
149.5553165145
 20
127.865837073
 30
0.0
 11
149.5553165145
 21
128.4658360538
 31
0.0
  0
SPLINE
  5
F8
330
1F
100
AcDbEntity
  8
0
  6
Continuous
 62
     7
370
    25
100
AcDbSpline
210
0.0
220
0.0
230
1.0
 70
     8
 71
     3
 72
    20
 73
    16
 74
     0
 42
0.000000001
 43
0.00000001
 40
0.0
 40
0.0
 40
0.0
 40
0.0
 40
0.0103611581302921
 40
0.0960674520884996
 40
0.1928067130045677
 40
0.3102458837335439
 40
0.4039940426774896
 40
0.4629001551639745
 40
0.5123421036212941
 40
0.5617428908195715
 40
0.6399684901051043
 40
0.7695519996719757
 40
0.9030081996754248
 40
0.9972408077150144
 40
1.0
 40
1.0
 40
1.0
 40
1.0
 10
149.5553165145436
 20
128.465836053806
 30
0.0
 10
149.5551688754362
 20
128.4789398082565
 30
0.0
 10
149.5537999828183
 20
128.6004362941726
 30
0.0
 10
149.5092263016461
 20
128.8355780605344
 30
0.0
 10
149.3519119285711
 20
129.1435965725867
 30
0.0
 10
149.1118823586669
 20
129.3830681638378
 30
0.0
 10
148.8408930440495
 20
129.52542926823
 30
0.0
 10
148.5941166955794
 20
129.5857618450566
 30
0.0
 10
148.3810274731934
 20
129.5957115696131
 30
0.0
 10
148.1498808798593
 20
129.5645422309905
 30
0.0
 10
147.8621165112043
 20
129.4585456396746
 30
0.0
 10
147.5661891804211
 20
129.2280739346111
 30
0.0
 10
147.3558921664601
 20
128.8755689981878
 30
0.0
 10
147.3057034904942
 20
128.5921987692223
 30
0.0
 10
147.3053273127865
 20
128.4693313476408
 30
0.0
 10
147.3053166114011
 20
128.465836053806
 30
0.0
  0
LINE
  5
F9
330
1F
100
AcDbEntity
  8
0
  6
Continuous
 62
     7
370
    25
100
AcDbLine
 10
172.5053161785
 20
128.4658360538
 30
0.0
 11
172.5053161785
 21
127.865837073
 31
0.0
  0
SPLINE
  5
FA
330
1F
100
AcDbEntity
  8
0
  6
Continuous
 62
     7
370
    25
100
AcDbSpline
210
0.0
220
0.0
230
1.0
 70
     8
 71
     3
 72
    20
 73
    16
 74
     0
 42
0.000000001
 43
0.00000001
 40
0.0
 40
0.0
 40
0.0
 40
0.0
 40
0.0103611593783586
 40
0.096067525093127
 40
0.192806579635711
 40
0.3102456568633415
 40
0.4039940904382429
 40
0.4629005282304111
 40
0.5123417819780397
 40
0.5617427428374633
 40
0.6399685952981644
 40
0.7695520759930609
 40
0.9030080876880218
 40
0.9972408080287375
 40
1.0
 40
1.0
 40
1.0
 40
1.0
 10
118.0553164735654
 20
128.465836053806
 30
0.0
 10
118.055168799255
 20
128.4789398092978
 30
0.0
 10
118.053799579364
 20
128.6004363825635
 30
0.0
 10
118.0092233880505
 20
128.8355774327311
 30
0.0
 10
117.8519131804376
 20
129.1435969024415
 30
0.0
 10
117.6118832809324
 20
129.3830685500978
 30
0.0
 10
117.3408927589798
 20
129.5254293846444
 30
0.0
 10
117.0941162656175
 20
129.5857615488066
 30
0.0
 10
116.8810274832539
 20
129.595711545861
 30
0.0
 10
116.6498811911336
 20
129.5645421692047
 30
0.0
 10
116.3621161530259
 20
129.4585459702542
 30
0.0
 10
116.0661867496432
 20
129.2280742669292
 30
0.0
 10
115.8558990351195
 20
128.8755682479484
 30
0.0
 10
115.8056967973907
 20
128.5921989285248
 30
0.0
 10
115.8053261822307
 20
128.4693313477368
 30
0.0
 10
115.8053156391004
 20
128.465836053806
 30
0.0
  0
LINE
  5
FB
330
1F
100
AcDbEntity
  8
0
  6
Continuous
 62
     7
370
    25
100
AcDbLine
 10
92.7053157643
 20
131.8658340034
 30
0.0
 11
195.7053158835
 21
131.8658340034
 31
0.0
  0
LINE
  5
FC
330
1F
100
AcDbEntity
  8
0
  6
Continuous
 62
     7
370
    25
100
AcDbLine
 10
195.7053158835
 20
131.8658340034
 30
0.0
 11
195.7053158835
 21
129.8658336756
 31
0.0
  0
LINE
  5
FD
330
1F
100
AcDbEntity
  8
0
  6
Continuous
 62
     7
370
    25
100
AcDbLine
 10
92.7053157643
 20
131.8658340034
 30
0.0
 11
92.7053157643
 21
129.8658336756
 31
0.0
  0
LINE
  5
FE
330
1F
100
AcDbEntity
  8
0
  6
Continuous
 62
     7
370
    25
100
AcDbLine
 10
195.7053158835
 20
131.8658340034
 30
0.0
 11
197.7053162113
 21
131.8658340034
 31
0.0
  0
LINE
  5
FF
330
1F
100
AcDbEntity
  8
0
  6
Continuous
 62
     7
370
    25
100
AcDbLine
 10
197.7053162113
 20
127.865837073
 30
0.0
 11
197.7053162113
 21
131.8658340034
 31
0.0
  0
LINE
  5
100
330
1F
100
AcDbEntity
  8
0
  6
Continuous
 62
     7
370
    25
100
AcDbLine
 10
92.7053157643
 20
131.8658340034
 30
0.0
 11
90.7053154364
 21
131.8658340034
 31
0.0
  0
LINE
  5
101
330
1F
100
AcDbEntity
  8
0
  6
Continuous
 62
     7
370
    25
100
AcDbLine
 10
90.7053154364
 20
131.8658340034
 30
0.0
 11
90.7053154364
 21
127.865837073
 31
0.0
  0
LINE
  5
102
330
1F
100
AcDbEntity
  8
0
  6
Continuous
 62
     7
370
    25
100
AcDbLine
 10
92.7053157643
 20
141.894419795
 30
0.0
 11
92.7053157643
 21
131.8658340034
 31
0.0
  0
SPLINE
  5
103
330
1F
100
AcDbEntity
  8
0
  6
Continuous
 62
     7
370
    25
100
AcDbSpline
210
0.0
220
0.0
230
1.0
 70
     8
 71
     3
 72
    12
 73
     8
 74
     0
 42
0.000000001
 43
0.00000001
 40
0.0
 40
0.0
 40
0.0
 40
0.0
 40
0.2200721477195739
 40
0.4401945552263319
 40
0.6586883516219288
 40
0.8729776047507448
 40
0.9999999999999999
 40
0.9999999999999999
 40
0.9999999999999999
 40
0.9999999999999999
 10
90.70531543644456
 20
142.3026855346733
 30
0.0
 10
90.72812120042113
 20
142.2578059942869
 30
0.0
 10
90.77373793672461
 20
142.1680366639837
 30
0.0
 10
91.12955202852154
 20
142.0437186010319
 30
0.0
 10
91.6512194406484
 20
141.9490137465829
 30
0.0
 10
92.2115943406131
 20
141.9007610073788
 30
0.0
 10
92.57140775849487
 20
141.8961396699356
 30
0.0
 10
92.70531576427011
 20
141.894419794994
 30
0.0
  0
LINE
  5
104
330
1F
100
AcDbEntity
  8
0
  6
Continuous
 62
     7
370
    25
100
AcDbLine
 10
90.7053154364
 20
131.8658340034
 30
0.0
 11
90.7053154364
 21
142.3026855347
 31
0.0
  0
LINE
  5
105
330
1F
100
AcDbEntity
  8
0
  6
Continuous
 62
     7
370
    25
100
AcDbLine
 10
92.1053167835
 20
142.1842622814
 30
0.0
 11
92.1053167835
 21
144.3258348164
 31
0.0
  0
LINE
  5
106
330
1F
100
AcDbEntity
  8
0
  6
Continuous
 62
     7
370
    25
100
AcDbLine
 10
92.1053167835
 20
142.1842622814
 30
0.0
 11
196.3053148642
 21
142.1842622814
 31
0.0
  0
LINE
  5
107
330
1F
100
AcDbEntity
  8
0
  6
Continuous
 62
     7
370
    25
100
AcDbLine
 10
196.3053148642
 20
142.1842622814
 30
0.0
 11
196.3053148642
 21
144.3258348164
 31
0.0
  0
SPLINE
  5
108
330
1F
100
AcDbEntity
  8
0
  6
Continuous
 62
     7
370
    25
100
AcDbSpline
210
0.0
220
0.0
230
1.0
 70
     8
 71
     3
 72
    12
 73
     8
 74
     0
 42
0.000000001
 43
0.00000001
 40
0.0
 40
0.0
 40
0.0
 40
0.0
 40
0.209106841644432
 40
0.4181402711417705
 40
0.629321551321837
 40
0.8448672763517756
 40
1.0
 40
1.0
 40
1.0
 40
1.0
 10
195.7053158834794
 20
141.894419794994
 30
0.0
 10
195.9265669840526
 20
141.8990153184159
 30
0.0
 10
196.3689915095082
 20
141.9082047518871
 30
0.0
 10
196.9600512918598
 20
141.979006627914
 30
0.0
 10
197.4128452276756
 20
142.0815495119277
 30
0.0
 10
197.6664912612574
 20
142.19605019177
 30
0.0
 10
197.6938614903645
 20
142.2712243713272
 30
0.0
 10
197.7053162113049
 20
142.3026855346733
 30
0.0
  0
LINE
  5
109
330
1F
100
AcDbEntity
  8
0
  6
Continuous
 62
     7
370
    25
100
AcDbLine
 10
195.7053158835
 20
141.894419795
 30
0.0
 11
92.7053157643
 21
141.894419795
 31
0.0
  0
LINE
  5
10A
330
1F
100
AcDbEntity
  8
0
  6
Continuous
 62
     7
370
    25
100
AcDbLine
 10
90.7053154364
 20
144.3258348164
 30
0.0
 11
90.7053154364
 21
142.3026855347
 31
0.0
  0
LINE
  5
10B
330
1F
100
AcDbEntity
  8
0
  6
Continuous
 62
     7
370
    25
100
AcDbLine
 10
197.7053162113
 20
144.3258348164
 30
0.0
 11
197.7053162113
 21
142.3026855347
 31
0.0
  0
LINE
  5
10C
330
1F
100
AcDbEntity
  8
0
  6
Continuous
 62
     7
370
    25
100
AcDbLine
 10
195.7053158835
 20
131.8658340034
 30
0.0
 11
195.7053158835
 21
141.894419795
 31
0.0
  0
LINE
  5
10D
330
1F
100
AcDbEntity
  8
0
  6
Continuous
 62
     7
370
    25
100
AcDbLine
 10
197.7053162113
 20
142.3026855347
 30
0.0
 11
197.7053162113
 21
131.8658340034
 31
0.0
  0
LINE
  5
10E
330
1F
100
AcDbEntity
  8
0
  6
Continuous
 62
     7
370
    25
100
AcDbLine
 10
90.7053154364
 20
94.4658354866
 30
0.0
 11
90.7053154364
 21
80.6158353818
 31
0.0
  0
LINE
  5
10F
330
1F
100
AcDbEntity
  8
0
  6
Continuous
 62
     7
370
    25
100
AcDbLine
 10
197.7053162113
 20
94.4658354866
 30
0.0
 11
197.7053162113
 21
80.6158353818
 31
0.0
  0
LINE
  5
110
330
1F
100
AcDbEntity
  8
0
  6
Continuous
 62
     7
370
    25
100
AcDbLine
 10
90.7053154364
 20
94.4658354866
 30
0.0
 11
197.7053162113
 21
94.4658354866
 31
0.0
  0
LINE
  5
111
330
1F
100
AcDbEntity
  8
0
  6
Continuous
 62
     7
370
    25
100
AcDbLine
 10
90.7053154364
 20
80.6158353818
 30
0.0
 11
197.7053162113
 21
80.6158353818
 31
0.0
  0
ENDSEC
  0
SECTION
  2
OBJECTS
  0
DICTIONARY
  5
C
330
0
100
AcDbDictionary
281
     1
  3
ACAD_GROUP
350
D
  3
ACAD_LAYOUT
350
1A
  3
ACAD_MLINESTYLE
350
17
  3
ACAD_PLOTSETTINGS
350
19
  3
ACAD_PLOTSTYLENAME
350
E
  3
ACAD_SCALELIST
350
47
  0
DICTIONARY
  5
D
102
{ACAD_REACTORS
330
C
102
}
330
C
100
AcDbDictionary
281
     1
  0
DICTIONARY
  5
1A
102
{ACAD_REACTORS
330
C
102
}
330
C
100
AcDbDictionary
281
     1
  3
Layout1
350
1E
  3
Layout2
350
26
  3
Model
350
22
  0
DICTIONARY
  5
17
102
{ACAD_REACTORS
330
C
102
}
330
C
100
AcDbDictionary
281
     1
  3
Standard
350
18
  0
DICTIONARY
  5
19
102
{ACAD_REACTORS
330
C
102
}
330
C
100
AcDbDictionary
281
     1
  0
ACDBDICTIONARYWDFLT
  5
E
102
{ACAD_REACTORS
330
C
102
}
330
C
100
AcDbDictionary
281
     1
  3
Normal
350
F
100
AcDbDictionaryWithDefault
340
F
  0
DICTIONARY
  5
47
102
{ACAD_REACTORS
330
C
102
}
330
C
100
AcDbDictionary
281
     1
  3
A0
350
48
  3
A1
350
49
  3
A2
350
4A
  3
A3
350
4B
  3
A4
350
4C
  3
A5
350
4D
  3
A6
350
4E
  3
A7
350
4F
  3
A8
350
50
  3
A9
350
51
  3
B0
350
52
  3
B1
350
53
  3
B2
350
54
  3
B3
350
55
  3
B4
350
56
  3
B5
350
57
  3
B6
350
58
  3
B7
350
59
  3
B8
350
5A
  3
B9
350
5B
  3
C0
350
5C
  3
C1
350
5D
  3
C2
350
5E
  3
C3
350
5F
  3
C4
350
60
  3
C5
350
61
  3
C6
350
62
  3
C7
350
63
  3
C8
350
64
  3
C9
350
65
  3
D0
350
66
  3
D1
350
67
  3
D2
350
68
  0
LAYOUT
  5
1E
102
{ACAD_REACTORS
330
1A
102
}
330
1A
100
AcDbPlotSettings
  1

  2
none_device
  4

  6

 40
0.0
 41
0.0
 42
0.0
 43
0.0
 44
0.0
 45
0.0
 46
0.0
 47
0.0
 48
0.0
 49
0.0
140
0.0
141
0.0
142
1.0
143
1.0
 70
   688
 72
     1
 73
     0
 74
     5
  7

 75
    16
147
1.0
148
0.0
149
0.0
100
AcDbLayout
  1
Layout1
 70
     1
 71
     1
 10
0.0
 20
0.0
 11
420.0
 21
297.0
 12
0.0
 22
0.0
 32
0.0
 14
1.0000000000E+20
 24
1.0000000000E+20
 34
1.0000000000E+20
 15
-1.0000000000E+20
 25
-1.0000000000E+20
 35
-1.0000000000E+20
146
0.0
 13
0.0
 23
0.0
 33
0.0
 16
1.0
 26
0.0
 36
0.0
 17
0.0
 27
1.0
 37
0.0
 76
     0
330
1B
  0
LAYOUT
  5
26
102
{ACAD_REACTORS
330
1A
102
}
330
1A
100
AcDbPlotSettings
  1

  2
none_device
  4

  6

 40
0.0
 41
0.0
 42
0.0
 43
0.0
 44
0.0
 45
0.0
 46
0.0
 47
0.0
 48
0.0
 49
0.0
140
0.0
141
0.0
142
1.0
143
1.0
 70
   688
 72
     1
 73
     0
 74
     5
  7

 75
    16
147
1.0
148
0.0
149
0.0
100
AcDbLayout
  1
Layout2
 70
     1
 71
     2
 10
0.0
 20
0.0
 11
0.0
 21
0.0
 12
0.0
 22
0.0
 32
0.0
 14
0.0
 24
0.0
 34
0.0
 15
0.0
 25
0.0
 35
0.0
146
0.0
 13
0.0
 23
0.0
 33
0.0
 16
1.0
 26
0.0
 36
0.0
 17
0.0
 27
1.0
 37
0.0
 76
     0
330
23
  0
LAYOUT
  5
22
102
{ACAD_REACTORS
330
1A
102
}
330
1A
100
AcDbPlotSettings
  1

  2
none_device
  4
Letter_(8.50_x_11.00_Inches)
  6

 40
6.35
 41
6.35
 42
6.35000508
 43
6.35000508
 44
215.9
 45
279.4
 46
0.0
 47
0.0
 48
0.0
 49
0.0
140
0.0
141
0.0
142
1.0
143
1.0
 70
  1712
 72
     1
 73
     0
 74
     0
  7

 75
     0
147
1.0
148
0.0
149
0.0
100
AcDbLayout
  1
Model
 70
     1
 71
     0
 10
0.0
 20
0.0
 11
279.4
 21
215.9
 12
0.0
 22
0.0
 32
0.0
 14
0.0
 24
0.0
 34
0.0
 15
279.4
 25
215.9
 35
0.0
146
0.0
 13
0.0
 23
0.0
 33
0.0
 16
1.0
 26
0.0
 36
0.0
 17
0.0
 27
1.0
 37
0.0
 76
     0
330
1F
331
29
  0
MLINESTYLE
  5
18
102
{ACAD_REACTORS
330
17
102
}
330
17
100
AcDbMlineStyle
  2
Standard
 70
     0
  3

 62
   256
 51
90.0
 52
90.0
 71
     2
 49
0.5
 62
   256
  6
BYLAYER
 49
-0.5
 62
   256
  6
BYLAYER
  0
ACDBPLACEHOLDER
  5
F
102
{ACAD_REACTORS
330
E
102
}
330
E
  0
SCALE
  5
48
102
{ACAD_REACTORS
330
47
102
}
330
47
100
AcDbScale
 70
     0
300
1:1
140
1.0
141
1.0
290
     1
  0
SCALE
  5
49
102
{ACAD_REACTORS
330
47
102
}
330
47
100
AcDbScale
 70
     0
300
1:2
140
1.0
141
2.0
290
     0
  0
SCALE
  5
4A
102
{ACAD_REACTORS
330
47
102
}
330
47
100
AcDbScale
 70
     0
300
1:4
140
1.0
141
4.0
290
     0
  0
SCALE
  5
4B
102
{ACAD_REACTORS
330
47
102
}
330
47
100
AcDbScale
 70
     0
300
1:5
140
1.0
141
5.0
290
     0
  0
SCALE
  5
4C
102
{ACAD_REACTORS
330
47
102
}
330
47
100
AcDbScale
 70
     0
300
1:8
140
1.0
141
8.0
290
     0
  0
SCALE
  5
4D
102
{ACAD_REACTORS
330
47
102
}
330
47
100
AcDbScale
 70
     0
300
1:10
140
1.0
141
10.0
290
     0
  0
SCALE
  5
4E
102
{ACAD_REACTORS
330
47
102
}
330
47
100
AcDbScale
 70
     0
300
1:16
140
1.0
141
16.0
290
     0
  0
SCALE
  5
4F
102
{ACAD_REACTORS
330
47
102
}
330
47
100
AcDbScale
 70
     0
300
1:20
140
1.0
141
20.0
290
     0
  0
SCALE
  5
50
102
{ACAD_REACTORS
330
47
102
}
330
47
100
AcDbScale
 70
     0
300
1:30
140
1.0
141
30.0
290
     0
  0
SCALE
  5
51
102
{ACAD_REACTORS
330
47
102
}
330
47
100
AcDbScale
 70
     0
300
1:40
140
1.0
141
40.0
290
     0
  0
SCALE
  5
52
102
{ACAD_REACTORS
330
47
102
}
330
47
100
AcDbScale
 70
     0
300
1:50
140
1.0
141
50.0
290
     0
  0
SCALE
  5
53
102
{ACAD_REACTORS
330
47
102
}
330
47
100
AcDbScale
 70
     0
300
1:100
140
1.0
141
100.0
290
     0
  0
SCALE
  5
54
102
{ACAD_REACTORS
330
47
102
}
330
47
100
AcDbScale
 70
     0
300
2:1
140
2.0
141
1.0
290
     0
  0
SCALE
  5
55
102
{ACAD_REACTORS
330
47
102
}
330
47
100
AcDbScale
 70
     0
300
4:1
140
4.0
141
1.0
290
     0
  0
SCALE
  5
56
102
{ACAD_REACTORS
330
47
102
}
330
47
100
AcDbScale
 70
     0
300
8:1
140
8.0
141
1.0
290
     0
  0
SCALE
  5
57
102
{ACAD_REACTORS
330
47
102
}
330
47
100
AcDbScale
 70
     0
300
10:1
140
10.0
141
1.0
290
     0
  0
SCALE
  5
58
102
{ACAD_REACTORS
330
47
102
}
330
47
100
AcDbScale
 70
     0
300
100:1
140
100.0
141
1.0
290
     0
  0
SCALE
  5
59
102
{ACAD_REACTORS
330
47
102
}
330
47
100
AcDbScale
 70
     0
300
1/128" = 1'-0"
140
0.0078125
141
12.0
290
     0
  0
SCALE
  5
5A
102
{ACAD_REACTORS
330
47
102
}
330
47
100
AcDbScale
 70
     0
300
1/64" = 1'-0"
140
0.015625
141
12.0
290
     0
  0
SCALE
  5
5B
102
{ACAD_REACTORS
330
47
102
}
330
47
100
AcDbScale
 70
     0
300
1/32" = 1'-0"
140
0.03125
141
12.0
290
     0
  0
SCALE
  5
5C
102
{ACAD_REACTORS
330
47
102
}
330
47
100
AcDbScale
 70
     0
300
1/16" = 1'-0"
140
0.0625
141
12.0
290
     0
  0
SCALE
  5
5D
102
{ACAD_REACTORS
330
47
102
}
330
47
100
AcDbScale
 70
     0
300
3/32" = 1'-0"
140
0.09375
141
12.0
290
     0
  0
SCALE
  5
5E
102
{ACAD_REACTORS
330
47
102
}
330
47
100
AcDbScale
 70
     0
300
1/8" = 1'-0"
140
0.125
141
12.0
290
     0
  0
SCALE
  5
5F
102
{ACAD_REACTORS
330
47
102
}
330
47
100
AcDbScale
 70
     0
300
3/16" = 1'-0"
140
0.1875
141
12.0
290
     0
  0
SCALE
  5
60
102
{ACAD_REACTORS
330
47
102
}
330
47
100
AcDbScale
 70
     0
300
1/4" = 1'-0"
140
0.25
141
12.0
290
     0
  0
SCALE
  5
61
102
{ACAD_REACTORS
330
47
102
}
330
47
100
AcDbScale
 70
     0
300
3/8" = 1'-0"
140
0.375
141
12.0
290
     0
  0
SCALE
  5
62
102
{ACAD_REACTORS
330
47
102
}
330
47
100
AcDbScale
 70
     0
300
1/2" = 1'-0"
140
0.5
141
12.0
290
     0
  0
SCALE
  5
63
102
{ACAD_REACTORS
330
47
102
}
330
47
100
AcDbScale
 70
     0
300
3/4" = 1'-0"
140
0.75
141
12.0
290
     0
  0
SCALE
  5
64
102
{ACAD_REACTORS
330
47
102
}
330
47
100
AcDbScale
 70
     0
300
1" = 1'-0"
140
1.0
141
12.0
290
     0
  0
SCALE
  5
65
102
{ACAD_REACTORS
330
47
102
}
330
47
100
AcDbScale
 70
     0
300
1-1/2" = 1'-0"
140
1.5
141
12.0
290
     0
  0
SCALE
  5
66
102
{ACAD_REACTORS
330
47
102
}
330
47
100
AcDbScale
 70
     0
300
3" = 1'-0"
140
3.0
141
12.0
290
     0
  0
SCALE
  5
67
102
{ACAD_REACTORS
330
47
102
}
330
47
100
AcDbScale
 70
     0
300
6" = 1'-0"
140
6.0
141
12.0
290
     0
  0
SCALE
  5
68
102
{ACAD_REACTORS
330
47
102
}
330
47
100
AcDbScale
 70
     0
300
1'-0" = 1'-0"
140
12.0
141
12.0
290
     0
  0
ENDSEC
  0
EOF
