  0
SECTION
  2
HEADER
  9
$ACADVER
  1
AC1015
  9
$ACADMAINTVER
 70
     6
  9
$DWGCODEPAGE
  3
ANSI_1252
  9
$INSBASE
 10
0.0
 20
0.0
 30
0.0
  9
$EXTMIN
 10
-53.5
 20
-43.85
 30
0.0
  9
$EXTMAX
 10
53.5
 20
43.85
 30
0.0
  9
$LIMMIN
 10
0.0
 20
0.0
  9
$LIMMAX
 10
420.0
 20
297.0
  9
$ORTHOMODE
 70
     0
  9
$REGENMODE
 70
     1
  9
$FILLMODE
 70
     1
  9
$QTEXTMODE
 70
     0
  9
$MIRRTEXT
 70
     1
  9
$LTSCALE
 40
1.0
  9
$ATTMODE
 70
     1
  9
$TEXTSIZE
 40
3.175
  9
$TRACEWID
 40
1.0
  9
$TEXTSTYLE
  7
Standard
  9
$CLAYER
  8
0
  9
$CELTYPE
  6
ByLayer
  9
$CECOLOR
 62
   256
  9
$CELTSCALE
 40
1.0
  9
$DISPSILH
 70
     0
  9
$DIMSCALE
 40
1.0
  9
$DIMASZ
 40
3.302
  9
$DIMEXO
 40
1.27
  9
$DIMDLI
 40
3.75
  9
$DIMRND
 40
0.0
  9
$DIMDLE
 40
0.0
  9
$DIMEXE
 40
3.175
  9
$DIMTP
 40
0.0
  9
$DIMTM
 40
0.0
  9
$DIMTXT
 40
3.175
  9
$DIMCEN
 40
2.5
  9
$DIMTSZ
 40
0.0
  9
$DIMTOL
 70
     0
  9
$DIMLIM
 70
     0
  9
$DIMTIH
 70
     1
  9
$DIMTOH
 70
     1
  9
$DIMSE1
 70
     0
  9
$DIMSE2
 70
     0
  9
$DIMTAD
 70
     0
  9
$DIMZIN
 70
     0
  9
$DIMBLK
  1

  9
$DIMASO
 70
     1
  9
$DIMSHO
 70
     1
  9
$DIMPOST
  1

  9
$DIMAPOST
  1

  9
$DIMALT
 70
     0
  9
$DIMALTD
 70
     3
  9
$DIMALTF
 40
0.0393700787
  9
$DIMLFAC
 40
1.0
  9
$DIMTOFL
 70
     1
  9
$DIMTVP
 40
0.0
  9
$DIMTIX
 70
     0
  9
$DIMSOXD
 70
     0
  9
$DIMSAH
 70
     0
  9
$DIMBLK1
  1

  9
$DIMBLK2
  1

  9
$DIMSTYLE
  2
ISO-25
  9
$DIMCLRD
 70
     0
  9
$DIMCLRE
 70
     0
  9
$DIMCLRT
 70
     0
  9
$DIMTFAC
 40
1.0
  9
$DIMGAP
 40
1.524
  9
$DIMJUST
 70
     0
  9
$DIMSD1
 70
     0
  9
$DIMSD2
 70
     0
  9
$DIMTOLJ
 70
     0
  9
$DIMTZIN
 70
     0
  9
$DIMALTZ
 70
     0
  9
$DIMALTTZ
 70
     0
  9
$DIMUPT
 70
     0
  9
$DIMDEC
 70
     2
  9
$DIMTDEC
 70
     2
  9
$DIMALTU
 70
     2
  9
$DIMALTTD
 70
     3
  9
$DIMTXSTY
  7
Standard
  9
$DIMAUNIT
 70
     0
  9
$DIMADEC
 70
     2
  9
$DIMALTRND
 40
0.0
  9
$DIMAZIN
 70
     0
  9
$DIMDSEP
 70
    44
  9
$DIMATFIT
 70
     3
  9
$DIMFRAC
 70
     0
  9
$DIMLDRBLK
  1

  9
$DIMLUNIT
 70
     2
  9
$DIMLWD
 70
    -2
  9
$DIMLWE
 70
    -2
  9
$DIMTMOVE
 70
     0
  9
$LUNITS
 70
     2
  9
$LUPREC
 70
     2
  9
$SKETCHINC
 40
1.0
  9
$FILLETRAD
 40
10.0
  9
$AUNITS
 70
     0
  9
$AUPREC
 70
     2
  9
$MENU
  1
.
  9
$ELEVATION
 40
0.0
  9
$PELEVATION
 40
0.0
  9
$THICKNESS
 40
0.0
  9
$LIMCHECK
 70
     0
  9
$CHAMFERA
 40
0.0
  9
$CHAMFERB
 40
0.0
  9
$CHAMFERC
 40
0.0
  9
$CHAMFERD
 40
0.0
  9
$SKPOLY
 70
     0
  9
$TDCREATE
 40
2458206.96749478
  9
$TDUCREATE
 40
2458207.134161447
  9
$TDUPDATE
 40
2458206.967522639
  9
$TDUUPDATE
 40
2458207.134189305
  9
$TDINDWG
 40
0.0000000116
  9
$TDUSRTIMER
 40
0.0000000116
  9
$USRTIMER
 70
     1
  9
$ANGBASE
 50
0.0
  9
$ANGDIR
 70
     0
  9
$PDMODE
 70
     0
  9
$PDSIZE
 40
-1.0
  9
$PLINEWID
 40
0.0
  9
$SPLFRAME
 70
     0
  9
$SPLINETYPE
 70
     6
  9
$SPLINESEGS
 70
     8
  9
$HANDSEED
  5
1BF
  9
$SURFTAB1
 70
     6
  9
$SURFTAB2
 70
     6
  9
$SURFTYPE
 70
     6
  9
$SURFU
 70
     6
  9
$SURFV
 70
     6
  9
$UCSBASE
  2

  9
$UCSNAME
  2

  9
$UCSORG
 10
0.0
 20
0.0
 30
0.0
  9
$UCSXDIR
 10
1.0
 20
0.0
 30
0.0
  9
$UCSYDIR
 10
0.0
 20
1.0
 30
0.0
  9
$UCSORTHOREF
  2

  9
$UCSORTHOVIEW
 70
     0
  9
$UCSORGTOP
 10
0.0
 20
0.0
 30
0.0
  9
$UCSORGBOTTOM
 10
0.0
 20
0.0
 30
0.0
  9
$UCSORGLEFT
 10
0.0
 20
0.0
 30
0.0
  9
$UCSORGRIGHT
 10
0.0
 20
0.0
 30
0.0
  9
$UCSORGFRONT
 10
0.0
 20
0.0
 30
0.0
  9
$UCSORGBACK
 10
0.0
 20
0.0
 30
0.0
  9
$PUCSBASE
  2

  9
$PUCSNAME
  2

  9
$PUCSORG
 10
0.0
 20
0.0
 30
0.0
  9
$PUCSXDIR
 10
1.0
 20
0.0
 30
0.0
  9
$PUCSYDIR
 10
0.0
 20
1.0
 30
0.0
  9
$PUCSORTHOREF
  2

  9
$PUCSORTHOVIEW
 70
     0
  9
$PUCSORGTOP
 10
0.0
 20
0.0
 30
0.0
  9
$PUCSORGBOTTOM
 10
0.0
 20
0.0
 30
0.0
  9
$PUCSORGLEFT
 10
0.0
 20
0.0
 30
0.0
  9
$PUCSORGRIGHT
 10
0.0
 20
0.0
 30
0.0
  9
$PUCSORGFRONT
 10
0.0
 20
0.0
 30
0.0
  9
$PUCSORGBACK
 10
0.0
 20
0.0
 30
0.0
  9
$USERI1
 70
     0
  9
$USERI2
 70
     0
  9
$USERI3
 70
     0
  9
$USERI4
 70
     0
  9
$USERI5
 70
     0
  9
$USERR1
 40
0.0
  9
$USERR2
 40
0.0
  9
$USERR3
 40
0.0
  9
$USERR4
 40
0.0
  9
$USERR5
 40
0.0
  9
$WORLDVIEW
 70
     1
  9
$SHADEDGE
 70
     3
  9
$SHADEDIF
 70
    70
  9
$TILEMODE
 70
     1
  9
$MAXACTVP
 70
    64
  9
$PINSBASE
 10
0.0
 20
0.0
 30
0.0
  9
$PLIMCHECK
 70
     0
  9
$PEXTMIN
 10
1.0000000000E+20
 20
1.0000000000E+20
 30
1.0000000000E+20
  9
$PEXTMAX
 10
-1.0000000000E+20
 20
-1.0000000000E+20
 30
-1.0000000000E+20
  9
$PLIMMIN
 10
0.0
 20
0.0
  9
$PLIMMAX
 10
420.0
 20
297.0
  9
$UNITMODE
 70
     0
  9
$VISRETAIN
 70
     1
  9
$PLINEGEN
 70
     0
  9
$PSLTSCALE
 70
     1
  9
$TREEDEPTH
 70
  3020
  9
$CMLSTYLE
  2
Standard
  9
$CMLJUST
 70
     0
  9
$CMLSCALE
 40
20.0
  9
$PROXYGRAPHICS
 70
     1
  9
$MEASUREMENT
 70
     1
  9
$CELWEIGHT
370
    -1
  9
$ENDCAPS
280
     0
  9
$JOINSTYLE
280
     0
  9
$LWDISPLAY
290
     1
  9
$INSUNITS
 70
     4
  9
$HYPERLINKBASE
  1

  9
$STYLESHEET
  1

  9
$XEDIT
290
     1
  9
$CEPSNTYPE
380
     0
  9
$PSTYLEMODE
290
     1
  9
$FINGERPRINTGUID
  2
{F5D725EE-FC30-4D67-A110-2770686679D4}
  9
$VERSIONGUID
  2
{FAEB1C32-E019-11D5-929B-00C0DF256EC4}
  9
$EXTNAMES
290
     1
  9
$PSVPSCALE
 40
0.0
  9
$OLESTARTUP
290
     0
  0
ENDSEC
  0
SECTION
  2
CLASSES
  0
CLASS
  1
ACDBDICTIONARYWDFLT
  2
AcDbDictionaryWithDefault
  3
ObjectDBX Classes
 90
        0
280
     0
281
     0
  0
CLASS
  1
VISUALSTYLE
  2
AcDbVisualStyle
  3
ObjectDBX Classes
 90
     4095
280
     0
281
     0
  0
CLASS
  1
MATERIAL
  2
AcDbMaterial
  3
ObjectDBX Classes
 90
     1153
280
     0
281
     0
  0
CLASS
  1
SCALE
  2
AcDbScale
  3
ObjectDBX Classes
 90
     1153
280
     0
281
     0
  0
CLASS
  1
TABLESTYLE
  2
AcDbTableStyle
  3
ObjectDBX Classes
 90
     4095
280
     0
281
     0
  0
CLASS
  1
MLEADERSTYLE
  2
AcDbMLeaderStyle
  3
ACDB_MLEADERSTYLE_CLASS
 90
     4095
280
     0
281
     0
  0
CLASS
  1
SUN
  2
AcDbSun
  3
SCENEOE
 90
     1153
280
     0
281
     0
  0
CLASS
  1
ACDBPLACEHOLDER
  2
AcDbPlaceHolder
  3
ObjectDBX Classes
 90
        0
280
     0
281
     0
  0
CLASS
  1
LAYOUT
  2
AcDbLayout
  3
ObjectDBX Classes
 90
        0
280
     0
281
     0
  0
ENDSEC
  0
SECTION
  2
TABLES
  0
TABLE
  2
VPORT
  5
8
330
0
100
AcDbSymbolTable
 70
     1
  0
VPORT
  5
29
330
8
100
AcDbSymbolTableRecord
100
AcDbViewportTableRecord
  2
*Active
 70
     0
 10
0.0
 20
0.0
 11
1.0
 21
1.0
 12
0.0
 22
0.0
 13
0.0
 23
0.0
 14
10.0
 24
10.0
 15
10.0
 25
10.0
 16
0.0
 26
0.0
 36
1.0
 17
0.0
 27
0.0
 37
0.0
 40
89.454
 41
1.2200684151
 42
50.0
 43
0.0
 44
0.0
 50
0.0
 51
0.0
 71
     0
 72
   100
 73
     1
 74
     3
 75
     0
 76
     0
 77
     0
 78
     0
281
     0
 65
     1
110
0.0
120
0.0
130
0.0
111
1.0
121
0.0
131
0.0
112
0.0
122
1.0
132
0.0
 79
     0
146
0.0
  0
ENDTAB
  0
TABLE
  2
LTYPE
  5
5
330
0
100
AcDbSymbolTable
 70
     6
  0
LTYPE
  5
14
330
5
100
AcDbSymbolTableRecord
100
AcDbLinetypeTableRecord
  2
ByBlock
 70
     0
  3

 72
    65
 73
     0
 40
0.0
  0
LTYPE
  5
15
330
5
100
AcDbSymbolTableRecord
100
AcDbLinetypeTableRecord
  2
ByLayer
 70
     0
  3

 72
    65
 73
     0
 40
0.0
  0
LTYPE
  5
16
330
5
100
AcDbSymbolTableRecord
100
AcDbLinetypeTableRecord
  2
Continuous
 70
     0
  3
Solid line
 72
    65
 73
     0
 40
0.0
  0
LTYPE
  5
6E
330
5
100
AcDbSymbolTableRecord
100
AcDbLinetypeTableRecord
  2
HIDDEN
 70
     0
  3
Hidden __ __ __ __ __ __ __ __ __ __ __ __ __ __
 72
    65
 73
     2
 40
1.905
 49
1.27
 74
     0
 49
-0.635
 74
     0
  0
LTYPE
  5
6F
330
5
100
AcDbSymbolTableRecord
100
AcDbLinetypeTableRecord
  2
PHANTOM
 70
     0
  3
Phantom ______  __  __  ______  __  __  ______
 72
    65
 73
     6
 40
12.7
 49
6.35
 74
     0
 49
-1.27
 74
     0
 49
1.27
 74
     0
 49
-1.27
 74
     0
 49
1.27
 74
     0
 49
-1.27
 74
     0
  0
LTYPE
  5
70
330
5
100
AcDbSymbolTableRecord
100
AcDbLinetypeTableRecord
  2
CENTER
 70
     0
  3
Center ____ _ ____ _ ____ _ ____ _ ____ _ ____
 72
    65
 73
     4
 40
10.16
 49
6.35
 74
     0
 49
-1.27
 74
     0
 49
1.27
 74
     0
 49
-1.27
 74
     0
  0
LTYPE
  5
71
330
5
100
AcDbSymbolTableRecord
100
AcDbLinetypeTableRecord
  2
CENTERX2
 70
     0
  3
Center (2x) ________  __  ________  __  _____
 72
    65
 73
     4
 40
20.32
 49
12.7
 74
     0
 49
-2.54
 74
     0
 49
2.54
 74
     0
 49
-2.54
 74
     0
  0
LTYPE
  5
72
330
5
100
AcDbSymbolTableRecord
100
AcDbLinetypeTableRecord
  2
DOT2
 70
     0
  3
Dot (.5x) ........................................
 72
    65
 73
     2
 40
0.635
 49
0.0
 74
     0
 49
-0.635
 74
     0
  0
ENDTAB
  0
TABLE
  2
LAYER
  5
2
330
0
100
AcDbSymbolTable
 70
     1
  0
LAYER
  5
10
330
2
100
AcDbSymbolTableRecord
100
AcDbLayerTableRecord
  2
0
 70
     0
 62
     7
  6
Continuous
370
    -3
390
F
  0
ENDTAB
  0
TABLE
  2
STYLE
  5
3
330
0
100
AcDbSymbolTable
 70
     1
  0
STYLE
  5
11
330
3
100
AcDbSymbolTableRecord
100
AcDbTextStyleTableRecord
  2
Standard
 70
     0
 40
0.0
 41
1.0
 50
0.0
 71
     0
 42
3.175
  3
txt
  4

  0
ENDTAB
  0
TABLE
  2
VIEW
  5
6
330
0
100
AcDbSymbolTable
 70
     0
  0
ENDTAB
  0
TABLE
  2
UCS
  5
7
330
0
100
AcDbSymbolTable
 70
     0
  0
ENDTAB
  0
TABLE
  2
APPID
  5
9
330
0
100
AcDbSymbolTable
 70
     1
  0
APPID
  5
12
330
9
100
AcDbSymbolTableRecord
100
AcDbRegAppTableRecord
  2
ACAD
 70
     0
  0
ENDTAB
  0
TABLE
  2
DIMSTYLE
  5
A
330
0
100
AcDbSymbolTable
 70
     1
100
AcDbDimStyleTable
  0
DIMSTYLE
105
27
330
A
100
AcDbSymbolTableRecord
100
AcDbDimStyleTableRecord
  2
ISO-25
 70
     0
 41
2.5
 42
0.625
 43
3.75
 44
1.25
 73
     0
 74
     0
 77
     1
 78
     8
140
2.5
141
2.5
143
0.0393700787
147
0.625
171
     3
172
     1
178
     0
271
     2
272
     2
274
     3
278
    44
283
     0
284
     8
340
11
  0
ENDTAB
  0
TABLE
  2
BLOCK_RECORD
  5
1
330
0
100
AcDbSymbolTable
 70
     1
  0
BLOCK_RECORD
  5
1F
330
1
100
AcDbSymbolTableRecord
100
AcDbBlockTableRecord
  2
*Model_Space
340
22
  0
BLOCK_RECORD
  5
1B
330
1
100
AcDbSymbolTableRecord
100
AcDbBlockTableRecord
  2
*Paper_Space
340
1E
  0
BLOCK_RECORD
  5
23
330
1
100
AcDbSymbolTableRecord
100
AcDbBlockTableRecord
  2
*Paper_Space0
340
26
  0
ENDTAB
  0
ENDSEC
  0
SECTION
  2
BLOCKS
  0
BLOCK
  5
20
330
1F
100
AcDbEntity
  8
0
100
AcDbBlockBegin
  2
*Model_Space
 70
     0
 10
0.0
 20
0.0
 30
0.0
  3
*Model_Space
  1

  0
ENDBLK
  5
21
330
1F
100
AcDbEntity
  8
0
100
AcDbBlockEnd
  0
BLOCK
  5
1C
330
1B
100
AcDbEntity
 67
     1
  8
0
100
AcDbBlockBegin
  2
*Paper_Space
 70
     0
 10
0.0
 20
0.0
 30
0.0
  3
*Paper_Space
  1

  0
ENDBLK
  5
1D
330
1B
100
AcDbEntity
 67
     1
  8
0
100
AcDbBlockEnd
  0
BLOCK
  5
24
330
23
100
AcDbEntity
  8
0
100
AcDbBlockBegin
  2
*Paper_Space0
 70
     0
 10
0.0
 20
0.0
 30
0.0
  3
*Paper_Space0
  1

  0
ENDBLK
  5
25
330
23
100
AcDbEntity
  8
0
100
AcDbBlockEnd
  0
ENDSEC
  0
SECTION
  2
ENTITIES
  0
SPLINE
  5
76
330
1F
100
AcDbEntity
  8
0
  6
Continuous
 62
     7
370
    25
100
AcDbSpline
210
0.0
220
0.0
230
1.0
 70
     8
 71
     3
 72
    18
 73
    14
 74
     0
 42
0.000000001
 43
0.00000001
 40
0.0
 40
0.0
 40
0.0
 40
0.0
 40
0.125
 40
0.125
 40
0.25
 40
0.25
 40
0.375
 40
0.375
 40
0.5
 40
0.5
 40
0.75
 40
0.75
 40
1.0
 40
1.0
 40
1.0
 40
1.0
 10
51.5
 20
-23.0
 30
0.0
 10
51.63341990814669
 20
-23.0
 30
0.0
 10
51.76452646282906
 20
-22.9867833723593
 30
0.0
 10
52.0223145645007
 20
-22.93506328421853
 30
0.0
 10
52.15037914757222
 20
-22.89588370706695
 30
0.0
 10
52.39353011352285
 20
-22.79414938133548
 30
0.0
 10
52.50870582127534
 20
-22.73197641673514
 30
0.0
 10
52.72642103858757
 20
-22.58528268082107
 30
0.0
 10
52.82884245185915
 20
-22.50037974792543
 30
0.0
 10
53.10387887213977
 20
-22.22287332250521
 30
0.0
 10
53.25113371714148
 20
-22.00021025850145
 30
0.0
 10
53.44796085407712
 20
-21.52186048662871
 30
0.0
 10
53.50000000000001
 20
-21.26178674068428
 30
0.0
 10
53.5
 20
-20.99999999999999
 30
0.0
  0
SPLINE
  5
78
330
1F
100
AcDbEntity
  8
0
  6
Continuous
 62
     7
370
    25
100
AcDbSpline
210
0.0
220
0.0
230
1.0
 70
     8
 71
     3
 72
    20
 73
    16
 74
     0
 42
0.000000001
 43
0.00000001
 40
0.0
 40
0.0
 40
0.0
 40
0.0
 40
0.125
 40
0.125
 40
0.25
 40
0.25
 40
0.375
 40
0.375
 40
0.5
 40
0.5
 40
0.625
 40
0.625
 40
0.75
 40
0.75
 40
1.0
 40
1.0
 40
1.0
 40
1.0
 10
-53.5
 20
-21.0
 30
0.0
 10
-53.50000000000001
 20
-21.13094001520393
 30
0.0
 10
-53.48726540403898
 20
-21.2597095139746
 30
0.0
 10
-53.43737217171903
 20
-21.51309052416485
 30
0.0
 10
-53.39967113633178
 20
-21.63891610261367
 30
0.0
 10
-53.30076067123409
 20
-21.87990068605931
 30
0.0
 10
-53.24018129771173
 20
-21.99430554401555
 30
0.0
 10
-53.09694123260036
 20
-22.21105456664289
 30
0.0
 10
-53.01326311190638
 20
-22.31417340348112
 30
0.0
 10
-52.8297354979814
 20
-22.4996067770192
 30
0.0
 10
-52.72951198558009
 20
-22.58290341184688
 30
0.0
 10
-52.51173244478871
 20
-22.7302255327221
 30
0.0
 10
-52.39443417494845
 20
-22.79364775029247
 30
0.0
 10
-52.03176874547309
 20
-22.94575460506142
 30
0.0
 10
-51.76693987015589
 20
-23.0
 30
0.0
 10
-51.49999999999999
 20
-23.0
 30
0.0
  0
SPLINE
  5
79
330
1F
100
AcDbEntity
  8
0
  6
Continuous
 62
     7
370
    25
100
AcDbSpline
210
0.0
220
0.0
230
1.0
 70
     8
 71
     3
 72
    18
 73
    14
 74
     0
 42
0.000000001
 43
0.00000001
 40
0.0
 40
0.0
 40
0.0
 40
0.0
 40
0.125
 40
0.125
 40
0.25
 40
0.25
 40
0.375
 40
0.375
 40
0.5
 40
0.5
 40
0.75
 40
0.75
 40
1.0
 40
1.0
 40
1.0
 40
1.0
 10
-51.5
 20
23.0
 30
0.0
 10
-51.63341990814669
 20
23.0
 30
0.0
 10
-51.76452646282906
 20
22.9867833723593
 30
0.0
 10
-52.0223145645007
 20
22.93506328421853
 30
0.0
 10
-52.15037914757222
 20
22.89588370706695
 30
0.0
 10
-52.39353011352285
 20
22.79414938133549
 30
0.0
 10
-52.50870582127534
 20
22.73197641673514
 30
0.0
 10
-52.72642103858757
 20
22.58528268082109
 30
0.0
 10
-52.82884245185915
 20
22.50037974792543
 30
0.0
 10
-53.10387887213977
 20
22.22287332250521
 30
0.0
 10
-53.25113371714148
 20
22.00021025850145
 30
0.0
 10
-53.44796085407712
 20
21.52186048662871
 30
0.0
 10
-53.50000000000001
 20
21.26178674068428
 30
0.0
 10
-53.5
 20
20.99999999999999
 30
0.0
  0
SPLINE
  5
7B
330
1F
100
AcDbEntity
  8
0
  6
Continuous
 62
     7
370
    25
100
AcDbSpline
210
0.0
220
0.0
230
1.0
 70
     8
 71
     3
 72
    20
 73
    16
 74
     0
 42
0.000000001
 43
0.00000001
 40
0.0
 40
0.0
 40
0.0
 40
0.0
 40
0.125
 40
0.125
 40
0.25
 40
0.25
 40
0.375
 40
0.375
 40
0.5
 40
0.5
 40
0.625
 40
0.625
 40
0.75
 40
0.75
 40
1.0
 40
1.0
 40
1.0
 40
1.0
 10
53.5
 20
21.0
 30
0.0
 10
53.50000000000001
 20
21.13094001520393
 30
0.0
 10
53.48726540403898
 20
21.2597095139746
 30
0.0
 10
53.43737217171903
 20
21.51309052416485
 30
0.0
 10
53.39967113633178
 20
21.63891610261367
 30
0.0
 10
53.30076067123409
 20
21.87990068605931
 30
0.0
 10
53.24018129771173
 20
21.99430554401555
 30
0.0
 10
53.09694123260036
 20
22.21105456664289
 30
0.0
 10
53.01326311190638
 20
22.31417340348112
 30
0.0
 10
52.8297354979814
 20
22.4996067770192
 30
0.0
 10
52.72951198558009
 20
22.58290341184688
 30
0.0
 10
52.51173244478871
 20
22.7302255327221
 30
0.0
 10
52.39443417494845
 20
22.79364775029247
 30
0.0
 10
52.03176874547309
 20
22.94575460506142
 30
0.0
 10
51.76693987015589
 20
23.0
 30
0.0
 10
51.49999999999999
 20
23.0
 30
0.0
  0
SPLINE
  5
93
330
1F
100
AcDbEntity
  8
0
  6
Continuous
 62
     7
370
    25
100
AcDbSpline
210
0.0
220
0.0
230
1.0
 70
     8
 71
     3
 72
    26
 73
    22
 74
     0
 42
0.000000001
 43
0.00000001
 40
0.0
 40
0.0
 40
0.0
 40
0.0
 40
0.1249999999999971
 40
0.1249999999999971
 40
0.2499999999999941
 40
0.2499999999999941
 40
0.3749999999999912
 40
0.3749999999999912
 40
0.4374999999999912
 40
0.4374999999999912
 40
0.4999999999999913
 40
0.4999999999999913
 40
0.5624999999999915
 40
0.5624999999999915
 40
0.6249999999999915
 40
0.6249999999999915
 40
0.7499999999999943
 40
0.7499999999999943
 40
0.8749999999999971
 40
0.8749999999999971
 40
1.0
 40
1.0
 40
1.0
 40
1.0
 10
-28.4
 20
29.90787840283389
 30
0.0
 10
-28.40000000000001
 20
29.85768828917737
 30
0.0
 10
-28.36569859364769
 20
29.78703529124011
 30
0.0
 10
-28.25088210981688
 20
29.62364434681416
 30
0.0
 10
-28.17029678674379
 20
29.53027344812712
 30
0.0
 10
-27.97770283317768
 20
29.34194226087577
 30
0.0
 10
-27.86431934445784
 20
29.24417587316428
 30
0.0
 10
-27.66593046731151
 20
29.12057101754898
 30
0.0
 10
-27.5937925714429
 20
29.0829189009549
 30
0.0
 10
-27.43989232829022
 20
29.02840789181768
 30
0.0
 10
-27.35645095835566
 20
29.01184022103292
 30
0.0
 10
-27.18916853402136
 20
29.01239529463921
 30
0.0
 10
-27.10610989394817
 20
29.02935451322996
 30
0.0
 10
-26.95108618013117
 20
29.08523067597332
 30
0.0
 10
-26.88074208625162
 20
29.12240026442602
 30
0.0
 10
-26.68226328894021
 20
29.24681189188782
 30
0.0
 10
-26.57066834566803
 20
29.34335379239545
 30
0.0
 10
-26.3778718909529
 20
29.53224875574102
 30
0.0
 10
-26.2986211074757
 20
29.62429319279512
 30
0.0
 10
-26.18434159335855
 20
29.78703644162089
 30
0.0
 10
-26.15
 20
29.85744920926803
 30
0.0
 10
-26.15
 20
29.90787840283389
 30
0.0
  0
SPLINE
  5
97
330
1F
100
AcDbEntity
  8
0
  6
Continuous
 62
     7
370
    25
100
AcDbSpline
210
0.0
220
0.0
230
1.0
 70
     8
 71
     3
 72
    26
 73
    22
 74
     0
 42
0.000000001
 43
0.00000001
 40
0.0
 40
0.0
 40
0.0
 40
0.0
 40
0.1249999999999971
 40
0.1249999999999971
 40
0.2499999999999941
 40
0.2499999999999941
 40
0.3749999999999912
 40
0.3749999999999912
 40
0.4374999999999912
 40
0.4374999999999912
 40
0.4999999999999913
 40
0.4999999999999913
 40
0.5624999999999915
 40
0.5624999999999915
 40
0.6249999999999915
 40
0.6249999999999915
 40
0.7499999999999943
 40
0.7499999999999943
 40
0.8749999999999971
 40
0.8749999999999971
 40
1.0
 40
1.0
 40
1.0
 40
1.0
 10
-22.1
 20
29.90787840283389
 30
0.0
 10
-22.1
 20
29.85768828917737
 30
0.0
 10
-22.06569859364769
 20
29.78703529124011
 30
0.0
 10
-21.95088210981687
 20
29.62364434681416
 30
0.0
 10
-21.87029678674379
 20
29.53027344812712
 30
0.0
 10
-21.67770283317768
 20
29.34194226087577
 30
0.0
 10
-21.56431934445783
 20
29.24417587316428
 30
0.0
 10
-21.36593046731151
 20
29.12057101754898
 30
0.0
 10
-21.2937925714429
 20
29.0829189009549
 30
0.0
 10
-21.13989232829022
 20
29.02840789181768
 30
0.0
 10
-21.05645095835566
 20
29.01184022103292
 30
0.0
 10
-20.88916853402136
 20
29.01239529463921
 30
0.0
 10
-20.80610989394816
 20
29.02935451322996
 30
0.0
 10
-20.65108618013117
 20
29.08523067597332
 30
0.0
 10
-20.58074208625162
 20
29.12240026442602
 30
0.0
 10
-20.38226328894022
 20
29.24681189188782
 30
0.0
 10
-20.27066834566802
 20
29.34335379239545
 30
0.0
 10
-20.0778718909529
 20
29.53224875574102
 30
0.0
 10
-19.9986211074757
 20
29.62429319279512
 30
0.0
 10
-19.88434159335854
 20
29.78703644162089
 30
0.0
 10
-19.85
 20
29.85744920926803
 30
0.0
 10
-19.85
 20
29.90787840283389
 30
0.0
  0
SPLINE
  5
9B
330
1F
100
AcDbEntity
  8
0
  6
Continuous
 62
     7
370
    25
100
AcDbSpline
210
0.0
220
0.0
230
1.0
 70
     8
 71
     3
 72
    26
 73
    22
 74
     0
 42
0.000000001
 43
0.00000001
 40
0.0
 40
0.0
 40
0.0
 40
0.0
 40
0.1249999999999978
 40
0.1249999999999978
 40
0.2499999999999957
 40
0.2499999999999957
 40
0.3749999999999935
 40
0.3749999999999935
 40
0.4374999999999939
 40
0.4374999999999939
 40
0.4999999999999944
 40
0.4999999999999944
 40
0.5624999999999949
 40
0.5624999999999949
 40
0.6249999999999953
 40
0.6249999999999953
 40
0.7499999999999969
 40
0.7499999999999969
 40
0.8749999999999983
 40
0.8749999999999983
 40
1.0
 40
1.0
 40
1.0
 40
1.0
 10
-15.8
 20
29.90787840283389
 30
0.0
 10
-15.8
 20
29.85768828917736
 30
0.0
 10
-15.76569859364768
 20
29.7870352912401
 30
0.0
 10
-15.65088210981686
 20
29.62364434681415
 30
0.0
 10
-15.57029678674379
 20
29.53027344812711
 30
0.0
 10
-15.37770283317768
 20
29.34194226087576
 30
0.0
 10
-15.26431934445783
 20
29.24417587316427
 30
0.0
 10
-15.06593046731151
 20
29.12057101754899
 30
0.0
 10
-14.9937925714429
 20
29.0829189009549
 30
0.0
 10
-14.83989232829022
 20
29.02840789181769
 30
0.0
 10
-14.75645095835566
 20
29.01184022103293
 30
0.0
 10
-14.58916853402136
 20
29.01239529463921
 30
0.0
 10
-14.50610989394817
 20
29.02935451322995
 30
0.0
 10
-14.35108618013117
 20
29.08523067597332
 30
0.0
 10
-14.28074208625162
 20
29.12240026442602
 30
0.0
 10
-14.08226328894021
 20
29.24681189188781
 30
0.0
 10
-13.97066834566802
 20
29.34335379239545
 30
0.0
 10
-13.77787189095291
 20
29.53224875574102
 30
0.0
 10
-13.6986211074757
 20
29.62429319279512
 30
0.0
 10
-13.58434159335856
 20
29.7870364416209
 30
0.0
 10
-13.55
 20
29.85744920926803
 30
0.0
 10
-13.55
 20
29.90787840283389
 30
0.0
  0
SPLINE
  5
9F
330
1F
100
AcDbEntity
  8
0
  6
Continuous
 62
     7
370
    25
100
AcDbSpline
210
0.0
220
0.0
230
1.0
 70
     8
 71
     3
 72
    26
 73
    22
 74
     0
 42
0.000000001
 43
0.00000001
 40
0.0
 40
0.0
 40
0.0
 40
0.0
 40
0.1249999999999997
 40
0.1249999999999997
 40
0.2499999999999994
 40
0.2499999999999994
 40
0.3749999999999992
 40
0.3749999999999992
 40
0.4375000000000006
 40
0.4375000000000006
 40
0.500000000000002
 40
0.500000000000002
 40
0.5625000000000021
 40
0.5625000000000021
 40
0.6250000000000021
 40
0.6250000000000021
 40
0.7500000000000014
 40
0.7500000000000014
 40
0.8750000000000007
 40
0.8750000000000007
 40
1.0
 40
1.0
 40
1.0
 40
1.0
 10
-9.500000000000002
 20
29.90787840283389
 30
0.0
 10
-9.500000000000002
 20
29.85768828917736
 30
0.0
 10
-9.465698593647685
 20
29.78703529124011
 30
0.0
 10
-9.35088210981687
 20
29.62364434681416
 30
0.0
 10
-9.270296786743794
 20
29.53027344812712
 30
0.0
 10
-9.07770283317768
 20
29.34194226087577
 30
0.0
 10
-8.964319344457834
 20
29.24417587316428
 30
0.0
 10
-8.765930467311511
 20
29.12057101754898
 30
0.0
 10
-8.693792571442893
 20
29.08291890095489
 30
0.0
 10
-8.539892328290216
 20
29.0284078918177
 30
0.0
 10
-8.456450958355667
 20
29.01184022103293
 30
0.0
 10
-8.289168534021364
 20
29.01239529463921
 30
0.0
 10
-8.206109893948165
 20
29.02935451322996
 30
0.0
 10
-8.051086180131172
 20
29.08523067597332
 30
0.0
 10
-7.980742086251623
 20
29.12240026442602
 30
0.0
 10
-7.782263288940209
 20
29.24681189188781
 30
0.0
 10
-7.670668345668022
 20
29.34335379239545
 30
0.0
 10
-7.477871890952905
 20
29.53224875574103
 30
0.0
 10
-7.398621107475699
 20
29.62429319279513
 30
0.0
 10
-7.284341593358552
 20
29.7870364416209
 30
0.0
 10
-7.249999999999999
 20
29.85744920926802
 30
0.0
 10
-7.249999999999999
 20
29.90787840283389
 30
0.0
  0
SPLINE
  5
A3
330
1F
100
AcDbEntity
  8
0
  6
Continuous
 62
     7
370
    25
100
AcDbSpline
210
0.0
220
0.0
230
1.0
 70
     8
 71
     3
 72
    26
 73
    22
 74
     0
 42
0.000000001
 43
0.00000001
 40
0.0
 40
0.0
 40
0.0
 40
0.0
 40
0.1249999999999994
 40
0.1249999999999994
 40
0.2499999999999989
 40
0.2499999999999989
 40
0.3749999999999983
 40
0.3749999999999983
 40
0.4374999999999983
 40
0.4374999999999983
 40
0.4999999999999983
 40
0.4999999999999983
 40
0.5624999999999983
 40
0.5624999999999983
 40
0.6249999999999983
 40
0.6249999999999983
 40
0.7499999999999989
 40
0.7499999999999989
 40
0.8749999999999994
 40
0.8749999999999994
 40
1.0
 40
1.0
 40
1.0
 40
1.0
 10
-3.200000000000002
 20
29.90787840283389
 30
0.0
 10
-3.200000000000004
 20
29.85768828917736
 30
0.0
 10
-3.165698593647685
 20
29.78703529124011
 30
0.0
 10
-3.050882109816868
 20
29.62364434681415
 30
0.0
 10
-2.970296786743795
 20
29.53027344812711
 30
0.0
 10
-2.777702833177677
 20
29.34194226087575
 30
0.0
 10
-2.664319344457838
 20
29.24417587316428
 30
0.0
 10
-2.465930467311521
 20
29.12057101754899
 30
0.0
 10
-2.3937925714429
 20
29.0829189009549
 30
0.0
 10
-2.239892328290221
 20
29.02840789181768
 30
0.0
 10
-2.156450958355664
 20
29.01184022103293
 30
0.0
 10
-1.989168534021364
 20
29.0123952946392
 30
0.0
 10
-1.906109893948166
 20
29.02935451322995
 30
0.0
 10
-1.751086180131172
 20
29.08523067597332
 30
0.0
 10
-1.680742086251622
 20
29.12240026442602
 30
0.0
 10
-1.482263288940211
 20
29.24681189188782
 30
0.0
 10
-1.370668345668022
 20
29.34335379239545
 30
0.0
 10
-1.177871890952905
 20
29.53224875574103
 30
0.0
 10
-1.098621107475698
 20
29.62429319279513
 30
0.0
 10
-0.9843415933585532
 20
29.78703644162091
 30
0.0
 10
-0.9499999999999996
 20
29.85744920926803
 30
0.0
 10
-0.9499999999999995
 20
29.90787840283389
 30
0.0
  0
SPLINE
  5
A7
330
1F
100
AcDbEntity
  8
0
  6
Continuous
 62
     7
370
    25
100
AcDbSpline
210
0.0
220
0.0
230
1.0
 70
     8
 71
     3
 72
    26
 73
    22
 74
     0
 42
0.000000001
 43
0.00000001
 40
0.0
 40
0.0
 40
0.0
 40
0.0
 40
0.1249999999999998
 40
0.1249999999999998
 40
0.2499999999999996
 40
0.2499999999999996
 40
0.3749999999999994
 40
0.3749999999999994
 40
0.4374999999999996
 40
0.4374999999999996
 40
0.4999999999999994
 40
0.4999999999999994
 40
0.5624999999999993
 40
0.5624999999999993
 40
0.6249999999999992
 40
0.6249999999999992
 40
0.7499999999999994
 40
0.7499999999999994
 40
0.8749999999999998
 40
0.8749999999999998
 40
1.0
 40
1.0
 40
1.0
 40
1.0
 10
3.099999999999998
 20
29.90787840283389
 30
0.0
 10
3.099999999999997
 20
29.85768828917737
 30
0.0
 10
3.134301406352316
 20
29.78703529124011
 30
0.0
 10
3.249117890183131
 20
29.62364434681416
 30
0.0
 10
3.329703213256205
 20
29.53027344812712
 30
0.0
 10
3.522297166822322
 20
29.34194226087576
 30
0.0
 10
3.635680655542163
 20
29.24417587316428
 30
0.0
 10
3.834069532688479
 20
29.12057101754899
 30
0.0
 10
3.9062074285571
 20
29.08291890095489
 30
0.0
 10
4.060107671709778
 20
29.02840789181768
 30
0.0
 10
4.143549041644339
 20
29.01184022103294
 30
0.0
 10
4.310831465978636
 20
29.0123952946392
 30
0.0
 10
4.393890106051834
 20
29.02935451322995
 30
0.0
 10
4.548913819868829
 20
29.08523067597331
 30
0.0
 10
4.619257913748379
 20
29.12240026442602
 30
0.0
 10
4.817736711059792
 20
29.24681189188781
 30
0.0
 10
4.92933165433198
 20
29.34335379239545
 30
0.0
 10
5.122128109047095
 20
29.53224875574102
 30
0.0
 10
5.201378892524303
 20
29.62429319279513
 30
0.0
 10
5.315658406641446
 20
29.7870364416209
 30
0.0
 10
5.350000000000001
 20
29.85744920926803
 30
0.0
 10
5.350000000000001
 20
29.90787840283389
 30
0.0
  0
SPLINE
  5
AB
330
1F
100
AcDbEntity
  8
0
  6
Continuous
 62
     7
370
    25
100
AcDbSpline
210
0.0
220
0.0
230
1.0
 70
     8
 71
     3
 72
    26
 73
    22
 74
     0
 42
0.000000001
 43
0.00000001
 40
0.0
 40
0.0
 40
0.0
 40
0.0
 40
0.1249999999999984
 40
0.1249999999999984
 40
0.2499999999999968
 40
0.2499999999999968
 40
0.3749999999999952
 40
0.3749999999999952
 40
0.4374999999999952
 40
0.4374999999999952
 40
0.4999999999999952
 40
0.4999999999999952
 40
0.5624999999999952
 40
0.5624999999999952
 40
0.6249999999999952
 40
0.6249999999999952
 40
0.7499999999999968
 40
0.7499999999999968
 40
0.8749999999999984
 40
0.8749999999999984
 40
1.0
 40
1.0
 40
1.0
 40
1.0
 10
9.399999999999999
 20
29.90787840283389
 30
0.0
 10
9.399999999999999
 20
29.85768828917737
 30
0.0
 10
9.434301406352315
 20
29.78703529124011
 30
0.0
 10
9.549117890183132
 20
29.62364434681416
 30
0.0
 10
9.629703213256207
 20
29.53027344812712
 30
0.0
 10
9.822297166822326
 20
29.34194226087577
 30
0.0
 10
9.935680655542162
 20
29.24417587316428
 30
0.0
 10
10.13406953268848
 20
29.120571017549
 30
0.0
 10
10.2062074285571
 20
29.0829189009549
 30
0.0
 10
10.36010767170978
 20
29.02840789181768
 30
0.0
 10
10.44354904164434
 20
29.01184022103293
 30
0.0
 10
10.61083146597864
 20
29.0123952946392
 30
0.0
 10
10.69389010605184
 20
29.02935451322996
 30
0.0
 10
10.84891381986883
 20
29.08523067597332
 30
0.0
 10
10.91925791374838
 20
29.12240026442603
 30
0.0
 10
11.11773671105979
 20
29.24681189188781
 30
0.0
 10
11.22933165433198
 20
29.34335379239545
 30
0.0
 10
11.42212810904709
 20
29.53224875574102
 30
0.0
 10
11.5013788925243
 20
29.62429319279513
 30
0.0
 10
11.61565840664145
 20
29.78703644162091
 30
0.0
 10
11.65000000000001
 20
29.85744920926803
 30
0.0
 10
11.65
 20
29.90787840283389
 30
0.0
  0
SPLINE
  5
AF
330
1F
100
AcDbEntity
  8
0
  6
Continuous
 62
     7
370
    25
100
AcDbSpline
210
0.0
220
0.0
230
1.0
 70
     8
 71
     3
 72
    26
 73
    22
 74
     0
 42
0.000000001
 43
0.00000001
 40
0.0
 40
0.0
 40
0.0
 40
0.0
 40
0.1249999999999986
 40
0.1249999999999986
 40
0.2499999999999973
 40
0.2499999999999973
 40
0.3749999999999959
 40
0.3749999999999959
 40
0.4374999999999955
 40
0.4374999999999955
 40
0.4999999999999951
 40
0.4999999999999951
 40
0.5624999999999948
 40
0.5624999999999948
 40
0.6249999999999944
 40
0.6249999999999944
 40
0.7499999999999962
 40
0.7499999999999962
 40
0.8749999999999981
 40
0.8749999999999981
 40
1.0
 40
1.0
 40
1.0
 40
1.0
 10
15.7
 20
29.90787840283389
 30
0.0
 10
15.70000000000001
 20
29.85768828917738
 30
0.0
 10
15.73430140635232
 20
29.78703529124011
 30
0.0
 10
15.84911789018313
 20
29.62364434681416
 30
0.0
 10
15.92970321325621
 20
29.53027344812712
 30
0.0
 10
16.12229716682232
 20
29.34194226087576
 30
0.0
 10
16.23568065554215
 20
29.24417587316427
 30
0.0
 10
16.43406953268848
 20
29.12057101754899
 30
0.0
 10
16.5062074285571
 20
29.0829189009549
 30
0.0
 10
16.66010767170977
 20
29.02840789181769
 30
0.0
 10
16.74354904164434
 20
29.01184022103293
 30
0.0
 10
16.91083146597864
 20
29.01239529463921
 30
0.0
 10
16.99389010605184
 20
29.02935451322995
 30
0.0
 10
17.14891381986882
 20
29.08523067597332
 30
0.0
 10
17.21925791374838
 20
29.12240026442602
 30
0.0
 10
17.41773671105979
 20
29.2468118918878
 30
0.0
 10
17.52933165433198
 20
29.34335379239544
 30
0.0
 10
17.72212810904709
 20
29.53224875574102
 30
0.0
 10
17.8013788925243
 20
29.62429319279513
 30
0.0
 10
17.91565840664146
 20
29.7870364416209
 30
0.0
 10
17.95
 20
29.85744920926802
 30
0.0
 10
17.95
 20
29.90787840283389
 30
0.0
  0
SPLINE
  5
B3
330
1F
100
AcDbEntity
  8
0
  6
Continuous
 62
     7
370
    25
100
AcDbSpline
210
0.0
220
0.0
230
1.0
 70
     8
 71
     3
 72
    26
 73
    22
 74
     0
 42
0.000000001
 43
0.00000001
 40
0.0
 40
0.0
 40
0.0
 40
0.0
 40
0.1249999999999986
 40
0.1249999999999986
 40
0.2499999999999973
 40
0.2499999999999973
 40
0.3749999999999959
 40
0.3749999999999959
 40
0.4374999999999955
 40
0.4374999999999955
 40
0.4999999999999951
 40
0.4999999999999951
 40
0.5624999999999948
 40
0.5624999999999948
 40
0.6249999999999944
 40
0.6249999999999944
 40
0.7499999999999962
 40
0.7499999999999962
 40
0.8749999999999981
 40
0.8749999999999981
 40
1.0
 40
1.0
 40
1.0
 40
1.0
 10
22.0
 20
29.90787840283389
 30
0.0
 10
22.00000000000001
 20
29.85768828917738
 30
0.0
 10
22.03430140635232
 20
29.78703529124011
 30
0.0
 10
22.14911789018313
 20
29.62364434681416
 30
0.0
 10
22.22970321325621
 20
29.53027344812712
 30
0.0
 10
22.42229716682232
 20
29.34194226087576
 30
0.0
 10
22.53568065554215
 20
29.24417587316427
 30
0.0
 10
22.73406953268848
 20
29.12057101754899
 30
0.0
 10
22.8062074285571
 20
29.0829189009549
 30
0.0
 10
22.96010767170977
 20
29.02840789181769
 30
0.0
 10
23.04354904164434
 20
29.01184022103293
 30
0.0
 10
23.21083146597864
 20
29.01239529463921
 30
0.0
 10
23.29389010605183
 20
29.02935451322995
 30
0.0
 10
23.44891381986883
 20
29.08523067597332
 30
0.0
 10
23.51925791374838
 20
29.12240026442602
 30
0.0
 10
23.71773671105979
 20
29.2468118918878
 30
0.0
 10
23.82933165433197
 20
29.34335379239544
 30
0.0
 10
24.02212810904708
 20
29.53224875574102
 30
0.0
 10
24.1013788925243
 20
29.62429319279513
 30
0.0
 10
24.21565840664145
 20
29.7870364416209
 30
0.0
 10
24.25
 20
29.85744920926802
 30
0.0
 10
24.25
 20
29.90787840283389
 30
0.0
  0
SPLINE
  5
B7
330
1F
100
AcDbEntity
  8
0
  6
Continuous
 62
     7
370
    25
100
AcDbSpline
210
0.0
220
0.0
230
1.0
 70
     8
 71
     3
 72
    26
 73
    22
 74
     0
 42
0.000000001
 43
0.00000001
 40
0.0
 40
0.0
 40
0.0
 40
0.0
 40
0.1249999999999986
 40
0.1249999999999986
 40
0.2499999999999973
 40
0.2499999999999973
 40
0.3749999999999959
 40
0.3749999999999959
 40
0.4374999999999955
 40
0.4374999999999955
 40
0.4999999999999951
 40
0.4999999999999951
 40
0.5624999999999948
 40
0.5624999999999948
 40
0.6249999999999944
 40
0.6249999999999944
 40
0.7499999999999962
 40
0.7499999999999962
 40
0.8749999999999981
 40
0.8749999999999981
 40
1.0
 40
1.0
 40
1.0
 40
1.0
 10
28.3
 20
29.90787840283389
 30
0.0
 10
28.30000000000001
 20
29.85768828917738
 30
0.0
 10
28.33430140635231
 20
29.78703529124011
 30
0.0
 10
28.44911789018312
 20
29.62364434681416
 30
0.0
 10
28.52970321325621
 20
29.53027344812712
 30
0.0
 10
28.72229716682232
 20
29.34194226087576
 30
0.0
 10
28.83568065554216
 20
29.24417587316427
 30
0.0
 10
29.03406953268848
 20
29.12057101754899
 30
0.0
 10
29.10620742855711
 20
29.0829189009549
 30
0.0
 10
29.26010767170977
 20
29.02840789181769
 30
0.0
 10
29.34354904164433
 20
29.01184022103293
 30
0.0
 10
29.51083146597863
 20
29.01239529463921
 30
0.0
 10
29.59389010605183
 20
29.02935451322995
 30
0.0
 10
29.74891381986882
 20
29.08523067597332
 30
0.0
 10
29.81925791374838
 20
29.12240026442602
 30
0.0
 10
30.01773671105979
 20
29.2468118918878
 30
0.0
 10
30.12933165433197
 20
29.34335379239544
 30
0.0
 10
30.3221281090471
 20
29.53224875574102
 30
0.0
 10
30.4013788925243
 20
29.62429319279513
 30
0.0
 10
30.51565840664145
 20
29.7870364416209
 30
0.0
 10
30.55000000000001
 20
29.85744920926802
 30
0.0
 10
30.55
 20
29.90787840283389
 30
0.0
  0
SPLINE
  5
BB
330
1F
100
AcDbEntity
  8
0
  6
Continuous
 62
     7
370
    25
100
AcDbSpline
210
0.0
220
0.0
230
1.0
 70
     8
 71
     3
 72
    26
 73
    22
 74
     0
 42
0.000000001
 43
0.00000001
 40
0.0
 40
0.0
 40
0.0
 40
0.0
 40
0.1250000000000011
 40
0.1250000000000011
 40
0.2500000000000021
 40
0.2500000000000021
 40
0.3750000000000032
 40
0.3750000000000032
 40
0.4375000000000019
 40
0.4375000000000019
 40
0.5000000000000007
 40
0.5000000000000007
 40
0.5624999999999994
 40
0.5624999999999994
 40
0.6249999999999981
 40
0.6249999999999981
 40
0.7499999999999988
 40
0.7499999999999988
 40
0.8749999999999993
 40
0.8749999999999993
 40
1.0
 40
1.0
 40
1.0
 40
1.0
 10
34.6
 20
29.90787840283389
 30
0.0
 10
34.6
 20
29.85768828917737
 30
0.0
 10
34.63430140635232
 20
29.78703529124011
 30
0.0
 10
34.74911789018313
 20
29.62364434681415
 30
0.0
 10
34.8297032132562
 20
29.53027344812713
 30
0.0
 10
35.02229716682233
 20
29.34194226087576
 30
0.0
 10
35.13568065554217
 20
29.24417587316428
 30
0.0
 10
35.33406953268846
 20
29.12057101754899
 30
0.0
 10
35.4062074285571
 20
29.08291890095489
 30
0.0
 10
35.56010767170979
 20
29.02840789181769
 30
0.0
 10
35.64354904164435
 20
29.01184022103294
 30
0.0
 10
35.81083146597864
 20
29.01239529463921
 30
0.0
 10
35.89389010605184
 20
29.02935451322996
 30
0.0
 10
36.04891381986882
 20
29.08523067597332
 30
0.0
 10
36.11925791374838
 20
29.12240026442602
 30
0.0
 10
36.31773671105979
 20
29.24681189188781
 30
0.0
 10
36.429331654332
 20
29.34335379239545
 30
0.0
 10
36.6221281090471
 20
29.53224875574103
 30
0.0
 10
36.70137889252431
 20
29.62429319279513
 30
0.0
 10
36.81565840664145
 20
29.7870364416209
 30
0.0
 10
36.85000000000001
 20
29.85744920926802
 30
0.0
 10
36.85
 20
29.90787840283389
 30
0.0
  0
SPLINE
  5
BF
330
1F
100
AcDbEntity
  8
0
  6
Continuous
 62
     7
370
    25
100
AcDbSpline
210
0.0
220
0.0
230
1.0
 70
     8
 71
     3
 72
    26
 73
    22
 74
     0
 42
0.000000001
 43
0.00000001
 40
0.0
 40
0.0
 40
0.0
 40
0.0
 40
0.1250000000000011
 40
0.1250000000000011
 40
0.2500000000000021
 40
0.2500000000000021
 40
0.3750000000000032
 40
0.3750000000000032
 40
0.4375000000000019
 40
0.4375000000000019
 40
0.5000000000000007
 40
0.5000000000000007
 40
0.5624999999999994
 40
0.5624999999999994
 40
0.6249999999999981
 40
0.6249999999999981
 40
0.7499999999999988
 40
0.7499999999999988
 40
0.8749999999999993
 40
0.8749999999999993
 40
1.0
 40
1.0
 40
1.0
 40
1.0
 10
40.9
 20
29.90787840283389
 30
0.0
 10
40.89999999999999
 20
29.85768828917737
 30
0.0
 10
40.93430140635231
 20
29.78703529124011
 30
0.0
 10
41.04911789018313
 20
29.62364434681415
 30
0.0
 10
41.1297032132562
 20
29.53027344812713
 30
0.0
 10
41.32229716682232
 20
29.34194226087576
 30
0.0
 10
41.43568065554216
 20
29.24417587316428
 30
0.0
 10
41.63406953268847
 20
29.12057101754899
 30
0.0
 10
41.7062074285571
 20
29.08291890095489
 30
0.0
 10
41.86010767170979
 20
29.02840789181769
 30
0.0
 10
41.94354904164436
 20
29.01184022103294
 30
0.0
 10
42.11083146597865
 20
29.01239529463921
 30
0.0
 10
42.19389010605184
 20
29.02935451322996
 30
0.0
 10
42.34891381986883
 20
29.08523067597332
 30
0.0
 10
42.41925791374838
 20
29.12240026442602
 30
0.0
 10
42.61773671105979
 20
29.24681189188781
 30
0.0
 10
42.729331654332
 20
29.34335379239545
 30
0.0
 10
42.92212810904711
 20
29.53224875574103
 30
0.0
 10
43.00137889252431
 20
29.62429319279513
 30
0.0
 10
43.11565840664145
 20
29.7870364416209
 30
0.0
 10
43.15000000000001
 20
29.85744920926802
 30
0.0
 10
43.15
 20
29.90787840283389
 30
0.0
  0
SPLINE
  5
C6
330
1F
100
AcDbEntity
  8
0
  6
Continuous
 62
     7
370
    25
100
AcDbSpline
210
0.0
220
0.0
230
1.0
 70
     8
 71
     3
 72
    26
 73
    22
 74
     0
 42
0.000000001
 43
0.00000001
 40
0.0
 40
0.0
 40
0.0
 40
0.0
 40
0.125000000000005
 40
0.125000000000005
 40
0.2500000000000099
 40
0.2500000000000099
 40
0.3750000000000149
 40
0.3750000000000149
 40
0.4375000000000156
 40
0.4375000000000156
 40
0.5000000000000163
 40
0.5000000000000163
 40
0.562500000000017
 40
0.562500000000017
 40
0.6250000000000178
 40
0.6250000000000178
 40
0.7500000000000118
 40
0.7500000000000118
 40
0.8750000000000059
 40
0.8750000000000059
 40
1.0
 40
1.0
 40
1.0
 40
1.0
 10
-41.0
 20
29.90787840283389
 30
0.0
 10
-41.00000000000001
 20
29.85733963711666
 30
0.0
 10
-40.96603783548627
 20
29.78761332645537
 30
0.0
 10
-40.8512837323831
 20
29.6241212199193
 30
0.0
 10
-40.77080577740988
 20
29.53082636926807
 30
0.0
 10
-40.57823765506949
 20
29.34241034747024
 30
0.0
 10
-40.46488340458731
 20
29.24461534061953
 30
0.0
 10
-40.26653173011344
 20
29.12090190689547
 30
0.0
 10
-40.19437632921201
 20
29.08319294093904
 30
0.0
 10
-40.04058004015414
 20
29.02858475653319
 30
0.0
 10
-39.9569798554424
 20
29.01192586788457
 30
0.0
 10
-39.7900161092222
 20
29.01230579799561
 30
0.0
 10
-39.70683681978173
 20
29.02916204720436
 30
0.0
 10
-39.55166582938306
 20
29.08495278807818
 30
0.0
 10
-39.48109046651283
 20
29.12221344609943
 30
0.0
 10
-39.28283567935405
 20
29.24639029403428
 30
0.0
 10
-39.17076387676452
 20
29.3432857293237
 30
0.0
 10
-38.97825900790544
 20
29.53184400173078
 30
0.0
 10
-38.89859747629414
 20
29.62435344407558
 30
0.0
 10
-38.78457389574003
 20
29.78667907436067
 30
0.0
 10
-38.75
 20
29.857330983855
 30
0.0
 10
-38.75
 20
29.90787840283389
 30
0.0
  0
SPLINE
  5
CA
330
1F
100
AcDbEntity
  8
0
  6
Continuous
 62
     7
370
    25
100
AcDbSpline
210
0.0
220
0.0
230
1.0
 70
     8
 71
     3
 72
    26
 73
    22
 74
     0
 42
0.000000001
 43
0.00000001
 40
0.0
 40
0.0
 40
0.0
 40
0.0
 40
0.1250000000000011
 40
0.1250000000000011
 40
0.2500000000000021
 40
0.2500000000000021
 40
0.3750000000000032
 40
0.3750000000000032
 40
0.4375000000000019
 40
0.4375000000000019
 40
0.5000000000000007
 40
0.5000000000000007
 40
0.5624999999999994
 40
0.5624999999999994
 40
0.6249999999999981
 40
0.6249999999999981
 40
0.7499999999999988
 40
0.7499999999999988
 40
0.8749999999999993
 40
0.8749999999999993
 40
1.0
 40
1.0
 40
1.0
 40
1.0
 10
-34.7
 20
29.90787840283389
 30
0.0
 10
-34.70000000000002
 20
29.85768828917737
 30
0.0
 10
-34.66569859364768
 20
29.78703529124011
 30
0.0
 10
-34.55088210981687
 20
29.62364434681415
 30
0.0
 10
-34.47029678674381
 20
29.53027344812713
 30
0.0
 10
-34.27770283317767
 20
29.34194226087576
 30
0.0
 10
-34.16431934445785
 20
29.24417587316428
 30
0.0
 10
-33.96593046731153
 20
29.12057101754899
 30
0.0
 10
-33.8937925714429
 20
29.08291890095489
 30
0.0
 10
-33.73989232829023
 20
29.02840789181769
 30
0.0
 10
-33.65645095835567
 20
29.01184022103294
 30
0.0
 10
-33.48916853402137
 20
29.01239529463921
 30
0.0
 10
-33.40610989394817
 20
29.02935451322996
 30
0.0
 10
-33.25108618013117
 20
29.08523067597332
 30
0.0
 10
-33.18074208625162
 20
29.12240026442602
 30
0.0
 10
-32.98226328894022
 20
29.24681189188781
 30
0.0
 10
-32.87066834566802
 20
29.34335379239545
 30
0.0
 10
-32.67787189095291
 20
29.53224875574103
 30
0.0
 10
-32.59862110747569
 20
29.62429319279513
 30
0.0
 10
-32.48434159335855
 20
29.7870364416209
 30
0.0
 10
-32.45
 20
29.85744920926802
 30
0.0
 10
-32.45
 20
29.90787840283389
 30
0.0
  0
SPLINE
  5
D8
330
1F
100
AcDbEntity
  8
0
  6
Continuous
 62
     7
370
    25
100
AcDbSpline
210
0.0
220
0.0
230
1.0
 70
     8
 71
     3
 72
    26
 73
    22
 74
     0
 42
0.000000001
 43
0.00000001
 40
0.0
 40
0.0
 40
0.0
 40
0.0
 40
0.1250000000000011
 40
0.1250000000000011
 40
0.2500000000000021
 40
0.2500000000000021
 40
0.3750000000000032
 40
0.3750000000000032
 40
0.4375000000000019
 40
0.4375000000000019
 40
0.5000000000000007
 40
0.5000000000000007
 40
0.5624999999999994
 40
0.5624999999999994
 40
0.6249999999999981
 40
0.6249999999999981
 40
0.7499999999999988
 40
0.7499999999999988
 40
0.8749999999999993
 40
0.8749999999999993
 40
1.0
 40
1.0
 40
1.0
 40
1.0
 10
-32.45
 20
-29.90787840283389
 30
0.0
 10
-32.45
 20
-29.85768828917737
 30
0.0
 10
-32.48430140635232
 20
-29.78703529124011
 30
0.0
 10
-32.59911789018312
 20
-29.62364434681415
 30
0.0
 10
-32.6797032132562
 20
-29.53027344812713
 30
0.0
 10
-32.87229716682233
 20
-29.34194226087576
 30
0.0
 10
-32.98568065554216
 20
-29.24417587316428
 30
0.0
 10
-33.18406953268848
 20
-29.12057101754899
 30
0.0
 10
-33.2562074285571
 20
-29.08291890095489
 30
0.0
 10
-33.41010767170979
 20
-29.02840789181769
 30
0.0
 10
-33.49354904164435
 20
-29.01184022103294
 30
0.0
 10
-33.66083146597864
 20
-29.01239529463921
 30
0.0
 10
-33.74389010605184
 20
-29.02935451322996
 30
0.0
 10
-33.89891381986882
 20
-29.08523067597332
 30
0.0
 10
-33.96925791374838
 20
-29.12240026442602
 30
0.0
 10
-34.16773671105979
 20
-29.24681189188781
 30
0.0
 10
-34.279331654332
 20
-29.34335379239545
 30
0.0
 10
-34.47212810904711
 20
-29.53224875574103
 30
0.0
 10
-34.55137889252431
 20
-29.62429319279513
 30
0.0
 10
-34.66565840664146
 20
-29.7870364416209
 30
0.0
 10
-34.70000000000002
 20
-29.85744920926802
 30
0.0
 10
-34.7
 20
-29.90787840283389
 30
0.0
  0
SPLINE
  5
DC
330
1F
100
AcDbEntity
  8
0
  6
Continuous
 62
     7
370
    25
100
AcDbSpline
210
0.0
220
0.0
230
1.0
 70
     8
 71
     3
 72
    26
 73
    22
 74
     0
 42
0.000000001
 43
0.00000001
 40
0.0
 40
0.0
 40
0.0
 40
0.0
 40
0.125000000000005
 40
0.125000000000005
 40
0.2500000000000099
 40
0.2500000000000099
 40
0.3750000000000149
 40
0.3750000000000149
 40
0.4375000000000156
 40
0.4375000000000156
 40
0.5000000000000163
 40
0.5000000000000163
 40
0.562500000000017
 40
0.562500000000017
 40
0.6250000000000178
 40
0.6250000000000178
 40
0.7500000000000118
 40
0.7500000000000118
 40
0.8750000000000059
 40
0.8750000000000059
 40
1.0
 40
1.0
 40
1.0
 40
1.0
 10
-38.75
 20
-29.90787840283389
 30
0.0
 10
-38.75
 20
-29.85733963711666
 30
0.0
 10
-38.78396216451372
 20
-29.78761332645537
 30
0.0
 10
-38.8987162676169
 20
-29.6241212199193
 30
0.0
 10
-38.97919422259014
 20
-29.53082636926807
 30
0.0
 10
-39.1717623449305
 20
-29.34241034747024
 30
0.0
 10
-39.2851165954127
 20
-29.24461534061953
 30
0.0
 10
-39.48346826988656
 20
-29.12090190689547
 30
0.0
 10
-39.55562367078799
 20
-29.08319294093904
 30
0.0
 10
-39.70941995984584
 20
-29.02858475653319
 30
0.0
 10
-39.79302014455759
 20
-29.01192586788457
 30
0.0
 10
-39.9599838907778
 20
-29.01230579799561
 30
0.0
 10
-40.04316318021827
 20
-29.02916204720436
 30
0.0
 10
-40.19833417061695
 20
-29.08495278807818
 30
0.0
 10
-40.2689095334872
 20
-29.12221344609943
 30
0.0
 10
-40.46716432064595
 20
-29.24639029403428
 30
0.0
 10
-40.57923612323548
 20
-29.3432857293237
 30
0.0
 10
-40.77174099209458
 20
-29.53184400173078
 30
0.0
 10
-40.85140252370586
 20
-29.62435344407558
 30
0.0
 10
-40.96542610425995
 20
-29.78667907436067
 30
0.0
 10
-40.99999999999999
 20
-29.857330983855
 30
0.0
 10
-41.0
 20
-29.90787840283389
 30
0.0
  0
SPLINE
  5
E1
330
1F
100
AcDbEntity
  8
0
  6
Continuous
 62
     7
370
    25
100
AcDbSpline
210
0.0
220
0.0
230
1.0
 70
     8
 71
     3
 72
    26
 73
    22
 74
     0
 42
0.000000001
 43
0.00000001
 40
0.0
 40
0.0
 40
0.0
 40
0.0
 40
0.1249999999999943
 40
0.1249999999999943
 40
0.2499999999999885
 40
0.2499999999999885
 40
0.3749999999999828
 40
0.3749999999999828
 40
0.4374999999999836
 40
0.4374999999999836
 40
0.4999999999999843
 40
0.4999999999999843
 40
0.5624999999999851
 40
0.5624999999999851
 40
0.6249999999999859
 40
0.6249999999999859
 40
0.7499999999999906
 40
0.7499999999999906
 40
0.8749999999999953
 40
0.8749999999999953
 40
1.0
 40
1.0
 40
1.0
 40
1.0
 10
43.15
 20
-29.90787840283389
 30
0.0
 10
43.15000000000001
 20
-29.85768828917736
 30
0.0
 10
43.11569859364767
 20
-29.78703529124009
 30
0.0
 10
43.00088210981687
 20
-29.62364434681415
 30
0.0
 10
42.92029678674378
 20
-29.53027344812711
 30
0.0
 10
42.72770283317767
 20
-29.34194226087575
 30
0.0
 10
42.61431934445782
 20
-29.24417587316427
 30
0.0
 10
42.41593046731151
 20
-29.12057101754899
 30
0.0
 10
42.34379257144291
 20
-29.0829189009549
 30
0.0
 10
42.18989232829024
 20
-29.02840789181769
 30
0.0
 10
42.10645095835567
 20
-29.01184022103293
 30
0.0
 10
41.93916853402136
 20
-29.01239529463921
 30
0.0
 10
41.85610989394817
 20
-29.02935451322996
 30
0.0
 10
41.70108618013117
 20
-29.08523067597332
 30
0.0
 10
41.63074208625163
 20
-29.12240026442602
 30
0.0
 10
41.43226328894021
 20
-29.24681189188781
 30
0.0
 10
41.32066834566801
 20
-29.34335379239544
 30
0.0
 10
41.12787189095291
 20
-29.53224875574102
 30
0.0
 10
41.0486211074757
 20
-29.62429319279513
 30
0.0
 10
40.93434159335855
 20
-29.7870364416209
 30
0.0
 10
40.9
 20
-29.85744920926802
 30
0.0
 10
40.9
 20
-29.90787840283389
 30
0.0
  0
SPLINE
  5
E5
330
1F
100
AcDbEntity
  8
0
  6
Continuous
 62
     7
370
    25
100
AcDbSpline
210
0.0
220
0.0
230
1.0
 70
     8
 71
     3
 72
    26
 73
    22
 74
     0
 42
0.000000001
 43
0.00000001
 40
0.0
 40
0.0
 40
0.0
 40
0.0
 40
0.1249999999999943
 40
0.1249999999999943
 40
0.2499999999999885
 40
0.2499999999999885
 40
0.3749999999999828
 40
0.3749999999999828
 40
0.4374999999999836
 40
0.4374999999999836
 40
0.4999999999999843
 40
0.4999999999999843
 40
0.5624999999999851
 40
0.5624999999999851
 40
0.6249999999999859
 40
0.6249999999999859
 40
0.7499999999999906
 40
0.7499999999999906
 40
0.8749999999999953
 40
0.8749999999999953
 40
1.0
 40
1.0
 40
1.0
 40
1.0
 10
36.85
 20
-29.90787840283389
 30
0.0
 10
36.85000000000001
 20
-29.85768828917736
 30
0.0
 10
36.81569859364767
 20
-29.78703529124009
 30
0.0
 10
36.70088210981685
 20
-29.62364434681415
 30
0.0
 10
36.62029678674379
 20
-29.53027344812711
 30
0.0
 10
36.42770283317765
 20
-29.34194226087575
 30
0.0
 10
36.31431934445784
 20
-29.24417587316427
 30
0.0
 10
36.11593046731151
 20
-29.12057101754899
 30
0.0
 10
36.04379257144291
 20
-29.0829189009549
 30
0.0
 10
35.88989232829023
 20
-29.02840789181769
 30
0.0
 10
35.80645095835568
 20
-29.01184022103293
 30
0.0
 10
35.63916853402136
 20
-29.01239529463921
 30
0.0
 10
35.55610989394817
 20
-29.02935451322996
 30
0.0
 10
35.40108618013117
 20
-29.08523067597332
 30
0.0
 10
35.33074208625163
 20
-29.12240026442602
 30
0.0
 10
35.13226328894021
 20
-29.24681189188781
 30
0.0
 10
35.02066834566801
 20
-29.34335379239544
 30
0.0
 10
34.82787189095291
 20
-29.53224875574102
 30
0.0
 10
34.74862110747569
 20
-29.62429319279513
 30
0.0
 10
34.63434159335856
 20
-29.7870364416209
 30
0.0
 10
34.6
 20
-29.85744920926802
 30
0.0
 10
34.6
 20
-29.90787840283389
 30
0.0
  0
SPLINE
  5
E9
330
1F
100
AcDbEntity
  8
0
  6
Continuous
 62
     7
370
    25
100
AcDbSpline
210
0.0
220
0.0
230
1.0
 70
     8
 71
     3
 72
    26
 73
    22
 74
     0
 42
0.000000001
 43
0.00000001
 40
0.0
 40
0.0
 40
0.0
 40
0.0
 40
0.1249999999999971
 40
0.1249999999999971
 40
0.2499999999999941
 40
0.2499999999999941
 40
0.3749999999999912
 40
0.3749999999999912
 40
0.4374999999999912
 40
0.4374999999999912
 40
0.4999999999999913
 40
0.4999999999999913
 40
0.5624999999999915
 40
0.5624999999999915
 40
0.6249999999999915
 40
0.6249999999999915
 40
0.7499999999999943
 40
0.7499999999999943
 40
0.8749999999999971
 40
0.8749999999999971
 40
1.0
 40
1.0
 40
1.0
 40
1.0
 10
30.55
 20
-29.90787840283389
 30
0.0
 10
30.55
 20
-29.85768828917737
 30
0.0
 10
30.51569859364768
 20
-29.78703529124011
 30
0.0
 10
30.40088210981688
 20
-29.62364434681416
 30
0.0
 10
30.32029678674379
 20
-29.53027344812712
 30
0.0
 10
30.12770283317769
 20
-29.34194226087577
 30
0.0
 10
30.01431934445783
 20
-29.24417587316428
 30
0.0
 10
29.81593046731151
 20
-29.12057101754898
 30
0.0
 10
29.7437925714429
 20
-29.0829189009549
 30
0.0
 10
29.58989232829023
 20
-29.02840789181768
 30
0.0
 10
29.50645095835566
 20
-29.01184022103292
 30
0.0
 10
29.33916853402137
 20
-29.01239529463921
 30
0.0
 10
29.25610989394816
 20
-29.02935451322996
 30
0.0
 10
29.10108618013117
 20
-29.08523067597332
 30
0.0
 10
29.03074208625161
 20
-29.12240026442602
 30
0.0
 10
28.83226328894022
 20
-29.24681189188782
 30
0.0
 10
28.72066834566802
 20
-29.34335379239545
 30
0.0
 10
28.5278718909529
 20
-29.53224875574102
 30
0.0
 10
28.44862110747569
 20
-29.62429319279512
 30
0.0
 10
28.33434159335854
 20
-29.78703644162089
 30
0.0
 10
28.3
 20
-29.85744920926803
 30
0.0
 10
28.3
 20
-29.90787840283389
 30
0.0
  0
SPLINE
  5
ED
330
1F
100
AcDbEntity
  8
0
  6
Continuous
 62
     7
370
    25
100
AcDbSpline
210
0.0
220
0.0
230
1.0
 70
     8
 71
     3
 72
    26
 73
    22
 74
     0
 42
0.000000001
 43
0.00000001
 40
0.0
 40
0.0
 40
0.0
 40
0.0
 40
0.1249999999999971
 40
0.1249999999999971
 40
0.2499999999999941
 40
0.2499999999999941
 40
0.3749999999999912
 40
0.3749999999999912
 40
0.4374999999999912
 40
0.4374999999999912
 40
0.4999999999999913
 40
0.4999999999999913
 40
0.5624999999999915
 40
0.5624999999999915
 40
0.6249999999999915
 40
0.6249999999999915
 40
0.7499999999999943
 40
0.7499999999999943
 40
0.8749999999999971
 40
0.8749999999999971
 40
1.0
 40
1.0
 40
1.0
 40
1.0
 10
24.25
 20
-29.90787840283389
 30
0.0
 10
24.25
 20
-29.85768828917737
 30
0.0
 10
24.21569859364768
 20
-29.78703529124011
 30
0.0
 10
24.10088210981687
 20
-29.62364434681416
 30
0.0
 10
24.02029678674379
 20
-29.53027344812712
 30
0.0
 10
23.82770283317768
 20
-29.34194226087577
 30
0.0
 10
23.71431934445784
 20
-29.24417587316428
 30
0.0
 10
23.51593046731151
 20
-29.12057101754898
 30
0.0
 10
23.4437925714429
 20
-29.0829189009549
 30
0.0
 10
23.28989232829022
 20
-29.02840789181768
 30
0.0
 10
23.20645095835566
 20
-29.01184022103292
 30
0.0
 10
23.03916853402136
 20
-29.01239529463921
 30
0.0
 10
22.95610989394817
 20
-29.02935451322996
 30
0.0
 10
22.80108618013116
 20
-29.08523067597332
 30
0.0
 10
22.73074208625162
 20
-29.12240026442602
 30
0.0
 10
22.53226328894021
 20
-29.24681189188782
 30
0.0
 10
22.42066834566803
 20
-29.34335379239545
 30
0.0
 10
22.2278718909529
 20
-29.53224875574102
 30
0.0
 10
22.14862110747569
 20
-29.62429319279512
 30
0.0
 10
22.03434159335855
 20
-29.78703644162089
 30
0.0
 10
22.0
 20
-29.85744920926803
 30
0.0
 10
22.0
 20
-29.90787840283389
 30
0.0
  0
SPLINE
  5
F1
330
1F
100
AcDbEntity
  8
0
  6
Continuous
 62
     7
370
    25
100
AcDbSpline
210
0.0
220
0.0
230
1.0
 70
     8
 71
     3
 72
    26
 73
    22
 74
     0
 42
0.000000001
 43
0.00000001
 40
0.0
 40
0.0
 40
0.0
 40
0.0
 40
0.1249999999999971
 40
0.1249999999999971
 40
0.2499999999999941
 40
0.2499999999999941
 40
0.3749999999999912
 40
0.3749999999999912
 40
0.4374999999999912
 40
0.4374999999999912
 40
0.4999999999999913
 40
0.4999999999999913
 40
0.5624999999999915
 40
0.5624999999999915
 40
0.6249999999999915
 40
0.6249999999999915
 40
0.7499999999999943
 40
0.7499999999999943
 40
0.8749999999999971
 40
0.8749999999999971
 40
1.0
 40
1.0
 40
1.0
 40
1.0
 10
17.95
 20
-29.90787840283389
 30
0.0
 10
17.95
 20
-29.85768828917737
 30
0.0
 10
17.91569859364768
 20
-29.78703529124011
 30
0.0
 10
17.80088210981687
 20
-29.62364434681416
 30
0.0
 10
17.72029678674379
 20
-29.53027344812712
 30
0.0
 10
17.52770283317768
 20
-29.34194226087577
 30
0.0
 10
17.41431934445783
 20
-29.24417587316428
 30
0.0
 10
17.21593046731151
 20
-29.12057101754898
 30
0.0
 10
17.14379257144289
 20
-29.0829189009549
 30
0.0
 10
16.98989232829022
 20
-29.02840789181768
 30
0.0
 10
16.90645095835566
 20
-29.01184022103292
 30
0.0
 10
16.73916853402136
 20
-29.01239529463921
 30
0.0
 10
16.65610989394817
 20
-29.02935451322996
 30
0.0
 10
16.50108618013117
 20
-29.08523067597332
 30
0.0
 10
16.43074208625162
 20
-29.12240026442602
 30
0.0
 10
16.23226328894021
 20
-29.24681189188782
 30
0.0
 10
16.12066834566802
 20
-29.34335379239545
 30
0.0
 10
15.9278718909529
 20
-29.53224875574102
 30
0.0
 10
15.8486211074757
 20
-29.62429319279512
 30
0.0
 10
15.73434159335855
 20
-29.78703644162089
 30
0.0
 10
15.7
 20
-29.85744920926803
 30
0.0
 10
15.7
 20
-29.90787840283389
 30
0.0
  0
SPLINE
  5
F5
330
1F
100
AcDbEntity
  8
0
  6
Continuous
 62
     7
370
    25
100
AcDbSpline
210
0.0
220
0.0
230
1.0
 70
     8
 71
     3
 72
    26
 73
    22
 74
     0
 42
0.000000001
 43
0.00000001
 40
0.0
 40
0.0
 40
0.0
 40
0.0
 40
0.1249999999999982
 40
0.1249999999999982
 40
0.2499999999999964
 40
0.2499999999999964
 40
0.3749999999999947
 40
0.3749999999999947
 40
0.4374999999999953
 40
0.4374999999999953
 40
0.499999999999996
 40
0.499999999999996
 40
0.5624999999999967
 40
0.5624999999999967
 40
0.6249999999999973
 40
0.6249999999999973
 40
0.7499999999999982
 40
0.7499999999999982
 40
0.8749999999999991
 40
0.8749999999999991
 40
1.0
 40
1.0
 40
1.0
 40
1.0
 10
11.65
 20
-29.90787840283389
 30
0.0
 10
11.65
 20
-29.85768828917737
 30
0.0
 10
11.61569859364768
 20
-29.78703529124011
 30
0.0
 10
11.50088210981687
 20
-29.62364434681416
 30
0.0
 10
11.42029678674379
 20
-29.53027344812712
 30
0.0
 10
11.22770283317768
 20
-29.34194226087576
 30
0.0
 10
11.11431934445783
 20
-29.24417587316427
 30
0.0
 10
10.91593046731151
 20
-29.12057101754898
 30
0.0
 10
10.84379257144289
 20
-29.08291890095489
 30
0.0
 10
10.68989232829022
 20
-29.02840789181769
 30
0.0
 10
10.60645095835566
 20
-29.01184022103293
 30
0.0
 10
10.43916853402136
 20
-29.01239529463921
 30
0.0
 10
10.35610989394816
 20
-29.02935451322996
 30
0.0
 10
10.20108618013117
 20
-29.08523067597331
 30
0.0
 10
10.13074208625162
 20
-29.12240026442602
 30
0.0
 10
9.93226328894021
 20
-29.24681189188781
 30
0.0
 10
9.820668345668022
 20
-29.34335379239545
 30
0.0
 10
9.627871890952907
 20
-29.53224875574103
 30
0.0
 10
9.5486211074757
 20
-29.62429319279513
 30
0.0
 10
9.434341593358555
 20
-29.7870364416209
 30
0.0
 10
9.400000000000002
 20
-29.85744920926803
 30
0.0
 10
9.399999999999999
 20
-29.90787840283389
 30
0.0
  0
SPLINE
  5
F9
330
1F
100
AcDbEntity
  8
0
  6
Continuous
 62
     7
370
    25
100
AcDbSpline
210
0.0
220
0.0
230
1.0
 70
     8
 71
     3
 72
    26
 73
    22
 74
     0
 42
0.000000001
 43
0.00000001
 40
0.0
 40
0.0
 40
0.0
 40
0.0
 40
0.1249999999999982
 40
0.1249999999999982
 40
0.2499999999999964
 40
0.2499999999999964
 40
0.3749999999999947
 40
0.3749999999999947
 40
0.4374999999999953
 40
0.4374999999999953
 40
0.499999999999996
 40
0.499999999999996
 40
0.5624999999999967
 40
0.5624999999999967
 40
0.624999999999997
 40
0.624999999999997
 40
0.749999999999998
 40
0.749999999999998
 40
0.874999999999999
 40
0.874999999999999
 40
1.0
 40
1.0
 40
1.0
 40
1.0
 10
5.350000000000001
 20
-29.90787840283389
 30
0.0
 10
5.350000000000003
 20
-29.85768828917737
 30
0.0
 10
5.315698593647682
 20
-29.78703529124009
 30
0.0
 10
5.200882109816864
 20
-29.62364434681416
 30
0.0
 10
5.120296786743792
 20
-29.53027344812711
 30
0.0
 10
4.927702833177675
 20
-29.34194226087575
 30
0.0
 10
4.81431934445783
 20
-29.24417587316428
 30
0.0
 10
4.61593046731151
 20
-29.12057101754898
 30
0.0
 10
4.543792571442896
 20
-29.08291890095489
 30
0.0
 10
4.389892328290216
 20
-29.02840789181769
 30
0.0
 10
4.306450958355659
 20
-29.01184022103293
 30
0.0
 10
4.139168534021358
 20
-29.01239529463921
 30
0.0
 10
4.056109893948163
 20
-29.02935451322995
 30
0.0
 10
3.901086180131169
 20
-29.08523067597332
 30
0.0
 10
3.830742086251617
 20
-29.12240026442602
 30
0.0
 10
3.632263288940208
 20
-29.24681189188781
 30
0.0
 10
3.52066834566802
 20
-29.34335379239545
 30
0.0
 10
3.327871890952903
 20
-29.53224875574102
 30
0.0
 10
3.248621107475697
 20
-29.62429319279513
 30
0.0
 10
3.134341593358553
 20
-29.7870364416209
 30
0.0
 10
3.099999999999999
 20
-29.85744920926803
 30
0.0
 10
3.099999999999999
 20
-29.90787840283389
 30
0.0
  0
SPLINE
  5
FD
330
1F
100
AcDbEntity
  8
0
  6
Continuous
 62
     7
370
    25
100
AcDbSpline
210
0.0
220
0.0
230
1.0
 70
     8
 71
     3
 72
    26
 73
    22
 74
     0
 42
0.000000001
 43
0.00000001
 40
0.0
 40
0.0
 40
0.0
 40
0.0
 40
0.1249999999999978
 40
0.1249999999999978
 40
0.2499999999999957
 40
0.2499999999999957
 40
0.3749999999999935
 40
0.3749999999999935
 40
0.437499999999994
 40
0.437499999999994
 40
0.4999999999999946
 40
0.4999999999999946
 40
0.5624999999999951
 40
0.5624999999999951
 40
0.6249999999999957
 40
0.6249999999999957
 40
0.7499999999999971
 40
0.7499999999999971
 40
0.8749999999999984
 40
0.8749999999999984
 40
1.0
 40
1.0
 40
1.0
 40
1.0
 10
-0.9499999999999988
 20
-29.90787840283389
 30
0.0
 10
-0.9499999999999986
 20
-29.85768828917736
 30
0.0
 10
-0.984301406352318
 20
-29.7870352912401
 30
0.0
 10
-1.099117890183135
 20
-29.62364434681416
 30
0.0
 10
-1.179703213256208
 20
-29.5302734481271
 30
0.0
 10
-1.372297166822325
 20
-29.34194226087576
 30
0.0
 10
-1.485680655542171
 20
-29.24417587316428
 30
0.0
 10
-1.68406953268849
 20
-29.12057101754899
 30
0.0
 10
-1.756207428557105
 20
-29.08291890095489
 30
0.0
 10
-1.910107671709786
 20
-29.02840789181768
 30
0.0
 10
-1.993549041644341
 20
-29.01184022103292
 30
0.0
 10
-2.160831465978641
 20
-29.01239529463921
 30
0.0
 10
-2.243890106051838
 20
-29.02935451322995
 30
0.0
 10
-2.398913819868832
 20
-29.08523067597332
 30
0.0
 10
-2.469257913748383
 20
-29.12240026442602
 30
0.0
 10
-2.667736711059793
 20
-29.2468118918878
 30
0.0
 10
-2.77933165433198
 20
-29.34335379239544
 30
0.0
 10
-2.972128109047096
 20
-29.53224875574102
 30
0.0
 10
-3.051378892524303
 20
-29.62429319279513
 30
0.0
 10
-3.165658406641449
 20
-29.7870364416209
 30
0.0
 10
-3.200000000000002
 20
-29.85744920926803
 30
0.0
 10
-3.200000000000002
 20
-29.90787840283389
 30
0.0
  0
SPLINE
  5
101
330
1F
100
AcDbEntity
  8
0
  6
Continuous
 62
     7
370
    25
100
AcDbSpline
210
0.0
220
0.0
230
1.0
 70
     8
 71
     3
 72
    26
 73
    22
 74
     0
 42
0.000000001
 43
0.00000001
 40
0.0
 40
0.0
 40
0.0
 40
0.0
 40
0.1249999999999978
 40
0.1249999999999978
 40
0.2499999999999957
 40
0.2499999999999957
 40
0.3749999999999935
 40
0.3749999999999935
 40
0.4374999999999939
 40
0.4374999999999939
 40
0.4999999999999944
 40
0.4999999999999944
 40
0.5624999999999949
 40
0.5624999999999949
 40
0.6249999999999953
 40
0.6249999999999953
 40
0.7499999999999969
 40
0.7499999999999969
 40
0.8749999999999983
 40
0.8749999999999983
 40
1.0
 40
1.0
 40
1.0
 40
1.0
 10
-7.249999999999998
 20
-29.90787840283389
 30
0.0
 10
-7.249999999999999
 20
-29.85768828917736
 30
0.0
 10
-7.284301406352315
 20
-29.78703529124011
 30
0.0
 10
-7.399117890183133
 20
-29.62364434681415
 30
0.0
 10
-7.479703213256206
 20
-29.53027344812711
 30
0.0
 10
-7.672297166822322
 20
-29.34194226087576
 30
0.0
 10
-7.785680655542172
 20
-29.24417587316427
 30
0.0
 10
-7.984069532688491
 20
-29.12057101754899
 30
0.0
 10
-8.056207428557105
 20
-29.0829189009549
 30
0.0
 10
-8.210107671709784
 20
-29.02840789181769
 30
0.0
 10
-8.293549041644338
 20
-29.01184022103293
 30
0.0
 10
-8.460831465978641
 20
-29.01239529463921
 30
0.0
 10
-8.543890106051839
 20
-29.02935451322995
 30
0.0
 10
-8.698913819868833
 20
-29.08523067597332
 30
0.0
 10
-8.769257913748383
 20
-29.12240026442602
 30
0.0
 10
-8.967736711059793
 20
-29.24681189188781
 30
0.0
 10
-9.07933165433198
 20
-29.34335379239545
 30
0.0
 10
-9.272128109047094
 20
-29.53224875574102
 30
0.0
 10
-9.3513788925243
 20
-29.62429319279512
 30
0.0
 10
-9.465658406641449
 20
-29.7870364416209
 30
0.0
 10
-9.5
 20
-29.85744920926803
 30
0.0
 10
-9.500000000000002
 20
-29.90787840283389
 30
0.0
  0
SPLINE
  5
105
330
1F
100
AcDbEntity
  8
0
  6
Continuous
 62
     7
370
    25
100
AcDbSpline
210
0.0
220
0.0
230
1.0
 70
     8
 71
     3
 72
    26
 73
    22
 74
     0
 42
0.000000001
 43
0.00000001
 40
0.0
 40
0.0
 40
0.0
 40
0.0
 40
0.1249999999999981
 40
0.1249999999999981
 40
0.2499999999999961
 40
0.2499999999999961
 40
0.3749999999999942
 40
0.3749999999999942
 40
0.4374999999999947
 40
0.4374999999999947
 40
0.4999999999999953
 40
0.4999999999999953
 40
0.5624999999999959
 40
0.5624999999999959
 40
0.6249999999999964
 40
0.6249999999999964
 40
0.7499999999999972
 40
0.7499999999999972
 40
0.8749999999999986
 40
0.8749999999999986
 40
1.0
 40
1.0
 40
1.0
 40
1.0
 10
-13.55
 20
-29.90787840283389
 30
0.0
 10
-13.55
 20
-29.85768828917737
 30
0.0
 10
-13.58430140635232
 20
-29.78703529124009
 30
0.0
 10
-13.69911789018314
 20
-29.62364434681416
 30
0.0
 10
-13.77970321325621
 20
-29.53027344812711
 30
0.0
 10
-13.97229716682233
 20
-29.34194226087576
 30
0.0
 10
-14.08568065554217
 20
-29.24417587316428
 30
0.0
 10
-14.28406953268849
 20
-29.12057101754898
 30
0.0
 10
-14.3562074285571
 20
-29.08291890095489
 30
0.0
 10
-14.51010767170979
 20
-29.02840789181769
 30
0.0
 10
-14.59354904164434
 20
-29.01184022103293
 30
0.0
 10
-14.76083146597864
 20
-29.01239529463921
 30
0.0
 10
-14.84389010605184
 20
-29.02935451322995
 30
0.0
 10
-14.99891381986883
 20
-29.08523067597331
 30
0.0
 10
-15.06925791374838
 20
-29.12240026442602
 30
0.0
 10
-15.26773671105979
 20
-29.24681189188781
 30
0.0
 10
-15.37933165433198
 20
-29.34335379239544
 30
0.0
 10
-15.5721281090471
 20
-29.53224875574103
 30
0.0
 10
-15.6513788925243
 20
-29.62429319279514
 30
0.0
 10
-15.76565840664145
 20
-29.7870364416209
 30
0.0
 10
-15.8
 20
-29.85744920926802
 30
0.0
 10
-15.8
 20
-29.90787840283389
 30
0.0
  0
SPLINE
  5
109
330
1F
100
AcDbEntity
  8
0
  6
Continuous
 62
     7
370
    25
100
AcDbSpline
210
0.0
220
0.0
230
1.0
 70
     8
 71
     3
 72
    26
 73
    22
 74
     0
 42
0.000000001
 43
0.00000001
 40
0.0
 40
0.0
 40
0.0
 40
0.0
 40
0.1249999999999971
 40
0.1249999999999971
 40
0.2499999999999941
 40
0.2499999999999941
 40
0.3749999999999912
 40
0.3749999999999912
 40
0.4374999999999912
 40
0.4374999999999912
 40
0.4999999999999913
 40
0.4999999999999913
 40
0.5624999999999915
 40
0.5624999999999915
 40
0.6249999999999915
 40
0.6249999999999915
 40
0.7499999999999943
 40
0.7499999999999943
 40
0.8749999999999971
 40
0.8749999999999971
 40
1.0
 40
1.0
 40
1.0
 40
1.0
 10
-19.85
 20
-29.90787840283389
 30
0.0
 10
-19.85
 20
-29.85768828917737
 30
0.0
 10
-19.88430140635231
 20
-29.78703529124011
 30
0.0
 10
-19.99911789018313
 20
-29.62364434681416
 30
0.0
 10
-20.07970321325621
 20
-29.53027344812712
 30
0.0
 10
-20.27229716682233
 20
-29.34194226087577
 30
0.0
 10
-20.38568065554217
 20
-29.24417587316428
 30
0.0
 10
-20.58406953268848
 20
-29.12057101754898
 30
0.0
 10
-20.6562074285571
 20
-29.0829189009549
 30
0.0
 10
-20.81010767170978
 20
-29.02840789181768
 30
0.0
 10
-20.89354904164434
 20
-29.01184022103292
 30
0.0
 10
-21.06083146597864
 20
-29.01239529463921
 30
0.0
 10
-21.14389010605183
 20
-29.02935451322996
 30
0.0
 10
-21.29891381986883
 20
-29.08523067597332
 30
0.0
 10
-21.36925791374838
 20
-29.12240026442602
 30
0.0
 10
-21.5677367110598
 20
-29.24681189188782
 30
0.0
 10
-21.67933165433199
 20
-29.34335379239545
 30
0.0
 10
-21.87212810904709
 20
-29.53224875574102
 30
0.0
 10
-21.9513788925243
 20
-29.62429319279512
 30
0.0
 10
-22.06565840664145
 20
-29.78703644162089
 30
0.0
 10
-22.1
 20
-29.85744920926803
 30
0.0
 10
-22.1
 20
-29.90787840283389
 30
0.0
  0
SPLINE
  5
10D
330
1F
100
AcDbEntity
  8
0
  6
Continuous
 62
     7
370
    25
100
AcDbSpline
210
0.0
220
0.0
230
1.0
 70
     8
 71
     3
 72
    26
 73
    22
 74
     0
 42
0.000000001
 43
0.00000001
 40
0.0
 40
0.0
 40
0.0
 40
0.0
 40
0.1249999999999971
 40
0.1249999999999971
 40
0.2499999999999941
 40
0.2499999999999941
 40
0.3749999999999912
 40
0.3749999999999912
 40
0.4374999999999912
 40
0.4374999999999912
 40
0.4999999999999913
 40
0.4999999999999913
 40
0.5624999999999915
 40
0.5624999999999915
 40
0.6249999999999915
 40
0.6249999999999915
 40
0.7499999999999943
 40
0.7499999999999943
 40
0.8749999999999971
 40
0.8749999999999971
 40
1.0
 40
1.0
 40
1.0
 40
1.0
 10
-26.15
 20
-29.90787840283389
 30
0.0
 10
-26.15
 20
-29.85768828917737
 30
0.0
 10
-26.18430140635232
 20
-29.78703529124011
 30
0.0
 10
-26.29911789018313
 20
-29.62364434681416
 30
0.0
 10
-26.37970321325621
 20
-29.53027344812712
 30
0.0
 10
-26.57229716682232
 20
-29.34194226087577
 30
0.0
 10
-26.68568065554217
 20
-29.24417587316428
 30
0.0
 10
-26.88406953268848
 20
-29.12057101754898
 30
0.0
 10
-26.9562074285571
 20
-29.0829189009549
 30
0.0
 10
-27.11010767170978
 20
-29.02840789181768
 30
0.0
 10
-27.19354904164434
 20
-29.01184022103292
 30
0.0
 10
-27.36083146597865
 20
-29.01239529463921
 30
0.0
 10
-27.44389010605184
 20
-29.02935451322996
 30
0.0
 10
-27.59891381986883
 20
-29.08523067597332
 30
0.0
 10
-27.66925791374838
 20
-29.12240026442602
 30
0.0
 10
-27.8677367110598
 20
-29.24681189188782
 30
0.0
 10
-27.97933165433198
 20
-29.34335379239545
 30
0.0
 10
-28.17212810904709
 20
-29.53224875574102
 30
0.0
 10
-28.2513788925243
 20
-29.62429319279512
 30
0.0
 10
-28.36565840664144
 20
-29.78703644162089
 30
0.0
 10
-28.4
 20
-29.85744920926803
 30
0.0
 10
-28.4
 20
-29.90787840283389
 30
0.0
  0
LINE
  5
15F
330
1F
100
AcDbEntity
  8
0
  6
Continuous
 62
     7
370
    25
100
AcDbLine
 10
52.1
 20
21.6
 30
0.0
 11
-52.1
 21
21.6
 31
0.0
  0
LINE
  5
160
330
1F
100
AcDbEntity
  8
0
  6
Continuous
 62
     7
370
    25
100
AcDbLine
 10
-52.1
 20
-21.6
 30
0.0
 11
52.1
 21
-21.6
 31
0.0
  0
LINE
  5
161
330
1F
100
AcDbEntity
  8
0
  6
Continuous
 62
     7
370
    25
100
AcDbLine
 10
52.1
 20
-21.6
 30
0.0
 11
52.1
 21
21.6
 31
0.0
  0
LINE
  5
162
330
1F
100
AcDbEntity
  8
0
  6
Continuous
 62
     7
370
    25
100
AcDbLine
 10
51.5
 20
-23.0
 30
0.0
 11
-51.5
 21
-23.0
 31
0.0
  0
LINE
  5
163
330
1F
100
AcDbEntity
  8
0
  6
Continuous
 62
     7
370
    25
100
AcDbLine
 10
51.5
 20
23.0
 30
0.0
 11
-51.5
 21
23.0
 31
0.0
  0
LINE
  5
164
330
1F
100
AcDbEntity
  8
0
  6
Continuous
 62
     7
370
    25
100
AcDbLine
 10
-53.5
 20
41.85
 30
0.0
 11
-53.5
 21
-41.85
 31
0.0
  0
LINE
  5
165
330
1F
100
AcDbEntity
  8
0
  6
Continuous
 62
     7
370
    25
100
AcDbLine
 10
53.5
 20
41.85
 30
0.0
 11
53.5
 21
-41.85
 31
0.0
  0
LINE
  5
166
330
1F
100
AcDbEntity
  8
0
  6
Continuous
 62
     7
370
    25
100
AcDbLine
 10
-52.1
 20
-21.6
 30
0.0
 11
-52.1
 21
21.6
 31
0.0
  0
LINE
  5
167
330
1F
100
AcDbEntity
  8
0
  6
Continuous
 62
     7
370
    25
100
AcDbLine
 10
-53.5
 20
25.0
 30
0.0
 11
53.5
 21
25.0
 31
0.0
  0
LINE
  5
168
330
1F
100
AcDbEntity
  8
0
  6
Continuous
 62
     7
370
    25
100
AcDbLine
 10
-51.5
 20
-23.0
 30
0.0
 11
-51.5
 21
-43.85
 31
0.0
  0
LINE
  5
169
330
1F
100
AcDbEntity
  8
0
  6
Continuous
 62
     7
370
    25
100
AcDbLine
 10
53.5
 20
-25.0
 30
0.0
 11
-53.5
 21
-25.0
 31
0.0
  0
LINE
  5
16A
330
1F
100
AcDbEntity
  8
0
  6
Continuous
 62
     7
370
    25
100
AcDbLine
 10
53.5
 20
28.0
 30
0.0
 11
-53.5
 21
28.0
 31
0.0
  0
LINE
  5
16B
330
1F
100
AcDbEntity
  8
0
  6
Continuous
 62
     7
370
    25
100
AcDbLine
 10
-53.5
 20
-28.0
 30
0.0
 11
53.5
 21
-28.0
 31
0.0
  0
LINE
  5
16C
330
1F
100
AcDbEntity
  8
0
  6
Continuous
 62
     7
370
    25
100
AcDbLine
 10
-26.15
 20
29.9078784028
 30
0.0
 11
-26.15
 21
30.0
 31
0.0
  0
LINE
  5
16D
330
1F
100
AcDbEntity
  8
0
  6
Continuous
 62
     7
370
    25
100
AcDbLine
 10
-22.1
 20
30.0
 30
0.0
 11
-22.1
 21
29.9078784028
 31
0.0
  0
LINE
  5
16E
330
1F
100
AcDbEntity
  8
0
  6
Continuous
 62
     7
370
    25
100
AcDbLine
 10
-19.85
 20
29.9078784028
 30
0.0
 11
-19.85
 21
30.0
 31
0.0
  0
LINE
  5
16F
330
1F
100
AcDbEntity
  8
0
  6
Continuous
 62
     7
370
    25
100
AcDbLine
 10
-15.8
 20
30.0
 30
0.0
 11
-15.8
 21
29.9078784028
 31
0.0
  0
LINE
  5
170
330
1F
100
AcDbEntity
  8
0
  6
Continuous
 62
     7
370
    25
100
AcDbLine
 10
-13.55
 20
29.9078784028
 30
0.0
 11
-13.55
 21
30.0
 31
0.0
  0
LINE
  5
171
330
1F
100
AcDbEntity
  8
0
  6
Continuous
 62
     7
370
    25
100
AcDbLine
 10
-9.5
 20
30.0
 30
0.0
 11
-9.5
 21
29.9078784028
 31
0.0
  0
LINE
  5
172
330
1F
100
AcDbEntity
  8
0
  6
Continuous
 62
     7
370
    25
100
AcDbLine
 10
-7.25
 20
29.9078784028
 30
0.0
 11
-7.25
 21
30.0
 31
0.0
  0
LINE
  5
173
330
1F
100
AcDbEntity
  8
0
  6
Continuous
 62
     7
370
    25
100
AcDbLine
 10
-3.2
 20
30.0
 30
0.0
 11
-3.2
 21
29.9078784028
 31
0.0
  0
LINE
  5
174
330
1F
100
AcDbEntity
  8
0
  6
Continuous
 62
     7
370
    25
100
AcDbLine
 10
-0.95
 20
29.9078784028
 30
0.0
 11
-0.95
 21
30.0
 31
0.0
  0
LINE
  5
175
330
1F
100
AcDbEntity
  8
0
  6
Continuous
 62
     7
370
    25
100
AcDbLine
 10
3.1
 20
30.0
 30
0.0
 11
3.1
 21
29.9078784028
 31
0.0
  0
LINE
  5
176
330
1F
100
AcDbEntity
  8
0
  6
Continuous
 62
     7
370
    25
100
AcDbLine
 10
5.35
 20
29.9078784028
 30
0.0
 11
5.35
 21
30.0
 31
0.0
  0
LINE
  5
177
330
1F
100
AcDbEntity
  8
0
  6
Continuous
 62
     7
370
    25
100
AcDbLine
 10
9.4
 20
30.0
 30
0.0
 11
9.4
 21
29.9078784028
 31
0.0
  0
LINE
  5
178
330
1F
100
AcDbEntity
  8
0
  6
Continuous
 62
     7
370
    25
100
AcDbLine
 10
11.65
 20
29.9078784028
 30
0.0
 11
11.65
 21
30.0
 31
0.0
  0
LINE
  5
179
330
1F
100
AcDbEntity
  8
0
  6
Continuous
 62
     7
370
    25
100
AcDbLine
 10
15.7
 20
30.0
 30
0.0
 11
15.7
 21
29.9078784028
 31
0.0
  0
LINE
  5
17A
330
1F
100
AcDbEntity
  8
0
  6
Continuous
 62
     7
370
    25
100
AcDbLine
 10
17.95
 20
29.9078784028
 30
0.0
 11
17.95
 21
30.0
 31
0.0
  0
LINE
  5
17B
330
1F
100
AcDbEntity
  8
0
  6
Continuous
 62
     7
370
    25
100
AcDbLine
 10
22.0
 20
30.0
 30
0.0
 11
22.0
 21
29.9078784028
 31
0.0
  0
LINE
  5
17C
330
1F
100
AcDbEntity
  8
0
  6
Continuous
 62
     7
370
    25
100
AcDbLine
 10
24.25
 20
29.9078784028
 30
0.0
 11
24.25
 21
30.0
 31
0.0
  0
LINE
  5
17D
330
1F
100
AcDbEntity
  8
0
  6
Continuous
 62
     7
370
    25
100
AcDbLine
 10
28.3
 20
30.0
 30
0.0
 11
28.3
 21
29.9078784028
 31
0.0
  0
LINE
  5
17E
330
1F
100
AcDbEntity
  8
0
  6
Continuous
 62
     7
370
    25
100
AcDbLine
 10
30.55
 20
29.9078784028
 30
0.0
 11
30.55
 21
30.0
 31
0.0
  0
LINE
  5
17F
330
1F
100
AcDbEntity
  8
0
  6
Continuous
 62
     7
370
    25
100
AcDbLine
 10
34.6
 20
30.0
 30
0.0
 11
34.6
 21
29.9078784028
 31
0.0
  0
LINE
  5
180
330
1F
100
AcDbEntity
  8
0
  6
Continuous
 62
     7
370
    25
100
AcDbLine
 10
36.85
 20
29.9078784028
 30
0.0
 11
36.85
 21
30.0
 31
0.0
  0
LINE
  5
181
330
1F
100
AcDbEntity
  8
0
  6
Continuous
 62
     7
370
    25
100
AcDbLine
 10
40.9
 20
30.0
 30
0.0
 11
40.9
 21
29.9078784028
 31
0.0
  0
LINE
  5
182
330
1F
100
AcDbEntity
  8
0
  6
Continuous
 62
     7
370
    25
100
AcDbLine
 10
43.15
 20
29.9078784028
 30
0.0
 11
43.15
 21
30.0
 31
0.0
  0
LINE
  5
183
330
1F
100
AcDbEntity
  8
0
  6
Continuous
 62
     7
370
    25
100
AcDbLine
 10
-41.0
 20
30.0
 30
0.0
 11
-41.0
 21
29.9078784028
 31
0.0
  0
LINE
  5
184
330
1F
100
AcDbEntity
  8
0
  6
Continuous
 62
     7
370
    25
100
AcDbLine
 10
-38.75
 20
29.9078784028
 30
0.0
 11
-38.75
 21
30.0
 31
0.0
  0
LINE
  5
185
330
1F
100
AcDbEntity
  8
0
  6
Continuous
 62
     7
370
    25
100
AcDbLine
 10
-34.7
 20
30.0
 30
0.0
 11
-34.7
 21
29.9078784028
 31
0.0
  0
LINE
  5
186
330
1F
100
AcDbEntity
  8
0
  6
Continuous
 62
     7
370
    25
100
AcDbLine
 10
-32.45
 20
29.9078784028
 30
0.0
 11
-32.45
 21
30.0
 31
0.0
  0
LINE
  5
187
330
1F
100
AcDbEntity
  8
0
  6
Continuous
 62
     7
370
    25
100
AcDbLine
 10
-51.5
 20
30.0
 30
0.0
 11
51.5
 21
30.0
 31
0.0
  0
LINE
  5
188
330
1F
100
AcDbEntity
  8
0
  6
Continuous
 62
     7
370
    25
100
AcDbLine
 10
-28.4
 20
30.0
 30
0.0
 11
-28.4
 21
29.9078784028
 31
0.0
  0
LINE
  5
189
330
1F
100
AcDbEntity
  8
0
  6
Continuous
 62
     7
370
    25
100
AcDbLine
 10
-32.45
 20
-30.0
 30
0.0
 11
-32.45
 21
-29.9078784028
 31
0.0
  0
LINE
  5
18A
330
1F
100
AcDbEntity
  8
0
  6
Continuous
 62
     7
370
    25
100
AcDbLine
 10
-34.7
 20
-29.9078784028
 30
0.0
 11
-34.7
 21
-30.0
 31
0.0
  0
LINE
  5
18B
330
1F
100
AcDbEntity
  8
0
  6
Continuous
 62
     7
370
    25
100
AcDbLine
 10
-38.75
 20
-30.0
 30
0.0
 11
-38.75
 21
-29.9078784028
 31
0.0
  0
LINE
  5
18C
330
1F
100
AcDbEntity
  8
0
  6
Continuous
 62
     7
370
    25
100
AcDbLine
 10
-41.0
 20
-29.9078784028
 30
0.0
 11
-41.0
 21
-30.0
 31
0.0
  0
LINE
  5
18D
330
1F
100
AcDbEntity
  8
0
  6
Continuous
 62
     7
370
    25
100
AcDbLine
 10
43.15
 20
-30.0
 30
0.0
 11
43.15
 21
-29.9078784028
 31
0.0
  0
LINE
  5
18E
330
1F
100
AcDbEntity
  8
0
  6
Continuous
 62
     7
370
    25
100
AcDbLine
 10
40.9
 20
-29.9078784028
 30
0.0
 11
40.9
 21
-30.0
 31
0.0
  0
LINE
  5
18F
330
1F
100
AcDbEntity
  8
0
  6
Continuous
 62
     7
370
    25
100
AcDbLine
 10
36.85
 20
-30.0
 30
0.0
 11
36.85
 21
-29.9078784028
 31
0.0
  0
LINE
  5
190
330
1F
100
AcDbEntity
  8
0
  6
Continuous
 62
     7
370
    25
100
AcDbLine
 10
34.6
 20
-29.9078784028
 30
0.0
 11
34.6
 21
-30.0
 31
0.0
  0
LINE
  5
191
330
1F
100
AcDbEntity
  8
0
  6
Continuous
 62
     7
370
    25
100
AcDbLine
 10
30.55
 20
-30.0
 30
0.0
 11
30.55
 21
-29.9078784028
 31
0.0
  0
LINE
  5
192
330
1F
100
AcDbEntity
  8
0
  6
Continuous
 62
     7
370
    25
100
AcDbLine
 10
28.3
 20
-29.9078784028
 30
0.0
 11
28.3
 21
-30.0
 31
0.0
  0
LINE
  5
193
330
1F
100
AcDbEntity
  8
0
  6
Continuous
 62
     7
370
    25
100
AcDbLine
 10
24.25
 20
-30.0
 30
0.0
 11
24.25
 21
-29.9078784028
 31
0.0
  0
LINE
  5
194
330
1F
100
AcDbEntity
  8
0
  6
Continuous
 62
     7
370
    25
100
AcDbLine
 10
22.0
 20
-29.9078784028
 30
0.0
 11
22.0
 21
-30.0
 31
0.0
  0
LINE
  5
195
330
1F
100
AcDbEntity
  8
0
  6
Continuous
 62
     7
370
    25
100
AcDbLine
 10
17.95
 20
-30.0
 30
0.0
 11
17.95
 21
-29.9078784028
 31
0.0
  0
LINE
  5
196
330
1F
100
AcDbEntity
  8
0
  6
Continuous
 62
     7
370
    25
100
AcDbLine
 10
15.7
 20
-29.9078784028
 30
0.0
 11
15.7
 21
-30.0
 31
0.0
  0
LINE
  5
197
330
1F
100
AcDbEntity
  8
0
  6
Continuous
 62
     7
370
    25
100
AcDbLine
 10
11.65
 20
-30.0
 30
0.0
 11
11.65
 21
-29.9078784028
 31
0.0
  0
LINE
  5
198
330
1F
100
AcDbEntity
  8
0
  6
Continuous
 62
     7
370
    25
100
AcDbLine
 10
9.4
 20
-29.9078784028
 30
0.0
 11
9.4
 21
-30.0
 31
0.0
  0
LINE
  5
199
330
1F
100
AcDbEntity
  8
0
  6
Continuous
 62
     7
370
    25
100
AcDbLine
 10
5.35
 20
-30.0
 30
0.0
 11
5.35
 21
-29.9078784028
 31
0.0
  0
LINE
  5
19A
330
1F
100
AcDbEntity
  8
0
  6
Continuous
 62
     7
370
    25
100
AcDbLine
 10
3.1
 20
-29.9078784028
 30
0.0
 11
3.1
 21
-30.0
 31
0.0
  0
LINE
  5
19B
330
1F
100
AcDbEntity
  8
0
  6
Continuous
 62
     7
370
    25
100
AcDbLine
 10
-0.95
 20
-30.0
 30
0.0
 11
-0.95
 21
-29.9078784028
 31
0.0
  0
LINE
  5
19C
330
1F
100
AcDbEntity
  8
0
  6
Continuous
 62
     7
370
    25
100
AcDbLine
 10
-3.2
 20
-29.9078784028
 30
0.0
 11
-3.2
 21
-30.0
 31
0.0
  0
LINE
  5
19D
330
1F
100
AcDbEntity
  8
0
  6
Continuous
 62
     7
370
    25
100
AcDbLine
 10
-7.25
 20
-30.0
 30
0.0
 11
-7.25
 21
-29.9078784028
 31
0.0
  0
LINE
  5
19E
330
1F
100
AcDbEntity
  8
0
  6
Continuous
 62
     7
370
    25
100
AcDbLine
 10
-9.5
 20
-29.9078784028
 30
0.0
 11
-9.5
 21
-30.0
 31
0.0
  0
LINE
  5
19F
330
1F
100
AcDbEntity
  8
0
  6
Continuous
 62
     7
370
    25
100
AcDbLine
 10
-13.55
 20
-30.0
 30
0.0
 11
-13.55
 21
-29.9078784028
 31
0.0
  0
LINE
  5
1A0
330
1F
100
AcDbEntity
  8
0
  6
Continuous
 62
     7
370
    25
100
AcDbLine
 10
-15.8
 20
-29.9078784028
 30
0.0
 11
-15.8
 21
-30.0
 31
0.0
  0
LINE
  5
1A1
330
1F
100
AcDbEntity
  8
0
  6
Continuous
 62
     7
370
    25
100
AcDbLine
 10
-19.85
 20
-30.0
 30
0.0
 11
-19.85
 21
-29.9078784028
 31
0.0
  0
LINE
  5
1A2
330
1F
100
AcDbEntity
  8
0
  6
Continuous
 62
     7
370
    25
100
AcDbLine
 10
-22.1
 20
-29.9078784028
 30
0.0
 11
-22.1
 21
-30.0
 31
0.0
  0
LINE
  5
1A3
330
1F
100
AcDbEntity
  8
0
  6
Continuous
 62
     7
370
    25
100
AcDbLine
 10
51.5
 20
-30.0
 30
0.0
 11
-51.5
 21
-30.0
 31
0.0
  0
LINE
  5
1A4
330
1F
100
AcDbEntity
  8
0
  6
Continuous
 62
     7
370
    25
100
AcDbLine
 10
-26.15
 20
-30.0
 30
0.0
 11
-26.15
 21
-29.9078784028
 31
0.0
  0
LINE
  5
1A5
330
1F
100
AcDbEntity
  8
0
  6
Continuous
 62
     7
370
    25
100
AcDbLine
 10
-28.4
 20
-29.9078784028
 30
0.0
 11
-28.4
 21
-30.0
 31
0.0
  0
LINE
  5
1A6
330
1F
100
AcDbEntity
  8
0
  6
Continuous
 62
     7
370
    25
100
AcDbLine
 10
53.5
 20
-32.0
 30
0.0
 11
-53.5
 21
-32.0
 31
0.0
  0
LINE
  5
1A7
330
1F
100
AcDbEntity
  8
0
  6
Continuous
 62
     7
370
    25
100
AcDbLine
 10
-53.5
 20
32.0
 30
0.0
 11
53.5
 21
32.0
 31
0.0
  0
LINE
  5
1A8
330
1F
100
AcDbEntity
  8
0
  6
Continuous
 62
     7
370
    25
100
AcDbLine
 10
53.5
 20
41.85
 30
0.0
 11
-53.5
 21
41.85
 31
0.0
  0
LINE
  5
1A9
330
1F
100
AcDbEntity
  8
0
  6
Continuous
 62
     7
370
    25
100
AcDbLine
 10
-51.5
 20
43.85
 30
0.0
 11
-51.5
 21
23.0
 31
0.0
  0
LINE
  5
1AA
330
1F
100
AcDbEntity
  8
0
  6
Continuous
 62
     7
370
    25
100
AcDbLine
 10
-51.5
 20
43.85
 30
0.0
 11
51.5
 21
43.85
 31
0.0
  0
LINE
  5
1AB
330
1F
100
AcDbEntity
  8
0
  6
Continuous
 62
     7
370
    25
100
AcDbLine
 10
51.5
 20
23.0
 30
0.0
 11
51.5
 21
43.85
 31
0.0
  0
LINE
  5
1AC
330
1F
100
AcDbEntity
  8
0
  6
Continuous
 62
     7
370
    25
100
AcDbLine
 10
-53.5
 20
-41.85
 30
0.0
 11
53.5
 21
-41.85
 31
0.0
  0
LINE
  5
1AD
330
1F
100
AcDbEntity
  8
0
  6
Continuous
 62
     7
370
    25
100
AcDbLine
 10
51.5
 20
-43.85
 30
0.0
 11
51.5
 21
-23.0
 31
0.0
  0
LINE
  5
1AE
330
1F
100
AcDbEntity
  8
0
  6
Continuous
 62
     7
370
    25
100
AcDbLine
 10
-42.5
 20
34.7
 30
0.0
 11
42.5
 21
34.7
 31
0.0
  0
LINE
  5
1AF
330
1F
100
AcDbEntity
  8
0
  6
Continuous
 62
     7
370
    25
100
AcDbLine
 10
42.5
 20
39.9
 30
0.0
 11
-42.5
 21
39.9
 31
0.0
  0
LINE
  5
1B0
330
1F
100
AcDbEntity
  8
0
  6
Continuous
 62
     7
370
    25
100
AcDbLine
 10
-42.5
 20
-39.9
 30
0.0
 11
42.5
 21
-39.9
 31
0.0
  0
LINE
  5
1B1
330
1F
100
AcDbEntity
  8
0
  6
Continuous
 62
     7
370
    25
100
AcDbLine
 10
42.5
 20
-34.7
 30
0.0
 11
-42.5
 21
-34.7
 31
0.0
  0
LINE
  5
1B2
330
1F
100
AcDbEntity
  8
0
  6
Continuous
 62
     7
370
    25
100
AcDbLine
 10
51.5
 20
-43.85
 30
0.0
 11
-51.5
 21
-43.85
 31
0.0
  0
ARC
  5
1B3
330
1F
100
AcDbEntity
  8
0
  6
Continuous
 62
     7
370
    25
100
AcDbCircle
 10
51.5
 20
28.0
 30
0.0
 40
2.000000000000011
100
AcDbArc
 50
0.0
 51
90.0
  0
ARC
  5
1B4
330
1F
100
AcDbEntity
  8
0
  6
Continuous
 62
     7
370
    25
100
AcDbCircle
 10
-51.5
 20
28.0
 30
0.0
 40
2.000000000000011
100
AcDbArc
 50
90.0
 51
180.0
  0
ARC
  5
1B5
330
1F
100
AcDbEntity
  8
0
  6
Continuous
 62
     7
370
    25
100
AcDbCircle
 10
51.5
 20
-28.0
 30
0.0
 40
2.000000000000011
100
AcDbArc
 50
270.0
 51
0.0
  0
ARC
  5
1B6
330
1F
100
AcDbEntity
  8
0
  6
Continuous
 62
     7
370
    25
100
AcDbCircle
 10
-51.5
 20
-28.0
 30
0.0
 40
2.000000000000011
100
AcDbArc
 50
180.0
 51
270.0
  0
ARC
  5
1B7
330
1F
100
AcDbEntity
  8
0
  6
Continuous
 62
     7
370
    25
100
AcDbCircle
 10
-51.5
 20
41.85
 30
0.0
 40
2.0
100
AcDbArc
 50
90.0
 51
180.0
  0
ARC
  5
1B8
330
1F
100
AcDbEntity
  8
0
  6
Continuous
 62
     7
370
    25
100
AcDbCircle
 10
51.5
 20
-41.85
 30
0.0
 40
2.0
100
AcDbArc
 50
270.0
 51
0.0
  0
ARC
  5
1B9
330
1F
100
AcDbEntity
  8
0
  6
Continuous
 62
     7
370
    25
100
AcDbCircle
 10
51.5
 20
41.85
 30
0.0
 40
2.0
100
AcDbArc
 50
0.0
 51
90.0
  0
ARC
  5
1BA
330
1F
100
AcDbEntity
  8
0
  6
Continuous
 62
     7
370
    25
100
AcDbCircle
 10
42.5
 20
37.3
 30
0.0
 40
2.599999999999994
100
AcDbArc
 50
270.0
 51
90.0
  0
ARC
  5
1BB
330
1F
100
AcDbEntity
  8
0
  6
Continuous
 62
     7
370
    25
100
AcDbCircle
 10
-42.5
 20
37.3
 30
0.0
 40
2.599999999999994
100
AcDbArc
 50
90.0
 51
270.0
  0
ARC
  5
1BC
330
1F
100
AcDbEntity
  8
0
  6
Continuous
 62
     7
370
    25
100
AcDbCircle
 10
42.5
 20
-37.3
 30
0.0
 40
2.599999999999994
100
AcDbArc
 50
270.0
 51
90.0
  0
ARC
  5
1BD
330
1F
100
AcDbEntity
  8
0
  6
Continuous
 62
     7
370
    25
100
AcDbCircle
 10
-42.5
 20
-37.3
 30
0.0
 40
2.599999999999994
100
AcDbArc
 50
90.0
 51
270.0
  0
ARC
  5
1BE
330
1F
100
AcDbEntity
  8
0
  6
Continuous
 62
     7
370
    25
100
AcDbCircle
 10
-51.5
 20
-41.85
 30
0.0
 40
2.0
100
AcDbArc
 50
180.0
 51
270.0
  0
ENDSEC
  0
SECTION
  2
OBJECTS
  0
DICTIONARY
  5
C
330
0
100
AcDbDictionary
281
     1
  3
ACAD_GROUP
350
D
  3
ACAD_LAYOUT
350
1A
  3
ACAD_MLINESTYLE
350
17
  3
ACAD_PLOTSETTINGS
350
19
  3
ACAD_PLOTSTYLENAME
350
E
  3
ACAD_SCALELIST
350
47
  0
DICTIONARY
  5
D
102
{ACAD_REACTORS
330
C
102
}
330
C
100
AcDbDictionary
281
     1
  0
DICTIONARY
  5
1A
102
{ACAD_REACTORS
330
C
102
}
330
C
100
AcDbDictionary
281
     1
  3
Layout1
350
1E
  3
Layout2
350
26
  3
Model
350
22
  0
DICTIONARY
  5
17
102
{ACAD_REACTORS
330
C
102
}
330
C
100
AcDbDictionary
281
     1
  3
Standard
350
18
  0
DICTIONARY
  5
19
102
{ACAD_REACTORS
330
C
102
}
330
C
100
AcDbDictionary
281
     1
  0
ACDBDICTIONARYWDFLT
  5
E
102
{ACAD_REACTORS
330
C
102
}
330
C
100
AcDbDictionary
281
     1
  3
Normal
350
F
100
AcDbDictionaryWithDefault
340
F
  0
DICTIONARY
  5
47
102
{ACAD_REACTORS
330
C
102
}
330
C
100
AcDbDictionary
281
     1
  3
A0
350
48
  3
A1
350
49
  3
A2
350
4A
  3
A3
350
4B
  3
A4
350
4C
  3
A5
350
4D
  3
A6
350
4E
  3
A7
350
4F
  3
A8
350
50
  3
A9
350
51
  3
B0
350
52
  3
B1
350
53
  3
B2
350
54
  3
B3
350
55
  3
B4
350
56
  3
B5
350
57
  3
B6
350
58
  3
B7
350
59
  3
B8
350
5A
  3
B9
350
5B
  3
C0
350
5C
  3
C1
350
5D
  3
C2
350
5E
  3
C3
350
5F
  3
C4
350
60
  3
C5
350
61
  3
C6
350
62
  3
C7
350
63
  3
C8
350
64
  3
C9
350
65
  3
D0
350
66
  3
D1
350
67
  3
D2
350
68
  0
LAYOUT
  5
1E
102
{ACAD_REACTORS
330
1A
102
}
330
1A
100
AcDbPlotSettings
  1

  2
none_device
  4

  6

 40
0.0
 41
0.0
 42
0.0
 43
0.0
 44
0.0
 45
0.0
 46
0.0
 47
0.0
 48
0.0
 49
0.0
140
0.0
141
0.0
142
1.0
143
1.0
 70
   688
 72
     1
 73
     0
 74
     5
  7

 75
    16
147
1.0
148
0.0
149
0.0
100
AcDbLayout
  1
Layout1
 70
     1
 71
     1
 10
0.0
 20
0.0
 11
420.0
 21
297.0
 12
0.0
 22
0.0
 32
0.0
 14
1.0000000000E+20
 24
1.0000000000E+20
 34
1.0000000000E+20
 15
-1.0000000000E+20
 25
-1.0000000000E+20
 35
-1.0000000000E+20
146
0.0
 13
0.0
 23
0.0
 33
0.0
 16
1.0
 26
0.0
 36
0.0
 17
0.0
 27
1.0
 37
0.0
 76
     0
330
1B
  0
LAYOUT
  5
26
102
{ACAD_REACTORS
330
1A
102
}
330
1A
100
AcDbPlotSettings
  1

  2
none_device
  4

  6

 40
0.0
 41
0.0
 42
0.0
 43
0.0
 44
0.0
 45
0.0
 46
0.0
 47
0.0
 48
0.0
 49
0.0
140
0.0
141
0.0
142
1.0
143
1.0
 70
   688
 72
     1
 73
     0
 74
     5
  7

 75
    16
147
1.0
148
0.0
149
0.0
100
AcDbLayout
  1
Layout2
 70
     1
 71
     2
 10
0.0
 20
0.0
 11
0.0
 21
0.0
 12
0.0
 22
0.0
 32
0.0
 14
0.0
 24
0.0
 34
0.0
 15
0.0
 25
0.0
 35
0.0
146
0.0
 13
0.0
 23
0.0
 33
0.0
 16
1.0
 26
0.0
 36
0.0
 17
0.0
 27
1.0
 37
0.0
 76
     0
330
23
  0
LAYOUT
  5
22
102
{ACAD_REACTORS
330
1A
102
}
330
1A
100
AcDbPlotSettings
  1

  2
none_device
  4
ANSI_A_(11.00_x_8.50_Inches)
  6

 40
6.35
 41
19.05
 42
6.35000508
 43
19.05000254
 44
279.4
 45
215.9
 46
133.34999746
 47
88.89999873
 48
0.0
 49
0.0
140
0.0
141
0.0
142
0.0959521095
143
1.0
 70
  1696
 72
     0
 73
     0
 74
     0
  7

 75
     0
147
0.0179189148
148
-1300.4909072572
149
0.0
100
AcDbLayout
  1
Model
 70
     1
 71
     0
 10
0.0
 20
0.0
 11
420.0
 21
297.0
 12
0.0
 22
0.0
 32
0.0
 14
-53.5
 24
-43.85
 34
0.0
 15
53.5
 25
43.85
 35
0.0
146
0.0
 13
0.0
 23
0.0
 33
0.0
 16
1.0
 26
0.0
 36
0.0
 17
0.0
 27
1.0
 37
0.0
 76
     0
330
1F
331
29
  0
MLINESTYLE
  5
18
102
{ACAD_REACTORS
330
17
102
}
330
17
100
AcDbMlineStyle
  2
Standard
 70
     0
  3

 62
   256
 51
90.0
 52
90.0
 71
     2
 49
0.5
 62
   256
  6
BYLAYER
 49
-0.5
 62
   256
  6
BYLAYER
  0
ACDBPLACEHOLDER
  5
F
102
{ACAD_REACTORS
330
E
102
}
330
E
  0
SCALE
  5
48
102
{ACAD_REACTORS
330
47
102
}
330
47
100
AcDbScale
 70
     0
300
1:1
140
1.0
141
1.0
290
     1
  0
SCALE
  5
49
102
{ACAD_REACTORS
330
47
102
}
330
47
100
AcDbScale
 70
     0
300
1:2
140
1.0
141
2.0
290
     0
  0
SCALE
  5
4A
102
{ACAD_REACTORS
330
47
102
}
330
47
100
AcDbScale
 70
     0
300
1:4
140
1.0
141
4.0
290
     0
  0
SCALE
  5
4B
102
{ACAD_REACTORS
330
47
102
}
330
47
100
AcDbScale
 70
     0
300
1:5
140
1.0
141
5.0
290
     0
  0
SCALE
  5
4C
102
{ACAD_REACTORS
330
47
102
}
330
47
100
AcDbScale
 70
     0
300
1:8
140
1.0
141
8.0
290
     0
  0
SCALE
  5
4D
102
{ACAD_REACTORS
330
47
102
}
330
47
100
AcDbScale
 70
     0
300
1:10
140
1.0
141
10.0
290
     0
  0
SCALE
  5
4E
102
{ACAD_REACTORS
330
47
102
}
330
47
100
AcDbScale
 70
     0
300
1:16
140
1.0
141
16.0
290
     0
  0
SCALE
  5
4F
102
{ACAD_REACTORS
330
47
102
}
330
47
100
AcDbScale
 70
     0
300
1:20
140
1.0
141
20.0
290
     0
  0
SCALE
  5
50
102
{ACAD_REACTORS
330
47
102
}
330
47
100
AcDbScale
 70
     0
300
1:30
140
1.0
141
30.0
290
     0
  0
SCALE
  5
51
102
{ACAD_REACTORS
330
47
102
}
330
47
100
AcDbScale
 70
     0
300
1:40
140
1.0
141
40.0
290
     0
  0
SCALE
  5
52
102
{ACAD_REACTORS
330
47
102
}
330
47
100
AcDbScale
 70
     0
300
1:50
140
1.0
141
50.0
290
     0
  0
SCALE
  5
53
102
{ACAD_REACTORS
330
47
102
}
330
47
100
AcDbScale
 70
     0
300
1:100
140
1.0
141
100.0
290
     0
  0
SCALE
  5
54
102
{ACAD_REACTORS
330
47
102
}
330
47
100
AcDbScale
 70
     0
300
2:1
140
2.0
141
1.0
290
     0
  0
SCALE
  5
55
102
{ACAD_REACTORS
330
47
102
}
330
47
100
AcDbScale
 70
     0
300
4:1
140
4.0
141
1.0
290
     0
  0
SCALE
  5
56
102
{ACAD_REACTORS
330
47
102
}
330
47
100
AcDbScale
 70
     0
300
8:1
140
8.0
141
1.0
290
     0
  0
SCALE
  5
57
102
{ACAD_REACTORS
330
47
102
}
330
47
100
AcDbScale
 70
     0
300
10:1
140
10.0
141
1.0
290
     0
  0
SCALE
  5
58
102
{ACAD_REACTORS
330
47
102
}
330
47
100
AcDbScale
 70
     0
300
100:1
140
100.0
141
1.0
290
     0
  0
SCALE
  5
59
102
{ACAD_REACTORS
330
47
102
}
330
47
100
AcDbScale
 70
     0
300
1/128" = 1'-0"
140
0.0078125
141
12.0
290
     0
  0
SCALE
  5
5A
102
{ACAD_REACTORS
330
47
102
}
330
47
100
AcDbScale
 70
     0
300
1/64" = 1'-0"
140
0.015625
141
12.0
290
     0
  0
SCALE
  5
5B
102
{ACAD_REACTORS
330
47
102
}
330
47
100
AcDbScale
 70
     0
300
1/32" = 1'-0"
140
0.03125
141
12.0
290
     0
  0
SCALE
  5
5C
102
{ACAD_REACTORS
330
47
102
}
330
47
100
AcDbScale
 70
     0
300
1/16" = 1'-0"
140
0.0625
141
12.0
290
     0
  0
SCALE
  5
5D
102
{ACAD_REACTORS
330
47
102
}
330
47
100
AcDbScale
 70
     0
300
3/32" = 1'-0"
140
0.09375
141
12.0
290
     0
  0
SCALE
  5
5E
102
{ACAD_REACTORS
330
47
102
}
330
47
100
AcDbScale
 70
     0
300
1/8" = 1'-0"
140
0.125
141
12.0
290
     0
  0
SCALE
  5
5F
102
{ACAD_REACTORS
330
47
102
}
330
47
100
AcDbScale
 70
     0
300
3/16" = 1'-0"
140
0.1875
141
12.0
290
     0
  0
SCALE
  5
60
102
{ACAD_REACTORS
330
47
102
}
330
47
100
AcDbScale
 70
     0
300
1/4" = 1'-0"
140
0.25
141
12.0
290
     0
  0
SCALE
  5
61
102
{ACAD_REACTORS
330
47
102
}
330
47
100
AcDbScale
 70
     0
300
3/8" = 1'-0"
140
0.375
141
12.0
290
     0
  0
SCALE
  5
62
102
{ACAD_REACTORS
330
47
102
}
330
47
100
AcDbScale
 70
     0
300
1/2" = 1'-0"
140
0.5
141
12.0
290
     0
  0
SCALE
  5
63
102
{ACAD_REACTORS
330
47
102
}
330
47
100
AcDbScale
 70
     0
300
3/4" = 1'-0"
140
0.75
141
12.0
290
     0
  0
SCALE
  5
64
102
{ACAD_REACTORS
330
47
102
}
330
47
100
AcDbScale
 70
     0
300
1" = 1'-0"
140
1.0
141
12.0
290
     0
  0
SCALE
  5
65
102
{ACAD_REACTORS
330
47
102
}
330
47
100
AcDbScale
 70
     0
300
1-1/2" = 1'-0"
140
1.5
141
12.0
290
     0
  0
SCALE
  5
66
102
{ACAD_REACTORS
330
47
102
}
330
47
100
AcDbScale
 70
     0
300
3" = 1'-0"
140
3.0
141
12.0
290
     0
  0
SCALE
  5
67
102
{ACAD_REACTORS
330
47
102
}
330
47
100
AcDbScale
 70
     0
300
6" = 1'-0"
140
6.0
141
12.0
290
     0
  0
SCALE
  5
68
102
{ACAD_REACTORS
330
47
102
}
330
47
100
AcDbScale
 70
     0
300
1'-0" = 1'-0"
140
12.0
141
12.0
290
     0
  0
ENDSEC
  0
EOF
